<svg width="64" height="64" viewBox="0 0 64 64" fill="none" xmlns="http://www.w3.org/2000/svg">
<path d="M25.9729 8.06214C28.6889 3.51461 35.2762 3.51461 37.9923 8.06214L62.464 49.0356C65.2508 53.7015 61.8891 59.625 56.4543 59.625H7.51078C2.07602 59.625 -1.28569 53.7015 1.50106 49.0356L25.9729 8.06214Z" fill="url(#paint0_linear)"/>
<path d="M29.0775 24.3888C29.0864 22.7908 30.3843 21.5 31.9824 21.5C33.5805 21.5 34.8785 22.7908 34.8874 24.3888L34.9658 38.5C34.9749 40.1542 33.6366 41.5 31.9824 41.5C30.3283 41.5 28.9899 40.1542 28.9991 38.5L29.0775 24.3888Z" fill="white"/>
<path d="M34.9824 47.5C34.9824 49.1569 33.6393 50.5 31.9824 50.5C30.3256 50.5 28.9824 49.1569 28.9824 47.5C28.9824 45.8431 30.3256 44.5 31.9824 44.5C33.6393 44.5 34.9824 45.8431 34.9824 47.5Z" fill="white"/>
<defs>
<linearGradient id="paint0_linear" x1="31.9827" y1="4.18421" x2="31.9827" y2="84.2072" gradientUnits="userSpaceOnUse">
<stop stop-color="#FF7171"/>
<stop offset="1" stop-color="#E63757"/>
</linearGradient>
</defs>
</svg>
