<svg width="36" height="36" viewBox="0 0 36 36" fill="none" xmlns="http://www.w3.org/2000/svg">
<path d="M8.29416 0.0598755H27.7073C32.2688 0.0598755 35.9409 3.73205 35.9409 8.29347V27.7067C35.9409 32.2681 32.2688 35.9403 27.7073 35.9403H8.29416C3.73273 35.9403 0.0605469 32.2681 0.0605469 27.7067V8.29347C0.0605469 3.73205 3.73273 0.0598755 8.29416 0.0598755Z" fill="url(#paint0_linear)"/>
<path d="M7.92234 10.2633C7.73329 10.2633 7.55519 10.2959 7.38662 10.363L10.7629 13.8389L14.1765 17.3771L14.2388 17.4518L14.3385 17.5515L14.4381 17.6512L14.6375 17.863L17.5652 20.8655C17.6139 20.8958 17.7552 21.0266 17.8656 21.0818C18.0077 21.1529 18.1618 21.2183 18.3207 21.224C18.492 21.2302 18.6672 21.1811 18.8215 21.106C18.937 21.0498 18.9883 20.9693 19.1225 20.8655L22.5112 17.3646L25.9373 13.8389L29.2388 10.4377C29.0268 10.3229 28.7921 10.2633 28.5411 10.2633H7.92234ZM6.88828 10.6869C6.52824 11.028 6.30273 11.5409 6.30273 12.1196V23.5316C6.30273 24.0002 6.45323 24.4258 6.70141 24.7525L7.17483 24.304L10.7006 20.8779L13.8277 17.8505L13.7654 17.7758L10.3393 14.25L6.9132 10.7118L6.88828 10.6869ZM29.6873 10.799L26.3484 14.25L22.9348 17.7758L22.8725 17.8381L26.1242 20.9901L29.6499 24.4161L29.8617 24.6155C30.0516 24.3109 30.1607 23.9357 30.1607 23.5316V12.1196C30.1607 11.6036 29.9819 11.1357 29.6873 10.799ZM14.2263 18.2617L11.1117 21.2891L7.5735 24.7151L7.12499 25.1512C7.36144 25.3035 7.63053 25.4004 7.92234 25.4004H28.5411C28.8919 25.4004 29.2101 25.2654 29.4755 25.0515L29.2513 24.8273L25.713 21.4012L22.4614 18.2617L19.5336 21.2766C19.3752 21.3817 19.2693 21.4982 19.1146 21.5697C18.8656 21.6849 18.5926 21.7823 18.3183 21.7781C18.0433 21.7739 17.7736 21.6662 17.5267 21.5448C17.4028 21.4839 17.3368 21.4233 17.1914 21.3015L14.2263 18.2617Z" fill="white"/>
<defs>
<linearGradient id="paint0_linear" x1="18.252" y1="35.7962" x2="18.2869" y2="0.493036" gradientUnits="userSpaceOnUse">
<stop stop-color="#70EFFF"/>
<stop offset="1" stop-color="#5770FF"/>
</linearGradient>
</defs>
</svg>
