<svg width="16" height="16" viewBox="0 0 16 16" fill="none" xmlns="http://www.w3.org/2000/svg">
<path d="M15.9257 5.48656C13.8921 3.271 11.0022 2 8 2C4.99776 2 2.10791 3.271 0.0743047 5.48656C-0.0273754 5.59626 -0.0246996 5.76751 0.0823321 5.87455L1.67175 7.4637C1.78146 7.57341 1.95806 7.57341 2.06777 7.4637C2.0865 7.44524 2.09988 7.42383 2.11058 7.39975C3.61705 5.74584 5.76036 4.7962 8 4.7962C10.2396 4.7962 12.3829 5.74611 13.8894 7.39975C13.9001 7.42383 13.9135 7.44524 13.9322 7.4637C13.9857 7.51989 14.058 7.54692 14.1302 7.54692C14.2025 7.54692 14.2747 7.51989 14.3282 7.4637L15.9177 5.87455C16.0247 5.76751 16.0274 5.59653 15.9257 5.48656Z" fill="#349172"/>
<path d="M12.7547 8.56633C11.5533 7.20168 9.82473 6.41794 7.99984 6.41794C6.17495 6.41794 4.44639 7.20195 3.24228 8.56633C3.2289 8.57436 3.21285 8.58265 3.19947 8.59577C3.08976 8.70547 3.08976 8.88208 3.19947 8.99151L4.72735 10.5194C4.7541 10.5488 4.78621 10.5678 4.821 10.5809C4.83705 10.589 4.85311 10.589 4.86649 10.5916C4.88789 10.5943 4.90662 10.6023 4.92535 10.6023C4.92803 10.6023 4.93071 10.5997 4.93338 10.5997C4.93606 10.5997 4.93873 10.6023 4.94141 10.6023C4.95211 10.6023 4.96281 10.5943 4.97352 10.5916C4.9976 10.589 5.02168 10.5836 5.04309 10.5729C5.05914 10.5676 5.06985 10.5569 5.08323 10.5462C5.0966 10.5381 5.11266 10.5328 5.12336 10.5191C5.12871 10.5164 5.12871 10.5087 5.13407 10.5057C5.13674 10.5004 5.14209 10.5004 5.14477 10.495C5.83512 9.62006 6.87601 9.11969 7.99984 9.11969C9.12367 9.11969 10.1646 9.62006 10.8549 10.495C10.8576 10.5007 10.8629 10.5007 10.8656 10.5057C10.871 10.5114 10.871 10.5164 10.8763 10.5191C10.887 10.5328 10.9031 10.5379 10.9165 10.5462C10.9298 10.5569 10.9405 10.5676 10.9566 10.5729C10.978 10.5836 11.0021 10.5892 11.0262 10.5916C11.0369 10.5943 11.0476 10.6023 11.0583 10.6023H11.0743C11.1118 10.6023 11.1466 10.5943 11.1814 10.5809C11.2161 10.5676 11.2456 10.5461 11.2723 10.5194L12.8002 8.99151C12.9099 8.88208 12.9099 8.70547 12.8002 8.59577C12.7868 8.58265 12.7708 8.57436 12.7547 8.56633Z" fill="#349172"/>
<path d="M7.99991 10.2626C7.17309 10.2626 6.50146 10.9371 6.50146 11.7637C6.50146 12.5902 7.17309 13.2621 7.99991 13.2621C8.82673 13.2621 9.49835 12.5905 9.49835 11.7637C9.49835 10.9369 8.82673 10.2626 7.99991 10.2626Z" fill="#349172"/>
</svg>
