<svg width="36" height="36" viewBox="0 0 36 36" fill="none" xmlns="http://www.w3.org/2000/svg">
<path fill-rule="evenodd" clip-rule="evenodd" d="M27.429 5.15378C25.3233 3.77844 22.6304 3.33309 21.1443 3.17756C19.5536 3.0113 18.1721 3.04053 16.9571 3.2189C16.8541 3.21753 16.7518 3.21365 16.6484 3.21365C16.5693 3.21365 16.4915 3.21707 16.412 3.21799C16.4446 3.17802 16.4673 3.15335 16.4673 3.15335C16.4673 3.15335 16.4033 3.1634 16.2779 3.22027C15.8835 3.22666 15.4907 3.24037 15.104 3.26686C15.6428 2.67626 16.0843 2.36657 16.0843 2.36657C16.0843 2.36657 15.5603 2.4433 14.6043 3.3098C14.1496 3.35159 13.7008 3.40709 13.26 3.47606C14.2647 2.11671 15.3155 1.54415 15.3155 1.54415C15.3155 1.54415 14.0418 1.28494 12.0473 3.28901C11.8804 3.45688 11.7258 3.63113 11.5759 3.80768C5.76262 5.21407 1.60236 8.96803 1.60236 13.3795C1.60236 14.2446 1.33675 15.1961 1.62314 16.1464C1.50872 17.6642 1.75241 21.806 1.75241 21.806C1.75241 21.806 3.32598 30.3225 9.37727 31.8031C9.47342 31.8262 8.11293 29.6803 7.51114 27.0922C8.68275 28.2839 10.0791 29.2267 11.6465 29.39C11.8388 29.4099 10.7512 28.1352 9.79864 26.5971L23.5497 31.2301C30.7418 28.141 29.9045 28.4194 31.4486 26.7467C34.8506 23.0642 35.3268 20.9747 34.4697 14.8053C33.8903 10.641 30.8165 6.51632 27.429 5.15378Z" fill="url(#paint0_linear)"/>
<path fill-rule="evenodd" clip-rule="evenodd" d="M2.37873 24.2463L25.1074 31.8031L29.3227 13.8808L3.29364 9.04291L1.24023 20.7184L2.37873 24.2463Z" fill="#FBFBFB"/>
<path fill-rule="evenodd" clip-rule="evenodd" d="M3.35905 9.44019C3.47302 9.68547 3.43945 9.74348 3.36842 9.74348C3.33644 9.74348 3.29693 9.73183 3.25993 9.71996C3.22294 9.70831 3.18822 9.69643 3.16584 9.69643C3.10303 9.69643 3.13843 9.78939 3.49449 10.2366C3.99808 10.8763 11.3936 22.0411 11.7979 22.0411C11.7999 22.0411 11.802 22.0409 11.8036 22.0402C15.2465 20.8133 29.8885 15.7877 29.8885 15.7877L28.3903 13.6055L3.35905 9.44019Z" fill="#999999"/>
<path fill-rule="evenodd" clip-rule="evenodd" d="M3.57227 9.16595C3.57227 9.16595 3.68258 9.73692 4.19393 10.3689C4.70209 11.0065 11.5285 21.3425 11.8711 21.2514C16.3429 20.0643 32.5671 13.7478 32.5671 13.7478L3.57227 9.16595Z" fill="#F8F8F8"/>
<path fill-rule="evenodd" clip-rule="evenodd" d="M24.2955 31.534L2.69531 24.3522L2.77159 24.857L24.536 32.0933L24.2955 31.534Z" fill="#999999"/>
<path fill-rule="evenodd" clip-rule="evenodd" d="M8.37825 8.6828C8.37825 8.6828 0.519063 10.9845 4.12526 18.9973C4.12526 18.9973 2.47175 17.4834 1.48719 15.5476C1.44288 15.461 3.12836 9.4737 3.12836 9.4737L8.37825 8.6828Z" fill="url(#paint1_linear)"/>
<path fill-rule="evenodd" clip-rule="evenodd" d="M4.12623 18.9976C3.4429 18.9857 2.3446 18.4218 1.98855 17.7392C1.54343 25.1592 4.57067 29.4924 9.3768 31.8032C7.8062 31.6232 0 27.5038 0 17.5908C0 9.16175 6.68848 1.62756 17.1554 1.28247C17.2195 1.755 11.9662 2.93986 11.7981 3.49712C11.5373 4.3643 10.9378 5.30821 10.4324 6.06508C9.74724 7.0903 11.3845 7.96707 10.1814 8.24342C8.37099 8.65885 5.95605 8.42886 4.17533 10.7438C1.49843 14.2234 3.28463 18.2042 4.12623 18.9976Z" fill="url(#paint2_radial)"/>
<path fill-rule="evenodd" clip-rule="evenodd" d="M19.9001 1.55371C13.1217 1.03345 9.63287 3.74598 7.39333 6.89975C6.57777 8.04784 6.66684 9.10206 6.94775 10.3755C7.06834 10.9191 7.19029 11.1797 7.04344 11.734C6.96237 12.0398 6.97584 12.3253 6.87512 12.5057C6.73604 12.7551 6.55858 13.0275 6.4992 13.4752C6.35075 14.5931 6.74654 14.9492 6.99388 15.3253C7.34628 14.9754 8.03441 14.1521 9.27499 13.6604C10.5158 13.1687 11.3323 12.4294 12.8874 11.636C15.012 10.5523 17.5026 12.1965 22.2244 10.6491C23.6774 10.173 27.0166 5.22637 27.8093 5.03635C25.6018 2.59538 21.8462 1.70285 19.9001 1.55371Z" fill="url(#paint3_linear)"/>
<path fill-rule="evenodd" clip-rule="evenodd" d="M15.4217 0.00476074C15.4217 0.00476074 14.2113 0.589426 13.6844 1.64571C14.9015 1.03226 15.6079 0.696996 15.9418 0.657028C15.9418 0.657028 15.6218 0.811873 15.2251 1.65461C15.9265 1.43011 16.1679 1.28828 16.3604 1.28623C16.3604 1.28623 16.3044 1.37484 16.2533 2.21576C15.1762 1.86678 13.1034 2.27331 12.0005 2.96394C11.6267 0.969916 15.4217 0.00476074 15.4217 0.00476074Z" fill="#3F6499"/>
<path fill-rule="evenodd" clip-rule="evenodd" d="M20.24 1.25326C18.1622 0.983992 16.4253 1.03698 14.9486 1.32155C15.4129 0.876423 15.9503 0.657173 15.9503 0.657173C15.2539 0.718609 14.3849 1.17332 13.639 1.65453C13.2631 1.77443 12.905 1.90986 12.5658 2.06083C12.7734 1.78722 13.0151 1.49466 13.2512 1.27016C14.128 0.436325 15.4302 0.00467751 15.4302 0.00467751C14.3189 -0.0768559 10.5994 0.875281 8.36126 5.40827C7.99448 5.85522 7.65213 6.31358 7.32599 6.77309C6.48417 7.95864 6.57643 9.0469 6.86671 10.3619C6.9905 10.9235 7.01333 11.8199 6.89115 12.3991C6.86671 12.5152 6.54811 12.8148 6.46635 13.6228C6.37888 14.4802 6.68492 14.9013 6.98661 15.2496C8.05842 13.6824 9.11562 13.3718 9.11562 13.3718C10.6157 12.7572 11.2401 12.1009 12.8458 11.2816C15.0397 10.1623 22.7114 13.8156 27.5865 12.218C29.0867 11.7265 27.0089 5.34089 27.8279 5.14494C25.5481 2.62448 22.2379 1.51225 20.24 1.25326Z" fill="url(#paint4_linear)"/>
<path fill-rule="evenodd" clip-rule="evenodd" d="M35.4576 14.9986C34.2558 8.72034 28.4736 3.00843 23.8239 2.69189C21.7602 2.55143 22.394 3.60931 21.1027 4.01241C15.5381 5.74882 15.4531 6.76262 15.4531 6.76262C27.2517 7.31714 27.4305 18.9696 24.2708 21.9176C25.1599 21.7102 26.124 20.6231 27.0094 18.9166C26.9032 19.6326 26.8118 20.5109 26.6792 21.4909C26.2745 24.4814 26.7986 30.7284 18.2054 34.909C18.2054 34.909 22.9062 34.5249 25.2371 31.9007C24.2891 34.0807 21.688 35.2582 21.688 35.2582C23.6024 34.9782 28.6305 33.4944 31.8336 29.4888C35.4587 24.9546 36.549 20.701 35.4576 14.9986Z" fill="url(#paint5_linear)"/>
<path fill-rule="evenodd" clip-rule="evenodd" d="M23.9593 26.4602C23.9593 26.4602 27.7923 25.3886 29.0274 23.3188C28.8776 25.7321 26.6885 28.2069 26.6885 28.2069C26.6885 28.2069 29.8887 27.5592 31.2533 25.3073C31.0756 27.3395 28.6118 30.0858 28.6118 30.0858C31.1306 29.6339 37.4594 25.636 35.4574 14.9983C34.275 8.71609 28.4734 3.00806 23.8234 2.69152C21.7597 2.55106 22.3935 3.60894 21.1022 4.01204C15.5381 5.74868 15.4531 6.76248 15.4531 6.76248C27.2517 7.317 30.387 13.4921 24.2708 21.7525C25.1599 21.5452 25.5165 21.0564 26.1845 20.2568C26.1842 20.2568 26.4871 23.4195 23.9593 26.4602Z" fill="url(#paint6_linear)"/>
<path fill-rule="evenodd" clip-rule="evenodd" d="M8.80049 12.4251C8.80049 12.4251 8.11534 12.9045 7.61906 12.7823C7.03165 12.6382 6.9323 12.0691 6.9323 12.0691C6.91928 12.1856 6.90444 12.2982 6.88274 12.3991C6.85831 12.5151 6.53971 12.8148 6.45795 13.6228C6.37047 14.4802 6.6925 14.9769 6.99419 15.3252C8.066 13.758 9.10721 13.3718 9.10721 13.3718C8.69909 13.2293 8.80049 12.4251 8.80049 12.4251Z" fill="url(#paint7_linear)"/>
<g opacity="0.6">
<g opacity="0.6">
<g opacity="0.2">
<path opacity="0.2" fill-rule="evenodd" clip-rule="evenodd" d="M23.7441 2.67671C23.9046 2.63515 24.5603 2.7064 24.9906 2.89939C25.4209 3.09237 26.1629 3.43358 25.5693 3.58203C24.9757 3.73048 24.6343 3.49296 24.3376 3.24082C24.041 2.98869 23.3435 2.78063 23.7441 2.67671Z" fill="url(#paint8_linear)"/>
</g>
</g>
</g>
<path fill-rule="evenodd" clip-rule="evenodd" d="M8.86562 12.3314C8.86562 12.3314 12.6248 6.1365 16.0234 4.46473C16.3391 4.306 11.318 5.79941 9.29726 8.02959C8.09619 9.35513 8.73201 11.9505 8.86562 12.3314Z" fill="url(#paint9_linear)"/>
<path opacity="0.1" fill-rule="evenodd" clip-rule="evenodd" d="M8.86523 12.3314C8.86866 12.3292 8.87254 12.3271 8.8762 12.3248C9.8482 11.7242 11.514 11.3784 12.051 10.2897C14.1183 6.09767 16.023 4.46472 16.023 4.46472C12.6245 6.13627 8.86523 12.3314 8.86523 12.3314Z" fill="#F2F2F2"/>
<path fill-rule="evenodd" clip-rule="evenodd" d="M9.22311 11.1985C9.22311 11.1985 8.54572 10.1591 9.52116 9.21108C10.0359 8.7116 10.8163 8.98909 10.9065 9.07884C11.2905 9.45956 11.0491 10.2632 10.7035 10.718C10.5082 10.974 9.93979 11.3727 9.22311 11.1985Z" fill="#2F4282"/>
<path fill-rule="evenodd" clip-rule="evenodd" d="M9.61129 11.1338C9.61129 11.1338 9.1431 10.4151 9.81775 9.76032C10.1729 9.41523 10.7123 9.60707 10.7749 9.66874C11.0401 9.93184 10.8731 10.4873 10.6345 10.8013C10.4997 10.979 10.1067 11.2544 9.61129 11.1338Z" fill="url(#paint10_linear)"/>
<path fill-rule="evenodd" clip-rule="evenodd" d="M10.5456 10.3672C10.5351 10.6543 10.2921 10.8786 10.0028 10.8688C9.71295 10.8587 9.48594 10.6182 9.49644 10.3309C9.50672 10.0438 9.74972 9.81956 10.0398 9.82961C10.3289 9.83943 10.5555 10.0801 10.5456 10.3672Z" fill="black"/>
<path d="M9.68961 10.5015C9.85258 10.5015 9.98469 10.3694 9.98469 10.2064C9.98469 10.0434 9.85258 9.91132 9.68961 9.91132C9.52664 9.91132 9.39453 10.0434 9.39453 10.2064C9.39453 10.3694 9.52664 10.5015 9.68961 10.5015Z" fill="white"/>
<path fill-rule="evenodd" clip-rule="evenodd" d="M33.1814 9.44009C30.6082 5.52283 28.5694 4.52753 28.5694 4.52753C28.5694 4.52753 28.663 7.38097 30.0918 8.75722C30.2551 8.91435 28.3821 7.53284 28.3821 7.53284C28.3821 7.53284 27.9815 8.85085 28.8994 10.366C28.6329 10.0117 28.4564 9.87767 28.4564 9.87767C28.4564 9.87767 26.7273 10.675 26.2168 11.7813C25.9533 11.2838 25.7555 10.9906 25.7555 10.9906C25.7555 10.9906 24.5594 13.3774 24.7099 16.1448C24.9545 20.6444 23.8672 22.3023 23.8672 22.3023C23.8672 22.3023 26.7798 21.1848 28.1764 17.5875C28.7533 19.117 28.1588 20.7269 28.1588 20.7269C28.1588 20.7269 30.512 18.9685 31.0181 15.7636C31.5791 16.6682 31.4142 18.4739 31.4142 18.4739C31.4142 18.4739 32.9163 16.3825 32.9528 14.1051C33.6489 14.5904 33.7131 16.4864 33.7131 16.4864C33.7131 16.4864 35.9401 13.6392 33.1814 9.44009Z" fill="url(#paint11_linear)"/>
<path fill-rule="evenodd" clip-rule="evenodd" d="M30.6808 6.70268C30.0082 5.44954 28.8217 4.65087 27.7787 4.00454C25.1781 2.39192 23.5056 2.16559 23.5056 2.16559C23.5056 2.16559 21.1057 2.61185 21.5177 3.27965C21.539 3.31391 21.5883 3.3573 21.6584 3.40709C19.5532 2.43737 18.359 4.66709 18.359 4.66709C17.156 4.59401 15.6912 5.18621 15.2641 6.77257C15.2198 6.93723 15.8029 6.84451 16.103 6.90983C17.857 7.29123 19.5082 8.11799 20.2669 8.52657C22.0318 9.47733 23.0788 11.0605 23.6835 12.2481C24.4148 13.6849 24.7135 16.2129 24.7135 16.2129C24.7135 16.2129 26.6379 13.5693 26.1782 12.212C26.9403 12.6855 27.0908 14.3744 27.0908 14.3744C27.0908 14.3744 28.3736 12.365 27.9945 10.6147C28.9841 11.2179 29.0172 12.4445 29.0172 12.4445C29.0172 12.4445 30.0249 11.0461 29.5695 8.75221C30.5652 9.54402 30.7737 10.5697 30.7737 10.5697C30.7737 10.5697 31.5875 8.39228 30.6808 6.70268Z" fill="url(#paint12_linear)"/>
<defs>
<linearGradient id="paint0_linear" x1="28.9748" y1="29.3189" x2="8.19927" y2="4.09908" gradientUnits="userSpaceOnUse">
<stop stop-color="#130036"/>
<stop offset="0.2297" stop-color="#18023B"/>
<stop offset="0.5122" stop-color="#26094A"/>
<stop offset="0.8211" stop-color="#3D1563"/>
<stop offset="1" stop-color="#4E1D75"/>
</linearGradient>
<linearGradient id="paint1_linear" x1="1.48639" y1="13.8402" x2="8.37818" y2="13.8402" gradientUnits="userSpaceOnUse">
<stop stop-color="#3156A8"/>
<stop offset="0.2474" stop-color="#3351A4"/>
<stop offset="0.5365" stop-color="#3B4397"/>
<stop offset="0.8453" stop-color="#472C82"/>
<stop offset="1" stop-color="#4E1D75"/>
</linearGradient>
<radialGradient id="paint2_radial" cx="0" cy="0" r="1" gradientUnits="userSpaceOnUse" gradientTransform="translate(8.578 9.36353) scale(12.3786)">
<stop offset="0.1654" stop-color="#14CDDA"/>
<stop offset="0.5478" stop-color="#2061BD"/>
<stop offset="0.6546" stop-color="#2658AC"/>
<stop offset="0.864" stop-color="#373F81"/>
<stop offset="1" stop-color="#432D62"/>
</radialGradient>
<linearGradient id="paint3_linear" x1="6.46705" y1="8.40727" x2="27.8094" y2="8.40727" gradientUnits="userSpaceOnUse">
<stop stop-color="#2061BD"/>
<stop offset="0.1846" stop-color="#2B51AC"/>
<stop offset="0.6826" stop-color="#442C84"/>
<stop offset="0.9409" stop-color="#4E1D75"/>
</linearGradient>
<linearGradient id="paint4_linear" x1="9.60982" y1="3.36979" x2="18.6751" y2="19.3209" gradientUnits="userSpaceOnUse">
<stop offset="0.0202" stop-color="#48A8E0"/>
<stop offset="0.3883" stop-color="#2061BD"/>
<stop offset="0.4968" stop-color="#2B51AC"/>
<stop offset="0.7892" stop-color="#442C84"/>
<stop offset="0.9409" stop-color="#4E1D75"/>
</linearGradient>
<linearGradient id="paint5_linear" x1="2.85799" y1="48.9959" x2="42.8988" y2="25.7007" gradientUnits="userSpaceOnUse">
<stop offset="0.3787" stop-color="#3156A8"/>
<stop offset="1" stop-color="#4E1D75"/>
</linearGradient>
<linearGradient id="paint6_linear" x1="14.0492" y1="40.462" x2="37.7537" y2="10.9949" gradientUnits="userSpaceOnUse">
<stop stop-color="#29ABE2"/>
<stop offset="0.7733" stop-color="#385AA6"/>
<stop offset="0.8575" stop-color="#414293"/>
<stop offset="1" stop-color="#4E1D75"/>
</linearGradient>
<linearGradient id="paint7_linear" x1="7.00851" y1="13.3643" x2="7.93109" y2="13.7193" gradientUnits="userSpaceOnUse">
<stop stop-color="#B0DCD6"/>
<stop offset="1" stop-color="#53ACE0"/>
</linearGradient>
<linearGradient id="paint8_linear" x1="25.5884" y1="3.35221" x2="24.5953" y2="2.28868" gradientUnits="userSpaceOnUse">
<stop stop-color="#3092B9"/>
<stop offset="0.2199" stop-color="#258DB6"/>
<stop offset="0.6564" stop-color="#1685B1"/>
<stop offset="1" stop-color="#1082AF"/>
</linearGradient>
<linearGradient id="paint9_linear" x1="11.731" y1="5.52165" x2="13.3151" y2="11.2176" gradientUnits="userSpaceOnUse">
<stop offset="0.0074" stop-color="#1398D1" stop-opacity="0"/>
<stop offset="0.2482" stop-color="#1187C2" stop-opacity="0.6197"/>
<stop offset="0.6422" stop-color="#3F6499" stop-opacity="0.71"/>
<stop offset="1" stop-color="#2F4282" stop-opacity="0.5"/>
</linearGradient>
<linearGradient id="paint10_linear" x1="10.5714" y1="10.6273" x2="9.7502" y2="10.22" gradientUnits="userSpaceOnUse">
<stop stop-color="#F9C21B"/>
<stop offset="0.1479" stop-color="#F3BA1B"/>
<stop offset="0.3787" stop-color="#E3A41B"/>
<stop offset="0.6634" stop-color="#C9801C"/>
<stop offset="0.9884" stop-color="#A44E1C"/>
<stop offset="1" stop-color="#A34C1C"/>
</linearGradient>
<linearGradient id="paint11_linear" x1="29.9441" y1="18.8975" x2="20.857" y2="11.5081" gradientUnits="userSpaceOnUse">
<stop stop-color="#409EC3"/>
<stop offset="0.62" stop-color="#2061BD"/>
</linearGradient>
<linearGradient id="paint12_linear" x1="25.668" y1="14.9655" x2="22.6111" y2="2.99136" gradientUnits="userSpaceOnUse">
<stop stop-color="#14B2DA"/>
<stop offset="0.4028" stop-color="#297CCC"/>
<stop offset="0.5077" stop-color="#256FC5"/>
<stop offset="0.6492" stop-color="#2164BF"/>
<stop offset="0.8162" stop-color="#2061BD"/>
<stop offset="0.9835" stop-color="#2061BD"/>
</linearGradient>
</defs>
</svg>
