<svg width="36" height="36" viewBox="0 0 36 36" fill="none" xmlns="http://www.w3.org/2000/svg">
<path d="M32.1672 2.25H12.8275C11.961 2.25 11.248 2.96301 11.248 3.82952V5.62489L22.1485 9.0001L33.7466 5.62489V3.82952C33.7466 2.96301 33.0336 2.25 32.1672 2.25Z" fill="#0364B8"/>
<path d="M35.6033 19.5809C35.7681 19.0629 35.8997 18.535 35.9971 18.0002C35.9972 17.7327 35.8542 17.4847 35.6225 17.351L35.6079 17.3432L35.6033 17.3411L23.4113 10.3952C23.3588 10.3612 23.3043 10.3299 23.2483 10.3018C22.7762 10.0678 22.2208 10.0678 21.7487 10.3018C21.6928 10.3299 21.6383 10.361 21.5856 10.3952L9.39371 17.3411L9.38913 17.3432L9.3744 17.351C9.14286 17.4847 8.99984 17.7327 9 18.0002C9.09736 18.535 9.22893 19.0629 9.39371 19.5809L22.3213 29.0364L35.6033 19.5809Z" fill="#0A2767"/>
<path d="M26.9977 5.625H19.1232L16.8496 9.00021L19.1232 12.3751L26.9977 19.125H33.7472V12.3751L26.9977 5.625Z" fill="#28A8EA"/>
<path fill-rule="evenodd" clip-rule="evenodd" d="M11.25 5.625H19.1245V12.3749H11.25V5.625Z" fill="#0078D4"/>
<path fill-rule="evenodd" clip-rule="evenodd" d="M26.998 5.625H33.7476V12.3749H26.998V5.625Z" fill="#50D9FF"/>
<path d="M26.999 19.1251L19.1245 12.3752H11.25V19.1251L19.1245 25.8752L31.3097 27.8642L26.999 19.1251Z" fill="#0364B8"/>
<path fill-rule="evenodd" clip-rule="evenodd" d="M19.123 12.3752H26.9976V19.1251H19.123V12.3752Z" fill="#0078D4"/>
<path fill-rule="evenodd" clip-rule="evenodd" d="M11.25 19.125H19.1245V25.8749H11.25V19.125Z" fill="#064A8C"/>
<path fill-rule="evenodd" clip-rule="evenodd" d="M26.998 19.125H33.7476V25.8749H26.998V19.125Z" fill="#0078D4"/>
<path d="M22.7128 28.3704L9.44531 18.6955L10.001 17.7179C10.001 17.7179 22.0883 24.6028 22.2728 24.7064C22.4256 24.7678 22.5974 24.7628 22.7465 24.6928C22.9185 24.5961 35.0441 17.6841 35.0441 17.6841L35.6021 18.6618L22.7128 28.3704Z" fill="#0A2767" fill-opacity="0.498039"/>
<path d="M35.6238 18.6492L35.6092 18.6582L35.6058 18.6605L23.4139 25.6063C22.922 25.9235 22.2989 25.9623 21.7715 25.7086L26.018 31.4022L35.3032 33.4239V33.4285C35.741 33.1118 36.0008 32.603 36.0006 32.0627V18.0002C36.0008 18.2676 35.8576 18.5157 35.6261 18.6492H35.6238Z" fill="#1490DF"/>
<path d="M35.9976 32.0629V31.2328L24.7674 24.8337L23.4118 25.6054C22.9201 25.9226 22.2969 25.9615 21.7695 25.7077L26.0161 31.4015L35.3013 33.423V33.4276C35.739 33.1108 35.9987 32.6022 35.9987 32.0618L35.9976 32.0629Z" fill="black" fill-opacity="0.047059"/>
<path d="M35.9414 32.4937L23.6312 25.4804L23.4118 25.6053C22.9201 25.9224 22.2969 25.9614 21.7695 25.7075L26.0161 31.4013L35.3013 33.4228V33.4274C35.6163 33.199 35.8429 32.8686 35.9424 32.4925L35.9414 32.4937Z" fill="black" fill-opacity="0.098039"/>
<path d="M9.39373 18.6639V18.6526H9.38261L9.34873 18.6302C9.13044 18.4959 8.9979 18.2565 9.00003 18.0002V32.065C9.00003 32.9894 9.76077 33.7502 10.6853 33.7502H34.3111C34.4515 33.7487 34.5914 33.7299 34.7273 33.6939C34.7978 33.6816 34.866 33.6589 34.9298 33.6265C34.9537 33.624 34.9766 33.6163 34.9973 33.6039C35.0892 33.5663 35.1763 33.5172 35.256 33.4576L35.301 33.4239L9.39373 18.6639Z" fill="#28A8EA"/>
<path d="M20.2493 27.7507V9.37612C20.2469 8.55429 19.5716 7.87892 18.7498 7.87646H11.2849V16.2643L9.39371 17.3421L9.38929 17.3444L9.37473 17.3523C9.14302 17.4861 9 17.7341 9 18.0013V29.2548V29.2502H18.7498C19.5716 29.2479 20.2469 28.5724 20.2493 27.7507Z" fill="black" fill-opacity="0.098039"/>
<path d="M19.1245 28.8755V10.5009C19.1221 9.67927 18.4466 9.0039 17.6249 9.00128H11.2849V16.2643L9.39371 17.342L9.38929 17.3443L9.37473 17.3522C9.14302 17.486 9 17.734 9 18.0012V30.3798V30.3752H17.6249C18.4466 30.3727 19.1221 29.6974 19.1245 28.8755ZM19.1245 26.6255V10.5009C19.1221 9.67927 18.4466 9.0039 17.6249 9.00128H11.2849V16.2643L9.39371 17.342L9.38929 17.3443L9.37473 17.3522C9.14302 17.486 9 17.734 9 18.0012V28.1296V28.1252H17.6249C18.4466 28.1228 19.1221 27.4474 19.1245 26.6255ZM17.9995 26.6255V10.5009C17.9971 9.67927 17.3217 9.0039 16.5001 9.00128H11.2849V16.2643L9.39371 17.342L9.38929 17.3443L9.37473 17.3522C9.14302 17.486 9 17.734 9 18.0012V28.1296V28.1252H16.5001C17.3217 28.1228 17.9971 27.4474 17.9995 26.6255Z" fill="black" fill-opacity="0.2"/>
<path d="M1.49956 9.00037H16.4981C17.3207 9.00037 17.9977 9.67721 17.9977 10.4999V25.4996C17.9977 26.3222 17.3207 26.9992 16.4981 26.9992H1.49956C0.676964 26.9992 0 26.3222 0 25.4996V10.4999C0 9.67721 0.676964 9.00037 1.49956 9.00037Z" fill="#0078D4"/>
<path d="M4.35008 15.1517C4.74854 14.3026 5.39195 13.5919 6.19721 13.1111C7.08952 12.6002 8.10554 12.3457 9.13334 12.3753C10.0852 12.3544 11.0248 12.5957 11.8489 13.0728C12.6244 13.5346 13.249 14.2121 13.6464 15.0225C14.0794 15.9153 14.2954 16.8978 14.2764 17.89C14.2975 18.9271 14.0752 19.9548 13.6274 20.8905C13.2211 21.7295 12.5777 22.4314 11.7769 22.9088C10.9207 23.4008 9.94612 23.6488 8.9589 23.6254C7.98641 23.6484 7.02603 23.4044 6.18265 22.9199C5.40112 22.4573 4.76899 21.7791 4.36252 20.9669C3.92676 20.0868 3.7083 19.1149 3.72581 18.1331C3.7065 17.1049 3.92037 16.0857 4.35123 15.1517H4.35008ZM6.31863 19.942C6.53119 20.4789 6.89168 20.9448 7.35821 21.2852C7.83292 21.6177 8.40205 21.7892 8.98132 21.7747C9.59856 21.7991 10.2071 21.6222 10.7149 21.2707C11.1757 20.9303 11.5267 20.4619 11.724 19.924C11.9459 19.3244 12.0552 18.689 12.0469 18.0498C12.0538 17.405 11.951 16.7635 11.7432 16.1531C11.5599 15.6036 11.2215 15.1185 10.7689 14.757C10.2745 14.3878 9.66761 14.2003 9.05119 14.226C8.45932 14.2106 7.87743 14.3831 7.38963 14.7187C6.91443 15.0603 6.54592 15.5301 6.32763 16.0732C5.8449 17.3168 5.84212 18.6967 6.31977 19.942H6.31863Z" fill="white"/>
</svg>
