<svg width="16" height="16" viewBox="0 0 16 16" fill="none" xmlns="http://www.w3.org/2000/svg">
<path fill-rule="evenodd" clip-rule="evenodd" d="M1 13L2 14L6.60951 9.39049L9.42104 6.57896L10.7224 5.27756L12.8435 3.15654L15 1L14 0L11.4338 2.56619C10.3363 2.19528 9.1768 2 8 2C4.99776 2 2.10791 3.271 0.0743047 5.48656C-0.0273754 5.59626 -0.0246996 5.76752 0.0823321 5.87455L1.67175 7.4637C1.78146 7.57341 1.95806 7.57341 2.06777 7.4637C2.0865 7.44524 2.09988 7.42383 2.11058 7.39975C3.61705 5.74584 5.76036 4.7962 8 4.7962C8.37819 4.7962 8.75363 4.82329 9.12372 4.87628L7.56734 6.43266C5.90389 6.54608 4.35089 7.31026 3.24238 8.56633L3.2354 8.57044C3.22366 8.5773 3.21069 8.58487 3.19957 8.59577C3.08986 8.70547 3.08986 8.88208 3.19957 8.99152L4.10403 9.89597L1 13ZM7.99994 9.11969C7.9593 9.11969 7.91877 9.12034 7.87836 9.12164L10.1916 6.80845C11.1689 7.16857 12.052 7.76806 12.7548 8.56633C12.7709 8.57436 12.7869 8.58265 12.8003 8.59577C12.91 8.70547 12.91 8.88208 12.8003 8.99152L11.2724 10.5194C11.2457 10.5462 11.2162 10.5676 11.1815 10.5809C11.1467 10.5943 11.1119 10.6023 11.0744 10.6023H11.0584C11.0519 10.6023 11.0455 10.5995 11.0391 10.5966C11.0366 10.5954 11.0341 10.5943 11.0317 10.5934C11.0299 10.5927 11.0281 10.5921 11.0263 10.5916C11.0022 10.5892 10.9781 10.5836 10.9567 10.5729C10.9436 10.5685 10.9341 10.5606 10.9238 10.5521L10.9238 10.5521L10.9166 10.5462L10.9095 10.5421L10.9045 10.5395C10.8944 10.5342 10.884 10.5288 10.8764 10.5191C10.8734 10.5176 10.872 10.5153 10.8705 10.5125C10.8693 10.5105 10.868 10.5082 10.8657 10.5057C10.8644 10.5033 10.8625 10.502 10.8606 10.5007C10.8585 10.4994 10.8564 10.498 10.855 10.495C10.1647 9.62006 9.12377 9.11969 7.99994 9.11969ZM13.8894 7.39975C13.1883 6.63018 12.3493 6.01303 11.4269 5.5731L13.4895 3.51054C14.3862 4.0424 15.2091 4.70584 15.9257 5.48656C16.0274 5.59653 16.0247 5.76752 15.9177 5.87455L14.3282 7.4637C14.2747 7.51989 14.2025 7.54692 14.1302 7.54692C14.058 7.54692 13.9857 7.51989 13.9322 7.4637C13.9135 7.44524 13.9001 7.42383 13.8894 7.39975ZM7.99998 10.2626C7.17317 10.2626 6.50154 10.9371 6.50154 11.7637C6.50154 12.5903 7.17317 13.2621 7.99998 13.2621C8.8268 13.2621 9.49843 12.5905 9.49843 11.7637C9.49843 10.9369 8.8268 10.2626 7.99998 10.2626Z" fill="#D42F34"/>
</svg>
