<svg width="16" height="16" viewBox="0 0 16 16" fill="none" xmlns="http://www.w3.org/2000/svg">
<g id="ic-question-circle">
<g id="icon">
<path d="M8.69 3.92C7.89347 3.70879 7.04403 3.87868 6.39 4.38C5.7528 4.88127 5.38356 5.64929 5.39 6.46H6.39C6.3828 5.95878 6.60804 5.48247 7 5.17C7.40675 4.8584 7.93577 4.75482 8.43 4.89C8.97906 5.03325 9.41216 5.45496 9.57 6C9.71599 6.49287 9.6194 7.02578 9.30972 7.43606C9.00003 7.84634 8.51401 8.0853 8 8.08H7.5V10H8.5V9C9.70091 8.76754 10.583 7.73782 10.6284 6.51546C10.6738 5.29309 9.87038 4.20082 8.69 3.88V3.92Z" fill="#17181C"/>
<path d="M8.5 11V12H7.5V11H8.5Z" fill="#17181C"/>
<path fill-rule="evenodd" clip-rule="evenodd" d="M8 1C4.13401 1 1 4.13401 1 8C1 11.866 4.13401 15 8 15C11.866 15 15 11.866 15 8C15 6.14348 14.2625 4.36301 12.9497 3.05025C11.637 1.7375 9.85652 1 8 1ZM8 14C4.68629 14 2 11.3137 2 8C2 4.68629 4.68629 2 8 2C11.3137 2 14 4.68629 14 8C14 9.5913 13.3679 11.1174 12.2426 12.2426C11.1174 13.3679 9.5913 14 8 14Z" fill="#17181C"/>
</g>
</g>
</svg>
