<svg width="18" height="22" viewBox="0 0 18 22" fill="none" xmlns="http://www.w3.org/2000/svg">
<g filter="url(#filter0_d)">
<path fill-rule="evenodd" clip-rule="evenodd" d="M4 6.44639C4.85487 1.86475 9 2.00042 9 2.00042C9 2.00042 13.1449 1.86558 14 6.44639V9.56692C14 9.56692 13.9645 9.90088 13.0219 10.5793C12.8583 10.697 12.6497 10.8518 12.4131 11.0272C11.2866 11.863 9.528 13.1675 9 13.1675C8.47195 13.1675 6.71341 11.863 5.58685 11.0273C5.35031 10.8518 5.14162 10.697 4.97804 10.5793C4.0354 9.90088 4 9.56692 4 9.56692V6.44639ZM6.16158 8.14758H11.8384V6.44639C11.2623 4.17122 9 4.13992 9 4.13992C9 4.13992 6.73765 4.17122 6.16158 6.44639V8.14758Z" fill="white"/>
<path d="M7.8546 13.4606C8.35732 13.8084 8.99982 13.871 8.99982 13.871C8.99982 13.871 9.6427 13.8077 10.1454 13.4597C10.6482 13.1118 13.9998 10.7254 13.9998 10.7254V15.4504C13.9998 15.4504 13.9713 16 13.3638 16H4.636C4.02852 16 4.00024 15.4504 4.00024 15.4504V10.7262C4.00024 10.7262 7.35186 13.1129 7.8546 13.4606Z" fill="white"/>
</g>
<defs>
<filter id="filter0_d" x="0" y="0" width="18" height="22" filterUnits="userSpaceOnUse" color-interpolation-filters="sRGB">
<feFlood flood-opacity="0" result="BackgroundImageFix"/>
<feColorMatrix in="SourceAlpha" type="matrix" values="0 0 0 0 0 0 0 0 0 0 0 0 0 0 0 0 0 0 127 0"/>
<feOffset dy="2"/>
<feGaussianBlur stdDeviation="2"/>
<feColorMatrix type="matrix" values="0 0 0 0 0 0 0 0 0 0 0 0 0 0 0 0 0 0 0.15 0"/>
<feBlend mode="normal" in2="BackgroundImageFix" result="effect1_dropShadow"/>
<feBlend mode="normal" in="SourceGraphic" in2="effect1_dropShadow" result="shape"/>
</filter>
</defs>
</svg>
