<?xml version="1.0" encoding="UTF-8" standalone="no"?>
<svg
   width="264"
   height="148"
   fill="none"
   viewBox="0 0 264 148"
   version="1.1"
   id="svg90"
   sodipodi:docname="img-welcome-dark.svg"
   inkscape:version="1.1.1 (3bf5ae0d25, 2021-09-20, custom)"
   inkscape:export-filename="/home/dev/gopath/src/github.com/ProtonMail/proton-bridge/internal/frontend/qml/icons/img-welcome-dark.png"
   inkscape:export-xdpi="400"
   inkscape:export-ydpi="400"
   xmlns:inkscape="http://www.inkscape.org/namespaces/inkscape"
   xmlns:sodipodi="http://sodipodi.sourceforge.net/DTD/sodipodi-0.dtd"
   xmlns="http://www.w3.org/2000/svg"
   xmlns:svg="http://www.w3.org/2000/svg">
  <sodipodi:namedview
     id="namedview92"
     pagecolor="#505050"
     bordercolor="#ffffff"
     borderopacity="1"
     inkscape:pageshadow="0"
     inkscape:pageopacity="0"
     inkscape:pagecheckerboard="1"
     showgrid="false"
     inkscape:snap-page="true"
     inkscape:zoom="4.3513514"
     inkscape:cx="132.02795"
     inkscape:cy="37.459627"
     inkscape:window-width="1276"
     inkscape:window-height="1401"
     inkscape:window-x="1280"
     inkscape:window-y="18"
     inkscape:window-maximized="1"
     inkscape:current-layer="svg90" />
  <rect
     style="fill:#1c1b24;stroke-width:1.88976;stroke-linecap:round;stroke-linejoin:round;fill-opacity:1"
     id="rect931"
     width="264"
     height="148"
     x="0"
     y="0"
     inkscape:export-filename="/home/dev/gopath/src/github.com/ProtonMail/proton-bridge/internal/frontend/qml/icons/img-welcome-dark.png"
     inkscape:export-xdpi="400"
     inkscape:export-ydpi="400" />
  <path
     fill="#B0D4E5"
     d="M220.171 147.001H43.856a3.018 3.018 0 01-3.051-3.051v-1.712c0-1.711 1.34-3.05 3.05-3.05h176.316a3.017 3.017 0 013.05 3.05v1.712c0 1.711-1.413 3.051-3.05 3.051z"
     id="path2" />
  <path
     fill="#DAF3FF"
     d="M140.83 143.503h-18.454a4.24 4.24 0 01-4.241-4.241h26.936a4.24 4.24 0 01-4.241 4.241z"
     id="path4" />
  <path
     fill="url(#paint0_radial_6541_18774)"
     d="M205.034 139.187H57.501V53.929c0-4.91 4.018-8.929 8.93-8.929h129.673c4.912 0 8.93 4.018 8.93 8.93v85.257z"
     id="path6" />
  <path
     fill="url(#paint1_linear_6541_18774)"
     d="M198.115 139.187H65.167V55.343a2.16 2.16 0 012.158-2.158h128.558a2.16 2.16 0 012.158 2.158v83.844h.074z"
     id="path8" />
  <path
     fill="url(#paint2_radial_6541_18774)"
     d="M189.805 131.286H75.18V62.519c0-.996.848-1.804 1.892-1.804h110.775c1.044 0 1.892.808 1.892 1.803v68.768h.066z"
     id="path10" />
  <path
     fill="#B0D4E5"
     d="M83.156 70.774a2.083 2.083 0 100-4.167 2.083 2.083 0 000 4.167zM89.63 70.774a2.084 2.084 0 100-4.167 2.084 2.084 0 000 4.167zM96.105 70.774a2.083 2.083 0 100-4.167 2.083 2.083 0 000 4.167z"
     id="path12" />
  <path
     fill="url(#paint3_linear_6541_18774)"
     d="M0 69c0-13.255 10.745-24 24-24s24 10.745 24 24v24H24C10.745 93 0 82.255 0 69z"
     id="path14" />
  <g
     id="g20">
    <path
       fill="url(#paint4_linear_6541_18774)"
       d="M241.633 76.354h-61.709c-2.177 0-3.924-1.792-3.924-3.965V33.965c0-2.173 1.774-3.965 3.924-3.965h61.682c2.177 0 3.924 1.792 3.924 3.965v38.424a3.91 3.91 0 01-3.897 3.965z"
       id="path16" />
    <path
       fill="url(#paint5_linear_6541_18774)"
       d="M208.232 56.69a3.984 3.984 0 005.048 0l31.151-25.648A3.97 3.97 0 00241.758 30H179.78a3.97 3.97 0 00-2.673 1.042l31.125 25.648z"
       id="path18" />
  </g>
  <path
     fill="url(#paint6_linear_6541_18774)"
     d="M159 81h-56v8c5.523 0 10 4.477 10 10v12h8V99c0-5.523 4.477-10 10-10s10 4.477 10 10v12h8V99c0-5.523 4.477-10 10-10v-8z"
     id="path22" />
  <g
     id="g28">
    <path
       fill="#fff"
       d="M24 56s-7.45-.265-9 8.238v5.802s.043.62 1.766 1.904c1.722 1.284 6.072 4.827 7.234 4.827 1.163 0 5.555-3.587 7.235-4.827C32.913 70.704 33 70.04 33 70.04v-5.802c-1.507-8.503-9-8.237-9-8.237zM18.92 67.428v-3.145c.603-2.435 2.67-4.162 5.124-4.295 2.455.088 4.522 1.86 5.125 4.295v3.145H18.919z"
       id="path24" />
    <path
       fill="#fff"
       d="M24 78.055c-.732-.088-1.421-.354-2.067-.752L15 72.21v8.768c.043.62.56 1.063 1.12 1.019h15.717c.603.044 1.12-.399 1.162-.974V72.21l-6.932 5.093a4.67 4.67 0 01-2.067.752z"
       id="path26" />
  </g>
  <g
     id="g34">
    <circle
       cx="238.278"
       cy="30.278"
       r="15.278"
       fill="url(#paint7_linear_6541_18774)"
       id="circle30" />
    <path
       fill="#fff"
       fill-rule="evenodd"
       d="M244.702 26.668a1.05 1.05 0 01.005 1.485l-7.579 7.64a1.052 1.052 0 01-1.492 0l-3.878-3.91a1.05 1.05 0 111.491-1.48l3.133 3.158 6.834-6.887a1.051 1.051 0 011.486-.006z"
       clip-rule="evenodd"
       id="path32" />
  </g>
  <defs
     id="defs88">
    <linearGradient
       id="paint1_linear_6541_18774"
       x1="62.708"
       x2="206.623"
       y1="144.988"
       y2="58.752"
       gradientUnits="userSpaceOnUse">
      <stop
         stop-color="#35168C"
         id="stop36" />
      <stop
         offset=".318"
         stop-color="#FF5454"
         id="stop38" />
      <stop
         offset=".469"
         stop-color="#FFDD64"
         id="stop40" />
      <stop
         offset=".677"
         stop-color="#BCE6FF"
         id="stop42" />
      <stop
         offset=".911"
         stop-color="#6983EF"
         id="stop44" />
      <stop
         offset="1"
         stop-color="#2395FF"
         id="stop46" />
    </linearGradient>
    <linearGradient
       id="paint3_linear_6541_18774"
       x1="33.965"
       x2="4.721"
       y1="89.503"
       y2="47.95"
       gradientUnits="userSpaceOnUse">
      <stop
         stop-color="#4F6DE6"
         id="stop49" />
      <stop
         offset=".483"
         stop-color="#63A1FE"
         id="stop51" />
      <stop
         offset="1"
         stop-color="#82D2FF"
         id="stop53" />
    </linearGradient>
    <linearGradient
       id="paint4_linear_6541_18774"
       x1="210.765"
       x2="210.765"
       y1="30"
       y2="66.421"
       gradientUnits="userSpaceOnUse">
      <stop
         stop-color="#C1DEF8"
         id="stop56" />
      <stop
         offset="1"
         stop-color="#ECFAFF"
         id="stop58" />
    </linearGradient>
    <linearGradient
       id="paint5_linear_6541_18774"
       x1="210.769"
       x2="210.769"
       y1="18.412"
       y2="50.418"
       gradientUnits="userSpaceOnUse">
      <stop
         stop-color="#DEEBF7"
         id="stop61" />
      <stop
         offset="1"
         stop-color="#fff"
         id="stop63" />
    </linearGradient>
    <linearGradient
       id="paint6_linear_6541_18774"
       x1="142.626"
       x2="129.807"
       y1="108.815"
       y2="74.814"
       gradientUnits="userSpaceOnUse">
      <stop
         stop-color="#4F6DE6"
         id="stop66" />
      <stop
         offset=".483"
         stop-color="#63A1FE"
         id="stop68" />
      <stop
         offset="1"
         stop-color="#82D2FF"
         id="stop70" />
    </linearGradient>
    <linearGradient
       id="paint7_linear_6541_18774"
       x1="238.278"
       x2="238.278"
       y1="15"
       y2="45.556"
       gradientUnits="userSpaceOnUse">
      <stop
         stop-color="#5BCB6A"
         id="stop73" />
      <stop
         offset="1"
         stop-color="#1CB78F"
         id="stop75" />
    </linearGradient>
    <radialGradient
       id="paint0_radial_6541_18774"
       cx="0"
       cy="0"
       r="1"
       gradientTransform="matrix(-49.00025 33.4997 -52.4734 -76.75324 201 51.5)"
       gradientUnits="userSpaceOnUse">
      <stop
         stop-color="#292842"
         id="stop78" />
      <stop
         offset="1"
         stop-color="#38385F"
         id="stop80" />
    </radialGradient>
    <radialGradient
       id="paint2_radial_6541_18774"
       cx="0"
       cy="0"
       r="1"
       gradientTransform="rotate(135 80.599 70.583) scale(33.9411 55.1286)"
       gradientUnits="userSpaceOnUse">
      <stop
         stop-color="#DDDBE3"
         id="stop83" />
      <stop
         offset="1"
         stop-color="#fff"
         id="stop85" />
    </radialGradient>
  </defs>
</svg>
