<svg width="132" height="22" viewBox="0 0 132 22" fill="none" xmlns="http://www.w3.org/2000/svg">
<path fill-rule="evenodd" clip-rule="evenodd" d="M4 6.92568C5.23102 0.304543 11.2 0.500613 11.2 0.500613C11.2 0.500613 17.1687 0.305749 18.4 6.92568V11.4353C18.4 11.4353 18.349 11.9179 16.9916 12.8983C16.756 13.0684 16.4555 13.2922 16.1148 13.5458C14.4925 14.7535 11.9603 16.6387 11.2 16.6387C10.4397 16.6387 7.90748 14.7536 6.28522 13.5458C5.94459 13.2922 5.64394 13.0684 5.40839 12.8983C4.05098 11.9179 4 11.4353 4 11.4353V6.92568ZM7.11269 6.92568V9.3841H15.2873V6.92568C14.4578 3.63774 11.2 3.59249 11.2 3.59249C11.2 3.59249 7.94222 3.63774 7.11269 6.92568Z" fill="#A4A9B5"/>
<path d="M9.5509 17.0622C10.2749 17.5648 11.2 17.6552 11.2 17.6552C11.2 17.6552 12.1258 17.5639 12.8497 17.061C13.5737 16.5582 18.4 13.1094 18.4 13.1094V19.9378C18.4 19.9378 18.359 20.732 17.4842 20.732H4.9161C4.04133 20.732 4.00061 19.9378 4.00061 19.9378V13.1106C4.00061 13.1106 8.82695 16.5597 9.5509 17.0622Z" fill="#A4A9B5"/>
<path d="M120.326 2.93005C119.854 2.93005 119.445 3.08477 119.125 3.40492C118.807 3.72286 118.65 4.12335 118.65 4.58455C118.65 5.04576 118.807 5.44633 119.125 5.76427L119.131 5.77016C119.452 6.07341 119.859 6.21755 120.326 6.21755C120.805 6.21755 121.22 6.07541 121.543 5.77025L121.549 5.76419C121.867 5.44625 122.024 5.04576 122.024 4.58455C122.024 4.12335 121.867 3.72286 121.549 3.40492C121.227 3.08268 120.81 2.93005 120.326 2.93005Z" fill="#A4A9B5"/>
<path d="M127.533 17.7211V3.53705L124.955 3.84529V17.7641C124.955 18.6053 125.177 19.3033 125.659 19.8181L125.666 19.8252C126.163 20.3225 126.826 20.5581 127.62 20.5581C128.24 20.5581 128.813 20.418 129.333 20.1344L129.562 20.0097L128.847 18.1026L128.562 18.2165C128.388 18.2861 128.183 18.3241 127.942 18.3241C127.747 18.3241 127.663 18.2737 127.624 18.2288C127.579 18.1584 127.533 18.0063 127.533 17.7211Z" fill="#A4A9B5"/>
<path fill-rule="evenodd" clip-rule="evenodd" d="M25.85 4.88655H30.0415C31.9131 4.88655 33.406 5.28066 34.4807 6.10919C35.574 6.93755 36.1035 8.17511 36.1035 9.76605C36.1035 11.4552 35.5539 12.7592 34.4145 13.6177C33.3016 14.4562 31.8415 14.8606 30.063 14.8606H28.4925V20.3001H25.85V4.88655ZM28.4925 7.07755V12.6481H29.977C31.1353 12.6481 31.9638 12.4236 32.5069 12.0194L32.5095 12.0174C33.0283 11.6401 33.332 10.9334 33.332 9.78755C33.332 8.78605 33.0368 8.12514 32.506 7.72705L32.5033 7.72506C31.9597 7.30783 31.1461 7.07755 30.02 7.07755H28.4925Z" fill="#A4A9B5"/>
<path d="M94.5527 4.88655H91.299L90.0238 20.3001H92.5628L93.0783 13.487C93.2023 11.9223 93.2853 10.4798 93.327 9.15955L96.212 18.6231H98.5731L101.324 9.13446C101.385 10.3004 101.484 11.7024 101.618 13.3381L102.155 20.3001H104.737L103.461 4.88655H100.183L97.4375 14.8543L94.5527 4.88655Z" fill="#A4A9B5"/>
<path d="M61.0388 5.53655V8.36955H63.7715L63.472 10.4961H61.0388V16.9471C61.0388 17.5058 61.1353 17.8554 61.276 18.0518C61.4131 18.2113 61.6597 18.3241 62.0933 18.3241C62.4713 18.3241 62.9232 18.1953 63.4561 17.9084L63.7132 17.77L64.7482 19.5738L64.5216 19.7307C63.7238 20.283 62.818 20.5581 61.8138 20.5581C60.7947 20.5581 59.9582 20.2673 59.3442 19.6532L59.3386 19.6476C58.7388 19.0154 58.4608 18.1282 58.4608 17.0331V10.4961H56.4828V8.36955H58.4608V5.84479L61.0388 5.53655Z" fill="#A4A9B5"/>
<path d="M43.1362 8.11155C42.3799 8.11155 41.7094 8.34998 41.1381 8.82609C40.8204 9.09084 40.5448 9.42275 40.3088 9.81746L40.187 8.36955H37.9127V20.3001H40.4907V13.5619C40.7293 12.5091 41.0499 11.7707 41.4316 11.3126C41.8017 10.8685 42.2817 10.6466 42.8997 10.6466C43.1877 10.6466 43.4928 10.6858 43.8159 10.7666L44.1244 10.8437L44.6015 8.31815L44.3269 8.24951C43.9563 8.15684 43.5589 8.11155 43.1362 8.11155Z" fill="#A4A9B5"/>
<path fill-rule="evenodd" clip-rule="evenodd" d="M47.439 8.91263C48.255 8.37423 49.2244 8.11155 50.3331 8.11155C51.9975 8.11155 53.3212 8.67031 54.2618 9.81077C55.2078 10.9404 55.6641 12.4562 55.6641 14.3241C55.6641 15.5335 55.4576 16.6155 55.0363 17.5634L55.0355 17.565C54.6126 18.5015 53.9963 19.2423 53.186 19.7774L53.1826 19.7796C52.3673 20.3026 51.406 20.5581 50.3116 20.5581C48.6467 20.5581 47.3167 19.999 46.3622 18.8597C45.4157 17.73 44.9591 16.2138 44.9591 14.3456C44.9591 13.1366 45.1655 12.0614 45.5873 11.127C46.0098 10.1767 46.6263 9.43442 47.439 8.91263ZM48.3723 11.2567C47.9306 11.9079 47.6876 12.9224 47.6876 14.3456C47.6876 15.7616 47.9289 16.7709 48.3671 17.4186C48.7912 18.0453 49.4225 18.3671 50.3116 18.3671C51.2002 18.3671 51.8314 18.044 52.2558 17.4138C52.6943 16.7624 52.9356 15.7475 52.9356 14.3241C52.9356 12.9077 52.6961 11.8981 52.261 11.2502C51.8401 10.6235 51.2142 10.3026 50.3331 10.3026C49.4365 10.3026 48.7998 10.6263 48.3723 11.2567Z" fill="#A4A9B5"/>
<path fill-rule="evenodd" clip-rule="evenodd" d="M70.6573 8.11155C69.5486 8.11155 68.5793 8.37422 67.7633 8.91258C66.9506 9.43437 66.334 10.1767 65.9115 11.127C65.4897 12.0614 65.2834 13.1366 65.2834 14.3456C65.2834 16.2138 65.7399 17.73 66.6864 18.8597C67.641 19.999 68.9709 20.5581 70.6358 20.5581C71.7303 20.5581 72.6915 20.3026 73.5068 19.7796L73.5102 19.7774C74.3205 19.2423 74.9368 18.5015 75.3598 17.565L75.3605 17.5634C75.7818 16.6155 75.9884 15.5335 75.9884 14.3241C75.9884 12.4563 75.5321 10.9405 74.5862 9.81091C73.6456 8.67035 72.3218 8.11155 70.6573 8.11155ZM74.5862 9.81091L74.5868 9.81173L74.3554 10.0025L74.5853 9.80989L74.5862 9.81091ZM67.7633 8.91258L67.7649 8.91155L67.9269 9.16398L67.7615 8.91371L67.7633 8.91258ZM68.0119 14.3456C68.0119 12.9224 68.2549 11.9079 68.6965 11.2567C69.1241 10.6263 69.7607 10.3026 70.6573 10.3026C71.5384 10.3026 72.1643 10.6235 72.5852 11.2502C73.0203 11.8981 73.2599 12.9077 73.2599 14.3241C73.2599 15.7475 73.0186 16.7624 72.58 17.4138C72.1556 18.044 71.5244 18.3671 70.6358 18.3671C69.7467 18.3671 69.1154 18.0453 68.6913 17.4186C68.2531 16.7709 68.0119 15.7616 68.0119 14.3456Z" fill="#A4A9B5"/>
<path d="M81.7312 8.66708C82.3801 8.29628 83.091 8.11155 83.858 8.11155C84.9523 8.11155 85.8419 8.44053 86.4843 9.13029C87.1374 9.81592 87.4475 10.7428 87.4475 11.8731V20.3001H84.8695V12.1526C84.8695 11.3709 84.7197 10.9008 84.4965 10.6563C84.2688 10.407 83.9165 10.2596 83.385 10.2596C82.8445 10.2596 82.378 10.4125 81.974 10.7156C81.5694 11.019 81.1781 11.4587 80.804 12.0456V20.3001H78.226V8.36955H80.4953L80.6187 9.57267C80.9444 9.21294 81.3143 8.91109 81.7285 8.66865L81.7312 8.66708Z" fill="#A4A9B5"/>
<path fill-rule="evenodd" clip-rule="evenodd" d="M111.384 8.11155C110.137 8.11155 108.797 8.37863 107.367 8.90395L107.091 9.00521L107.778 11.0047L108.06 10.9107C109.248 10.5147 110.231 10.3241 111.018 10.3241C111.786 10.3241 112.294 10.4898 112.603 10.7643C112.898 11.0263 113.083 11.4962 113.083 12.2601V12.7986H111.642C110.015 12.7986 108.71 13.1276 107.765 13.8246L107.764 13.8261C106.818 14.5351 106.354 15.5541 106.354 16.8396C106.354 17.9266 106.701 18.832 107.411 19.5266C108.125 20.2245 109.089 20.5581 110.266 20.5581C111.646 20.5581 112.755 20.0943 113.56 19.1604C113.737 19.5105 113.969 19.7963 114.261 20.007C114.672 20.3029 115.198 20.4801 115.819 20.5558L116.064 20.5857L116.683 18.6994L116.41 18.6001C116.138 18.5013 115.957 18.3684 115.842 18.214C115.736 18.057 115.661 17.7858 115.661 17.3556V12.1741C115.661 10.9157 115.315 9.90435 114.583 9.18721C113.847 8.45207 112.761 8.11155 111.384 8.11155ZM109.061 16.7321C109.061 16.0328 109.292 15.5511 109.724 15.2317C110.172 14.8999 110.881 14.7101 111.9 14.7101H113.083V16.9335C112.484 17.9881 111.697 18.4746 110.717 18.4746C110.124 18.4746 109.727 18.3174 109.472 18.051C109.214 17.7824 109.061 17.3605 109.061 16.7321Z" fill="#A4A9B5"/>
<path d="M119.059 8.36955H121.637V20.3001H119.059V8.36955Z" fill="#A4A9B5"/>
</svg>
