<?xml version="1.0" encoding="UTF-8" standalone="no"?>
<svg
   width="200"
   height="25"
   viewBox="0 0 200 25"
   fill="none"
   version="1.1"
   id="svg40"
   sodipodi:docname="product_logos_dark.svg"
   inkscape:version="1.1.2 (0a00cf5339, 2022-02-04, custom)"
   xmlns:inkscape="http://www.inkscape.org/namespaces/inkscape"
   xmlns:sodipodi="http://sodipodi.sourceforge.net/DTD/sodipodi-0.dtd"
   xmlns="http://www.w3.org/2000/svg"
   xmlns:svg="http://www.w3.org/2000/svg">
  <sodipodi:namedview
     id="namedview42"
     pagecolor="#505050"
     bordercolor="#ffffff"
     borderopacity="1"
     inkscape:pageshadow="0"
     inkscape:pageopacity="0"
     inkscape:pagecheckerboard="1"
     showgrid="false"
     inkscape:zoom="6.36"
     inkscape:cx="112.5"
     inkscape:cy="22.877358"
     inkscape:window-width="2556"
     inkscape:window-height="690"
     inkscape:window-x="0"
     inkscape:window-y="18"
     inkscape:window-maximized="1"
     inkscape:current-layer="svg40" />
  <path
     d="m 29.2,1.42023 c 0,-0.564698 0.6795,-0.873645 1.128,-0.512874 L 42.1919,10.45 c 1.1472,0.9228 2.8105,0.9228 3.9577,0 L 58.0135,0.907358 C 58.462,0.546586 59.1416,0.855533 59.1416,1.42023 V 21 c 0,1.6569 -1.3868,3 -3.0975,3 H 32.2974 C 30.5867,24 29.2,22.6569 29.2,21 Z"
     fill="#6d4aff"
     id="path2" />
  <path
     fill-rule="evenodd"
     clip-rule="evenodd"
     d="m 48.2129,8.78808 0.0017,0.00131 -5.9748,5.11171 c -1.0178,0.8708 -2.5391,0.8928 -3.5832,0.0517 L 29.2,6.33549 V 1.41794 c 0,-0.564697 0.6795,-0.873644 1.128,-0.512872 L 42.1919,10.4477 c 1.1472,0.9228 2.8105,0.9228 3.9577,0 z"
     fill="url(#paint0_linear_499_22895)"
     id="path4" />
  <path
     fill-rule="evenodd"
     clip-rule="evenodd"
     d="M 52.7747,5.11897 V 23.9977 h 3.2694 c 1.7107,0 3.0975,-1.3432 3.0975,-3 V 1.41796 c 0,-0.564699 -0.6796,-0.873699 -1.1281,-0.512859 z"
     fill="url(#paint1_linear_499_22895)"
     id="path6" />
  <path
     d="M 133.107,19.2709 V 4.88245 h 3.856 l 3.615,8.62775 c 0.321,0.7221 0.598,1.4619 0.829,2.2154 h 0.036 c 0.233,-0.7531 0.51,-1.4928 0.829,-2.2154 l 3.615,-8.62775 h 3.856 V 19.2709 h -2.795 V 9.63023 c -0.003,-0.31749 0.012,-0.63491 0.046,-0.95074 h -0.046 c -0.086,0.34013 -0.202,0.67219 -0.349,0.99221 l -4.006,9.4304 h -2.309 l -4.018,-9.4304 c -0.144,-0.32293 -0.268,-0.65432 -0.37,-0.99221 h -0.043 c 0.031,0.316 0.046,0.63333 0.043,0.95074 v 9.64067 z"
     fill="#6d4aff"
     id="path8" />
  <path
     d="m 159.302,9.77835 c 0.81,0.41125 1.479,1.04085 1.927,1.81265 0.48,0.8381 0.722,1.7843 0.703,2.7426 v 4.9374 h -2.447 l -0.174,-1.4809 c -0.319,0.5368 -0.787,0.9761 -1.351,1.2676 -0.605,0.3044 -1.279,0.4562 -1.961,0.4413 -0.87,0.0085 -1.725,-0.2171 -2.47,-0.6516 -0.755,-0.4435 -1.369,-1.0786 -1.777,-1.8363 -0.446,-0.834 -0.67,-1.7623 -0.651,-2.7012 -0.013,-0.924 0.231,-1.8343 0.706,-2.636 0.464,-0.7792 1.138,-1.4213 1.951,-1.85704 0.841,-0.45278 1.79,-0.68552 2.752,-0.67529 0.971,-0.01631 1.931,0.20258 2.792,0.63678 z m -0.896,6.64335 c 0.532,-0.4917 0.795,-1.1847 0.795,-2.1088 0.034,-0.7552 -0.24,-1.4931 -0.761,-2.0555 -0.249,-0.2513 -0.547,-0.4513 -0.877,-0.588 -0.331,-0.1366 -0.686,-0.207 -1.045,-0.207 -0.359,0 -0.715,0.0704 -1.045,0.207 -0.331,0.1367 -0.629,0.3367 -0.877,0.588 -0.496,0.5761 -0.768,1.3024 -0.768,2.0525 0,0.7501 0.272,1.4765 0.768,2.0526 0.245,0.2567 0.543,0.46 0.875,0.5963 0.332,0.1364 0.691,0.2027 1.051,0.1945 0.349,0.0056 0.695,-0.0562 1.018,-0.1818 0.324,-0.1256 0.618,-0.3125 0.866,-0.5498 z"
     fill="#6d4aff"
     id="path10" />
  <path
     d="m 163.439,7.29934 c -0.164,-0.14555 -0.295,-0.32321 -0.384,-0.52129 -0.088,-0.19807 -0.132,-0.41207 -0.129,-0.6279 -0.003,-0.21748 0.042,-0.43307 0.13,-0.63299 0.088,-0.19991 0.219,-0.37975 0.383,-0.52804 C 163.764,4.67587 164.204,4.5 164.663,4.5 c 0.458,0 0.898,0.17587 1.223,0.48912 0.163,0.14888 0.293,0.32891 0.381,0.52873 0.087,0.19982 0.132,0.41511 0.129,0.6323 0.003,0.21553 -0.041,0.42921 -0.129,0.62719 -0.088,0.19798 -0.218,0.37583 -0.381,0.522 -0.329,0.30624 -0.767,0.4773 -1.223,0.4773 -0.457,0 -0.895,-0.17106 -1.224,-0.4773 z m 2.603,11.97166 h -2.753 V 9.35483 h 2.753 z"
     fill="#6d4aff"
     id="path12" />
  <path
     d="m 170.8,19.2709 h -2.752 V 4.88245 h 2.752 z"
     fill="#6d4aff"
     id="path14" />
  <path
     d="M 75.9842,4.84671 H 69.1221 V 19.2441 h 2.7185 v -3.572 c 0,-0.3487 0.1431,-0.6832 0.3977,-0.9298 0.2546,-0.2467 0.6,-0.3852 0.9601,-0.3852 h 2.7858 c 1.2976,0 2.5421,-0.4993 3.4597,-1.388 0.9176,-0.8887 1.433,-2.0941 1.433,-3.35091 C 80.8814,8.99313 80.7581,8.3734 80.5142,7.79469 80.2703,7.21597 79.9106,6.6897 79.4558,6.2462 79.0011,5.8027 78.4602,5.45072 77.8644,5.21053 77.2685,4.97034 76.6295,4.8467 75.9842,4.84671 Z m 2.1406,4.7389 c -0.0025,0.59489 -0.2486,1.16459 -0.6843,1.58389 -0.4358,0.4192 -1.0256,0.6539 -1.6398,0.6523 H 71.8253 V 7.32279 h 3.9754 c 0.3048,0 0.6066,0.05814 0.8882,0.17112 0.2816,0.11297 0.5375,0.27856 0.753,0.4873 0.2155,0.20875 0.3865,0.45657 0.5031,0.72931 0.1167,0.27274 0.1767,0.56507 0.1767,0.86028 z"
     fill="#ffffff"
     id="path16"
     style="fill:#ffffff;fill-opacity:1" />
  <path
     d="m 81.3051,19.2443 v -5.7104 c 0,-2.331 1.4066,-4.18802 4.2169,-4.18802 0.452,-0.00632 0.9031,0.04243 1.3425,0.14513 V 11.8427 C 86.5434,11.822 86.2529,11.822 86.1397,11.822 c -1.4892,0 -2.1406,0.6575 -2.1406,1.9992 v 5.4231 z"
     fill="#ffffff"
     id="path18"
     style="fill:#ffffff;fill-opacity:1" />
  <path
     d="m 87.6719,14.3988 c 0,-2.867 2.2354,-5.05285 5.3453,-5.05285 3.11,0 5.3423,2.17985 5.3423,5.05285 0,2.873 -2.2354,5.0736 -5.3423,5.0736 -3.1069,0 -5.3453,-2.2066 -5.3453,-5.0736 z m 8.0272,0 c 0,-1.629 -1.1284,-2.7841 -2.6819,-2.7841 -1.5534,0 -2.6849,1.1551 -2.6849,2.7841 0,1.629 1.1284,2.7841 2.6849,2.7841 1.5565,0 2.6819,-1.1344 2.6819,-2.7841 z"
     fill="#ffffff"
     id="path20"
     style="fill:#ffffff;fill-opacity:1" />
  <path
     d="m 106.194,11.6353 h -2.914 v 3.6075 c 0,1.2588 0.468,1.8363 1.807,1.8363 0.129,0 0.45,0 0.853,-0.0207 v 2.1236 c -0.512,0.1452 -1.041,0.2219 -1.575,0.2281 -2.256,0 -3.791,-1.321 -3.791,-3.8149 V 11.6353 H 98.7662 V 9.56203 h 0.4496 c 0.3601,0 0.7054,-0.13855 0.9602,-0.38517 0.254,-0.24662 0.398,-0.5811 0.398,-0.92988 V 6.27441 h 2.706 v 3.27873 h 2.914 z"
     fill="#ffffff"
     id="path22"
     style="fill:#ffffff;fill-opacity:1" />
  <path
     d="m 107.004,14.3988 c 0,-2.867 2.236,-5.05285 5.343,-5.05285 3.107,0 5.345,2.17985 5.345,5.05285 0,2.873 -2.235,5.0736 -5.345,5.0736 -3.11,0 -5.343,-2.2066 -5.343,-5.0736 z m 8.028,0 c 0,-1.629 -1.129,-2.7841 -2.685,-2.7841 -1.557,0 -2.682,1.1551 -2.682,2.7841 0,1.629 1.128,2.7841 2.682,2.7841 1.553,0 2.685,-1.1344 2.685,-2.7841 z"
     fill="#ffffff"
     id="path24"
     style="fill:#ffffff;fill-opacity:1" />
  <path
     d="m 119.096,19.2443 v -5.506 c 0,-2.556 1.682,-4.39235 4.685,-4.39235 3.003,0 4.663,1.83635 4.663,4.39235 v 5.506 h -2.682 v -5.2987 c 0,-1.4246 -0.66,-2.3102 -1.981,-2.3102 -1.321,0 -1.979,0.8886 -1.979,2.3102 v 5.2987 z"
     fill="#ffffff"
     id="path26"
     style="fill:#ffffff;fill-opacity:1" />
  <defs
     id="defs38">
    <linearGradient
       id="paint0_linear_499_22895"
       x1="51.785198"
       y1="12.1227"
       x2="45.362202"
       y2="-16.188499"
       gradientUnits="userSpaceOnUse">
      <stop
         stop-color="#E2DBFF"
         id="stop28" />
      <stop
         offset="1"
         stop-color="#6D4AFF"
         id="stop30" />
    </linearGradient>
    <linearGradient
       id="paint1_linear_499_22895"
       x1="68.261703"
       y1="39.289398"
       x2="46.167099"
       y2="-9.4419403"
       gradientUnits="userSpaceOnUse">
      <stop
         offset="0.271019"
         stop-color="#E2DBFF"
         id="stop33" />
      <stop
         offset="1"
         stop-color="#6D4AFF"
         id="stop35" />
    </linearGradient>
  </defs>
</svg>
