<svg width="16" height="16" viewBox="0 0 16 16" fill="none" xmlns="http://www.w3.org/2000/svg">
<g id="ic-eye-slash">
<g id="icon">
<path fill-rule="evenodd" clip-rule="evenodd" d="M11 4.33002L13.15 2.15002L13.86 2.84002L2.85999 13.84L2.15999 13.14L4.15999 11.14C3.12487 10.3566 2.24914 9.38244 1.57999 8.27002L1.39999 8.00002L1.57999 7.70002C3.14999 5.31002 4.83999 3.70002 7.99999 3.70002C9.03578 3.66939 10.064 3.88532 11 4.33002ZM6.92814 6.91817C6.47409 7.37223 6.362 8.0661 6.64999 8.64003L8.64999 6.64003C8.07607 6.35203 7.3822 6.46412 6.92814 6.91817ZM9.36999 5.93002C8.96735 5.65139 8.48965 5.50146 7.99999 5.50002C6.61928 5.50002 5.49999 6.61931 5.49999 8.00002C5.50143 8.48968 5.65136 8.96738 5.92999 9.37002L4.86999 10.42C3.96048 9.77171 3.18887 8.94911 2.59999 8.00002C3.99999 6.00002 5.39999 4.70002 7.99999 4.70002C8.75151 4.68822 9.49833 4.82061 10.2 5.09002L9.36999 5.93002Z" fill="#17181C"/>
<path d="M14.42 7.73002C13.8714 6.82671 13.1981 6.00529 12.42 5.29002L11.7 6.00002C12.3591 6.5822 12.9316 7.25569 13.4 8.00002C12 10 10.6 11.3 7.99999 11.3C7.51257 11.3044 7.0262 11.2541 6.54999 11.15L5.73999 12C6.47229 12.2209 7.23543 12.3222 7.99999 12.3C11.16 12.3 12.85 10.69 14.42 8.30002L14.6 8.00002L14.42 7.73002Z" fill="#17181C"/>
<path d="M8.21999 9.48002L7.29999 10.4C7.52685 10.4689 7.76292 10.5027 7.99999 10.5C8.66304 10.5 9.29892 10.2366 9.76776 9.76779C10.2366 9.29895 10.5 8.66307 10.5 8.00002C10.5026 7.76295 10.4689 7.52688 10.4 7.30002L9.47999 8.22003C9.38822 8.87414 8.8741 9.38825 8.21999 9.48002Z" fill="#17181C"/>
</g>
</g>
</svg>
