<?xml version="1.0" encoding="UTF-8" standalone="no"?>
<svg
   width="16"
   height="16"
   viewBox="0 0 16 16"
   fill="none"
   version="1.1"
   id="svg12"
   sodipodi:docname="ic-card-identity.svg"
   inkscape:version="1.1.1 (3bf5ae0d25, 2021-09-20, custom)"
   xmlns:inkscape="http://www.inkscape.org/namespaces/inkscape"
   xmlns:sodipodi="http://sodipodi.sourceforge.net/DTD/sodipodi-0.dtd"
   xmlns="http://www.w3.org/2000/svg"
   xmlns:svg="http://www.w3.org/2000/svg">
  <defs
     id="defs16" />
  <sodipodi:namedview
     id="namedview14"
     pagecolor="#505050"
     bordercolor="#ffffff"
     borderopacity="1"
     inkscape:pageshadow="0"
     inkscape:pageopacity="0"
     inkscape:pagecheckerboard="1"
     showgrid="false"
     inkscape:zoom="40.25"
     inkscape:cx="7.9875776"
     inkscape:cy="8"
     inkscape:window-width="2556"
     inkscape:window-height="1401"
     inkscape:window-x="0"
     inkscape:window-y="18"
     inkscape:window-maximized="1"
     inkscape:current-layer="svg12" />
  <g
     id="ic-card-identity"
     transform="translate(0,-3.9095641)">
    <g
       id="icon">
      <path
         fill-rule="evenodd"
         clip-rule="evenodd"
         d="M 5.32,9.64 C 5.96894,9.64404 6.55605,9.25571 6.80626,8.65693 7.05647,8.05815 6.92022,7.36754 6.46134,6.90866 6.00246,6.44978 5.31185,6.31353 4.71307,6.56374 4.11429,6.81395 3.72596,7.40106 3.73,8.05 c 0,0.87813 0.71187,1.59 1.59,1.59 z m 0,-2.19 C 5.61898,7.48884 5.8427,7.74351 5.8427,8.045 5.8427,8.34649 5.61898,8.60116 5.32,8.64 5.02102,8.60116 4.7973,8.34649 4.7973,8.045 4.7973,7.74351 5.02102,7.48884 5.32,7.45 Z"
         fill="#0c0c14"
         id="path2" />
      <path
         d="m 9,8 h 4 V 9 H 9 Z"
         fill="#0c0c14"
         id="path4" />
      <path
         d="M 13,10 H 9 v 1 h 4 z"
         fill="#0c0c14"
         id="path6" />
      <path
         fill-rule="evenodd"
         clip-rule="evenodd"
         d="M 1,14 V 4 H 15 V 14 Z M 3.64,12.49 V 13 H 7 V 12.49 L 6.1,11.57 H 4.54 Z M 14,13 H 8 V 12.08 L 6.52,10.57 H 4.12 L 2.64,12.08 V 13 H 2 V 5 h 12 z"
         fill="#0c0c14"
         id="path8" />
    </g>
  </g>
</svg>
