<svg width="164" height="32" viewBox="0 0 164 32" fill="none" xmlns="http://www.w3.org/2000/svg">
<path d="M5.91309 8.64043C5.91309 8.2476 6.37094 8.03268 6.67315 8.28365L14.6667 14.922C15.4397 15.5639 16.5604 15.5639 17.3334 14.922L25.3269 8.28366C25.6291 8.03268 26.087 8.2476 26.087 8.64043V22.2612C26.087 23.4137 25.1526 24.3481 24 24.3481H8.00004C6.84745 24.3481 5.91309 23.4137 5.91309 22.2612V8.64043Z" fill="#6D4AFF"/>
<path fill-rule="evenodd" clip-rule="evenodd" d="M18.7236 13.7655L18.7247 13.7664L14.699 17.3224C14.0133 17.9282 12.9882 17.9435 12.2847 17.3584L5.91309 12.0594V8.63848C5.91309 8.24565 6.37094 8.03073 6.67315 8.2817L14.6667 14.9201C15.4397 15.562 16.5604 15.562 17.3334 14.9201L18.7236 13.7655Z" fill="url(#paint0_linear_2302_47705)"/>
<path fill-rule="evenodd" clip-rule="evenodd" d="M21.7971 11.2151V24.3481H24C25.1526 24.3481 26.087 23.4137 26.087 22.2611V8.64045C26.087 8.24762 25.6291 8.03266 25.3269 8.28368L21.7971 11.2151Z" fill="url(#paint1_linear_2302_47705)"/>
<path d="M52.4445 8.11523C51.356 8.11523 50.4735 8.99769 50.4735 10.0862V21.9123C50.4735 23.0009 51.356 23.8834 52.4445 23.8834H62.5186V19.0653C62.5186 17.8558 63.4991 16.8753 64.7086 16.8753H69.5266V10.0862C69.5266 8.99769 68.6442 8.11523 67.5556 8.11523H52.4445Z" fill="url(#paint2_linear_2302_47705)"/>
<path d="M52.4445 8.11523C51.356 8.11523 50.4735 8.99769 50.4735 10.0862V21.9123C50.4735 23.0009 51.356 23.8834 52.4445 23.8834H62.5186V19.0653C62.5186 17.8558 63.4991 16.8753 64.7086 16.8753H69.5266V10.0862C69.5266 8.99769 68.6442 8.11523 67.5556 8.11523H52.4445Z" fill="url(#paint3_radial_2302_47705)"/>
<path d="M63.0661 17.6175C62.7253 18.0035 62.5185 18.5107 62.5185 19.0661V23.8842H59.124V22.9671C59.124 22.4986 59.2909 22.0454 59.5948 21.6887L63.0661 17.6152L63.0661 17.6175Z" fill="#BFD8FF"/>
<path fill-rule="evenodd" clip-rule="evenodd" d="M65.4751 8.11523H52.4445C51.356 8.11523 50.4735 8.99769 50.4735 10.0862V10.4695H63.9421C64.7888 10.4695 65.4751 11.1559 65.4751 12.0025V16.8753H69.5266V10.0862C69.5266 8.99769 68.6442 8.11523 67.5556 8.11523H65.6941H65.4751Z" fill="url(#paint4_linear_2302_47705)"/>
<path d="M64.4348 21.3822H65.1279C65.1566 21.5028 65.2266 21.6096 65.3258 21.6839C65.4249 21.7583 65.547 21.7956 65.6708 21.7894C65.984 21.7894 66.1902 21.6165 66.1902 21.364C66.1902 21.1115 65.9749 20.9705 65.5487 20.9705H65.2727V20.4002H65.5116C65.9233 20.4002 66.0917 20.2486 66.0917 20.0211C66.0917 19.7936 65.9089 19.6374 65.6564 19.6374C65.5432 19.6307 65.4319 19.6684 65.3461 19.7427C65.2604 19.8169 65.2071 19.9218 65.1976 20.0348H64.5334C64.5569 19.6374 64.8701 19.0664 65.6564 19.0664C66.2881 19.0664 66.7233 19.4266 66.7233 19.9316C66.7241 20.094 66.673 20.2524 66.5775 20.3837C66.4821 20.515 66.3472 20.6125 66.1925 20.6619V20.6709C66.3729 20.7038 66.5354 20.8003 66.6505 20.943C66.7657 21.0857 66.8257 21.265 66.8196 21.4482C66.8196 21.9957 66.3184 22.3581 65.6685 22.3581C64.9777 22.3604 64.4864 21.9676 64.4348 21.3822Z" fill="#6D4AFF"/>
<path d="M68.0302 19.1191H68.5352V22.31H67.8845V19.863L67.2574 20.2885V19.6431L68.0302 19.1191Z" fill="#6D4AFF"/>
<path d="M93.9131 22.261V9.7393C93.9131 8.58671 94.8474 7.65234 96 7.65234H99.9139C100.309 7.65234 100.693 7.77837 101.012 8.01208L102.322 8.97377C102.64 9.20748 103.025 9.3335 103.419 9.3335H112C113.153 9.3335 114.087 10.2679 114.087 11.4205V22.261C114.087 23.4136 113.153 24.348 112 24.348H96C94.8474 24.348 93.9131 23.4136 93.9131 22.261Z" fill="url(#paint5_linear_2302_47705)"/>
<path d="M93.9131 22.261V9.7393C93.9131 8.58671 94.8474 7.65234 96 7.65234H99.9139C100.309 7.65234 100.693 7.77837 101.012 8.01208L102.322 8.97377C102.64 9.20748 103.025 9.3335 103.419 9.3335H112C113.153 9.3335 114.087 10.2679 114.087 11.4205V22.261C114.087 23.4136 113.153 24.348 112 24.348H96C94.8474 24.348 93.9131 23.4136 93.9131 22.261Z" fill="url(#paint6_radial_2302_47705)"/>
<path fill-rule="evenodd" clip-rule="evenodd" d="M103.419 9.3335H104.754H109.913H112C113.153 9.3335 114.087 10.2678 114.087 11.4205V22.261C114.087 23.4137 113.153 24.348 112 24.348H109.797V13.4588C109.797 12.5587 109.065 11.8305 108.165 11.8357L100.263 11.8812C99.9223 11.8832 99.5899 11.7781 99.3126 11.5809L97.5529 10.3295C97.2781 10.1341 96.9493 10.0292 96.6122 10.0292H93.9131V9.7393C93.9131 8.58667 94.8474 7.65234 96 7.65234H99.9139C100.309 7.65234 100.693 7.77836 101.012 8.01206L102.322 8.97379C102.64 9.20748 103.025 9.3335 103.419 9.3335Z" fill="url(#paint7_linear_2302_47705)"/>
<path fill-rule="evenodd" clip-rule="evenodd" d="M146.124 24.3322C146.883 25.7082 148.834 25.7827 149.696 24.4687L157.736 12.2167C158.588 10.9174 157.773 9.17537 156.229 8.99833L140.426 7.18626C138.741 6.99307 137.542 8.78343 138.361 10.2681L146.124 24.3322Z" fill="url(#paint8_linear_2302_47705)"/>
<path fill-rule="evenodd" clip-rule="evenodd" d="M146.124 24.3322C146.883 25.7082 148.834 25.7827 149.696 24.4687L157.736 12.2167C158.588 10.9174 157.773 9.17537 156.229 8.99833L140.426 7.18626C138.741 6.99307 137.542 8.78343 138.361 10.2681L146.124 24.3322Z" fill="url(#paint9_linear_2302_47705)"/>
<path fill-rule="evenodd" clip-rule="evenodd" d="M147.29 21.9765L146.577 23.049C146.287 23.4836 145.641 23.4568 145.388 22.9999L146.124 24.3324C146.255 24.57 146.422 24.7688 146.612 24.9283L146.612 24.9282C147.524 25.6925 148.982 25.5558 149.696 24.4687L157.736 12.2167C158.588 10.9174 157.772 9.17539 156.228 8.99836L140.426 7.18626C138.741 6.9931 137.542 8.78346 138.361 10.2681L138.424 10.3811L151.874 11.9374C152.731 12.0366 153.184 13.0043 152.71 13.7257L147.29 21.9765Z" fill="url(#paint10_linear_2302_47705)"/>
<defs>
<linearGradient id="paint0_linear_2302_47705" x1="21.1305" y1="16.0853" x2="16.5321" y2="-3.54607" gradientUnits="userSpaceOnUse">
<stop stop-color="#E2DBFF"/>
<stop offset="1" stop-color="#6D4AFF"/>
</linearGradient>
<linearGradient id="paint1_linear_2302_47705" x1="32.2319" y1="34.9858" x2="16.5393" y2="1.46296" gradientUnits="userSpaceOnUse">
<stop offset="0.271019" stop-color="#E2DBFF"/>
<stop offset="1" stop-color="#6D4AFF"/>
</linearGradient>
<linearGradient id="paint2_linear_2302_47705" x1="60.0001" y1="1.81548" x2="61.298" y2="20.2516" gradientUnits="userSpaceOnUse">
<stop offset="0.988738" stop-color="#6D4AFF"/>
</linearGradient>
<radialGradient id="paint3_radial_2302_47705" cx="0" cy="0" r="1" gradientUnits="userSpaceOnUse" gradientTransform="translate(63.4494 0.0669251) rotate(110.421) scale(27.2247 36.2787)">
<stop offset="0.556057" stop-color="#54B7FF" stop-opacity="0"/>
<stop offset="0.994421" stop-color="#54B7FF"/>
</radialGradient>
<linearGradient id="paint4_linear_2302_47705" x1="69.5266" y1="16.6837" x2="57.6142" y2="0.25498" gradientUnits="userSpaceOnUse">
<stop stop-color="#C8E8FF"/>
<stop offset="0.307532" stop-color="#BDAEFF"/>
<stop offset="1" stop-color="#6D4AFF"/>
</linearGradient>
<linearGradient id="paint5_linear_2302_47705" x1="104.015" y1="-0.798116" x2="105.578" y2="21.2045" gradientUnits="userSpaceOnUse">
<stop offset="0.988738" stop-color="#6D4AFF"/>
</linearGradient>
<radialGradient id="paint6_radial_2302_47705" cx="0" cy="0" r="1" gradientUnits="userSpaceOnUse" gradientTransform="translate(110.469 0.333684) rotate(116.076) scale(29.0915 45.26)">
<stop offset="0.556057" stop-color="#FF62C0" stop-opacity="0"/>
<stop offset="0.994421" stop-color="#FF62C0"/>
</radialGradient>
<linearGradient id="paint7_linear_2302_47705" x1="87.1305" y1="4.86974" x2="112.348" y2="32.5799" gradientUnits="userSpaceOnUse">
<stop stop-color="#6D4AFF"/>
<stop offset="0.35934" stop-color="#AE8CFF"/>
<stop offset="1" stop-color="#F8CCFF"/>
</linearGradient>
<linearGradient id="paint8_linear_2302_47705" x1="149.077" y1="-3.88232" x2="149.757" y2="19.2346" gradientUnits="userSpaceOnUse">
<stop offset="0.988738" stop-color="#6D4AFF"/>
</linearGradient>
<linearGradient id="paint9_linear_2302_47705" x1="149.21" y1="-0.682113" x2="143.559" y2="23.6447" gradientUnits="userSpaceOnUse">
<stop offset="0.47989" stop-color="#24ECC6" stop-opacity="0"/>
<stop offset="0.994421" stop-color="#24ECC6"/>
</linearGradient>
<linearGradient id="paint10_linear_2302_47705" x1="151.078" y1="26.3101" x2="138.551" y2="4.88666" gradientUnits="userSpaceOnUse">
<stop offset="0.0660125" stop-color="#ABFFEF"/>
<stop offset="0.44988" stop-color="#CAC9FF"/>
<stop offset="1" stop-color="#6D4AFF"/>
</linearGradient>
</defs>
</svg>
