<svg width="16" height="16" viewBox="0 0 16 16" fill="none" xmlns="http://www.w3.org/2000/svg">
<g filter="url(#filter0_dii_9564_57528)">
<path d="M1.56006 4.37365C1.56006 2.81975 2.81975 1.56006 4.37365 1.56006H11.6265C13.1804 1.56006 14.4401 2.81975 14.4401 4.37365V11.6265C14.4401 13.1804 13.1804 14.4401 11.6265 14.4401H4.37365C2.81975 14.4401 1.56006 13.1804 1.56006 11.6265V4.37365Z" fill="url(#paint0_radial_9564_57528)"/>
</g>
<path d="M7.98377 3.81433C6.19905 3.81433 4.75244 5.26094 4.75244 7.04566V10.2984C4.75244 10.6442 5.03277 10.9246 5.37857 10.9246H10.6558C10.9646 10.9246 11.2151 10.6741 11.2151 10.3653V7.04566C11.2151 5.26117 9.7685 3.81433 7.98377 3.81433ZM9.84376 7.02772L8.43141 8.21754C8.17648 8.43238 7.80365 8.43238 7.54872 8.21754L6.13637 7.02772C6.13637 6.01803 6.95498 5.19942 7.96467 5.19942H8.01546C9.02515 5.19942 9.84376 6.01803 9.84376 7.02772Z" fill="#6D4AFF"/>
<path d="M7.98377 3.81433C6.19905 3.81433 4.75244 5.26094 4.75244 7.04566V10.2984C4.75244 10.6442 5.03277 10.9246 5.37857 10.9246H10.6558C10.9646 10.9246 11.2151 10.6741 11.2151 10.3653V7.04566C11.2151 5.26117 9.7685 3.81433 7.98377 3.81433ZM9.84376 7.02772L8.43141 8.21754C8.17648 8.43238 7.80365 8.43238 7.54872 8.21754L6.13637 7.02772C6.13637 6.01803 6.95498 5.19942 7.96467 5.19942H8.01546C9.02515 5.19942 9.84376 6.01803 9.84376 7.02772Z" fill="url(#paint1_linear_9564_57528)"/>
<g filter="url(#filter1_i_9564_57528)">
<path fill-rule="evenodd" clip-rule="evenodd" d="M8.43389 8.23199C8.28664 8.35119 7.90378 8.51808 7.55037 8.23199C7.19696 7.94589 6.4635 7.31341 6.14094 7.03292H6.14254L6.13637 7.02772C6.13637 6.01803 6.95498 5.19942 7.96467 5.19942H8.01546C9.02515 5.19942 9.84376 6.01803 9.84376 7.02772L9.83759 7.03292H9.84331V10.9246H10.6558C10.9646 10.9246 11.2151 10.6741 11.2151 10.3653V7.04566C11.2151 5.26117 9.7685 3.81433 7.98377 3.81433C6.19905 3.81433 4.75244 5.26094 4.75244 7.04566V7.24987L6.75099 8.96825C6.89825 9.1085 7.28531 9.30483 7.65555 8.96825C8.02579 8.63167 8.32871 8.33717 8.43389 8.23199Z" fill="url(#paint2_radial_9564_57528)"/>
</g>
<defs>
<filter id="filter0_dii_9564_57528" x="1.24756" y="1.37256" width="13.5049" height="13.6925" filterUnits="userSpaceOnUse" color-interpolation-filters="sRGB">
<feFlood flood-opacity="0" result="BackgroundImageFix"/>
<feColorMatrix in="SourceAlpha" type="matrix" values="0 0 0 0 0 0 0 0 0 0 0 0 0 0 0 0 0 0 127 0" result="hardAlpha"/>
<feOffset dy="0.3125"/>
<feGaussianBlur stdDeviation="0.15625"/>
<feComposite in2="hardAlpha" operator="out"/>
<feColorMatrix type="matrix" values="0 0 0 0 0 0 0 0 0 0 0 0 0 0 0 0 0 0 0.3 0"/>
<feBlend mode="normal" in2="BackgroundImageFix" result="effect1_dropShadow_9564_57528"/>
<feBlend mode="normal" in="SourceGraphic" in2="effect1_dropShadow_9564_57528" result="shape"/>
<feColorMatrix in="SourceAlpha" type="matrix" values="0 0 0 0 0 0 0 0 0 0 0 0 0 0 0 0 0 0 127 0" result="hardAlpha"/>
<feOffset dx="0.15625" dy="0.1875"/>
<feGaussianBlur stdDeviation="0.0625"/>
<feComposite in2="hardAlpha" operator="arithmetic" k2="-1" k3="1"/>
<feColorMatrix type="matrix" values="0 0 0 0 1 0 0 0 0 1 0 0 0 0 1 0 0 0 1 0"/>
<feBlend mode="normal" in2="shape" result="effect2_innerShadow_9564_57528"/>
<feColorMatrix in="SourceAlpha" type="matrix" values="0 0 0 0 0 0 0 0 0 0 0 0 0 0 0 0 0 0 127 0" result="hardAlpha"/>
<feOffset dx="-0.09375" dy="-0.1875"/>
<feGaussianBlur stdDeviation="0.09375"/>
<feComposite in2="hardAlpha" operator="arithmetic" k2="-1" k3="1"/>
<feColorMatrix type="matrix" values="0 0 0 0 0.0470588 0 0 0 0 0.0470588 0 0 0 0 0.0784314 0 0 0 0.04 0"/>
<feBlend mode="normal" in2="effect2_innerShadow_9564_57528" result="effect3_innerShadow_9564_57528"/>
</filter>
<filter id="filter1_i_9564_57528" x="4.6482" y="3.81433" width="6.56688" height="7.40105" filterUnits="userSpaceOnUse" color-interpolation-filters="sRGB">
<feFlood flood-opacity="0" result="BackgroundImageFix"/>
<feBlend mode="normal" in="SourceGraphic" in2="BackgroundImageFix" result="shape"/>
<feColorMatrix in="SourceAlpha" type="matrix" values="0 0 0 0 0 0 0 0 0 0 0 0 0 0 0 0 0 0 127 0" result="hardAlpha"/>
<feOffset dx="-0.104237" dy="0.29082"/>
<feGaussianBlur stdDeviation="0.781774"/>
<feComposite in2="hardAlpha" operator="arithmetic" k2="-1" k3="1"/>
<feColorMatrix type="matrix" values="0 0 0 0 0.462745 0 0 0 0 0.337255 0 0 0 0 1 0 0 0 0.24 0"/>
<feBlend mode="normal" in2="shape" result="effect1_innerShadow_9564_57528"/>
</filter>
<radialGradient id="paint0_radial_9564_57528" cx="0" cy="0" r="1" gradientUnits="userSpaceOnUse" gradientTransform="translate(5.86178 2.12607) rotate(59.8421) scale(15.7982)">
<stop stop-color="white"/>
<stop offset="0.639344" stop-color="#F5F4F2"/>
<stop offset="1" stop-color="#D1CFCD"/>
</radialGradient>
<linearGradient id="paint1_linear_9564_57528" x1="4.98384" y1="11.745" x2="5.9515" y2="9.01027" gradientUnits="userSpaceOnUse">
<stop stop-color="#28B0E8"/>
<stop offset="1" stop-color="#C5B7FF" stop-opacity="0"/>
</linearGradient>
<radialGradient id="paint2_radial_9564_57528" cx="0" cy="0" r="1" gradientUnits="userSpaceOnUse" gradientTransform="translate(10.8341 11.5136) rotate(-138.034) scale(8.17928 6.68752)">
<stop stop-color="#E2DBFF"/>
<stop offset="1" stop-color="#6D4AFF"/>
</radialGradient>
</defs>
</svg>
