<svg width="32" height="32" viewBox="0 0 32 32" fill="none" xmlns="http://www.w3.org/2000/svg">
<g filter="url(#filter0_dii_9564_57517)">
<path d="M3 8.625C3 5.5184 5.5184 3 8.625 3H23.125C26.2316 3 28.75 5.5184 28.75 8.625V23.125C28.75 26.2316 26.2316 28.75 23.125 28.75H8.625C5.5184 28.75 3 26.2316 3 23.125V8.625Z" fill="url(#paint0_radial_9564_57517)"/>
</g>
<path d="M15.97 8.22668C12.6556 8.22668 9.96899 10.9132 9.96899 14.2277V20.2686C9.96899 20.9108 10.4896 21.4314 11.1318 21.4314H20.9325C21.5059 21.4314 21.9711 20.9662 21.9711 20.3928V14.2277C21.9711 10.9137 19.2845 8.22668 15.97 8.22668ZM19.4243 14.1944L16.8014 16.4041C16.3279 16.8031 15.6355 16.8031 15.1621 16.4041L12.5391 14.1944C12.5391 12.3193 14.0594 10.799 15.9346 10.799H16.0289C17.904 10.799 19.4243 12.3193 19.4243 14.1944Z" fill="#6D4AFF"/>
<path d="M15.97 8.22668C12.6556 8.22668 9.96899 10.9132 9.96899 14.2277V20.2686C9.96899 20.9108 10.4896 21.4314 11.1318 21.4314H20.9325C21.5059 21.4314 21.9711 20.9662 21.9711 20.3928V14.2277C21.9711 10.9137 19.2845 8.22668 15.97 8.22668ZM19.4243 14.1944L16.8014 16.4041C16.3279 16.8031 15.6355 16.8031 15.1621 16.4041L12.5391 14.1944C12.5391 12.3193 14.0594 10.799 15.9346 10.799H16.0289C17.904 10.799 19.4243 12.3193 19.4243 14.1944Z" fill="url(#paint1_linear_9564_57517)"/>
<g filter="url(#filter1_i_9564_57517)">
<path fill-rule="evenodd" clip-rule="evenodd" d="M16.8058 16.4308C16.5323 16.6522 15.8213 16.9621 15.165 16.4308C14.5086 15.8995 13.1465 14.7249 12.5475 14.204H12.5505L12.5391 14.1944C12.5391 12.3193 14.0594 10.799 15.9346 10.799H16.0289C17.904 10.799 19.4243 12.3193 19.4243 14.1944L19.4129 14.204H19.4233V21.4314H20.9325C21.5059 21.4314 21.9711 20.9662 21.9711 20.3928V14.2277C21.9711 10.9137 19.2845 8.22668 15.97 8.22668C12.6556 8.22668 9.96899 10.9132 9.96899 14.2277V14.6071L13.6804 17.7982C13.9539 18.0586 14.6727 18.4233 15.3603 17.7982C16.0479 17.1731 16.6105 16.6262 16.8058 16.4308Z" fill="url(#paint2_radial_9564_57517)"/>
</g>
<defs>
<filter id="filter0_dii_9564_57517" x="2.375" y="2.625" width="27" height="27.375" filterUnits="userSpaceOnUse" color-interpolation-filters="sRGB">
<feFlood flood-opacity="0" result="BackgroundImageFix"/>
<feColorMatrix in="SourceAlpha" type="matrix" values="0 0 0 0 0 0 0 0 0 0 0 0 0 0 0 0 0 0 127 0" result="hardAlpha"/>
<feOffset dy="0.625"/>
<feGaussianBlur stdDeviation="0.3125"/>
<feComposite in2="hardAlpha" operator="out"/>
<feColorMatrix type="matrix" values="0 0 0 0 0 0 0 0 0 0 0 0 0 0 0 0 0 0 0.3 0"/>
<feBlend mode="normal" in2="BackgroundImageFix" result="effect1_dropShadow_9564_57517"/>
<feBlend mode="normal" in="SourceGraphic" in2="effect1_dropShadow_9564_57517" result="shape"/>
<feColorMatrix in="SourceAlpha" type="matrix" values="0 0 0 0 0 0 0 0 0 0 0 0 0 0 0 0 0 0 127 0" result="hardAlpha"/>
<feOffset dx="0.3125" dy="0.375"/>
<feGaussianBlur stdDeviation="0.125"/>
<feComposite in2="hardAlpha" operator="arithmetic" k2="-1" k3="1"/>
<feColorMatrix type="matrix" values="0 0 0 0 1 0 0 0 0 1 0 0 0 0 1 0 0 0 1 0"/>
<feBlend mode="normal" in2="shape" result="effect2_innerShadow_9564_57517"/>
<feColorMatrix in="SourceAlpha" type="matrix" values="0 0 0 0 0 0 0 0 0 0 0 0 0 0 0 0 0 0 127 0" result="hardAlpha"/>
<feOffset dx="-0.1875" dy="-0.375"/>
<feGaussianBlur stdDeviation="0.1875"/>
<feComposite in2="hardAlpha" operator="arithmetic" k2="-1" k3="1"/>
<feColorMatrix type="matrix" values="0 0 0 0 0.0470588 0 0 0 0 0.0470588 0 0 0 0 0.0784314 0 0 0 0.04 0"/>
<feBlend mode="normal" in2="effect2_innerShadow_9564_57517" result="effect3_innerShadow_9564_57517"/>
</filter>
<filter id="filter1_i_9564_57517" x="9.77541" y="8.22668" width="12.1958" height="13.7448" filterUnits="userSpaceOnUse" color-interpolation-filters="sRGB">
<feFlood flood-opacity="0" result="BackgroundImageFix"/>
<feBlend mode="normal" in="SourceGraphic" in2="BackgroundImageFix" result="shape"/>
<feColorMatrix in="SourceAlpha" type="matrix" values="0 0 0 0 0 0 0 0 0 0 0 0 0 0 0 0 0 0 127 0" result="hardAlpha"/>
<feOffset dx="-0.193582" dy="0.540094"/>
<feGaussianBlur stdDeviation="1.45187"/>
<feComposite in2="hardAlpha" operator="arithmetic" k2="-1" k3="1"/>
<feColorMatrix type="matrix" values="0 0 0 0 0.462745 0 0 0 0 0.337255 0 0 0 0 1 0 0 0 0.24 0"/>
<feBlend mode="normal" in2="shape" result="effect1_innerShadow_9564_57517"/>
</filter>
<radialGradient id="paint0_radial_9564_57517" cx="0" cy="0" r="1" gradientUnits="userSpaceOnUse" gradientTransform="translate(11.6001 4.13159) rotate(59.8421) scale(31.5842)">
<stop stop-color="white"/>
<stop offset="0.639344" stop-color="#F5F4F2"/>
<stop offset="1" stop-color="#D1CFCD"/>
</radialGradient>
<linearGradient id="paint1_linear_9564_57517" x1="10.3987" y1="22.955" x2="12.1958" y2="17.8763" gradientUnits="userSpaceOnUse">
<stop stop-color="#28B0E8"/>
<stop offset="1" stop-color="#C5B7FF" stop-opacity="0"/>
</linearGradient>
<radialGradient id="paint2_radial_9564_57517" cx="0" cy="0" r="1" gradientUnits="userSpaceOnUse" gradientTransform="translate(21.2634 22.5253) rotate(-138.034) scale(15.1901 12.4197)">
<stop stop-color="#E2DBFF"/>
<stop offset="1" stop-color="#6D4AFF"/>
</radialGradient>
</defs>
</svg>
