<svg width="512" height="512" viewBox="0 0 512 512" fill="none" xmlns="http://www.w3.org/2000/svg">
<g filter="url(#filter0_dii_9564_57484)">
<path d="M50 140C50 90.2944 90.2944 50 140 50H372C421.706 50 462 90.2944 462 140V372C462 421.706 421.706 462 372 462H140C90.2944 462 50 421.706 50 372V140Z" fill="url(#paint0_radial_9564_57484)"/>
</g>
<path d="M255.525 132.823C203.003 132.823 160.431 175.395 160.431 227.917V323.641C160.431 333.818 168.681 342.067 178.857 342.067H334.16C343.246 342.067 350.618 334.696 350.618 325.609V227.917C350.618 175.402 308.047 132.823 255.525 132.823ZM310.261 227.389L268.698 262.403C261.196 268.726 250.224 268.726 242.722 262.403L201.158 227.389C201.158 197.675 225.249 173.585 254.962 173.585H256.457C286.171 173.585 310.261 197.675 310.261 227.389Z" fill="#6D4AFF"/>
<path d="M255.525 132.823C203.003 132.823 160.431 175.395 160.431 227.917V323.641C160.431 333.818 168.681 342.067 178.857 342.067H334.16C343.246 342.067 350.618 334.696 350.618 325.609V227.917C350.618 175.402 308.046 132.823 255.525 132.823ZM310.261 227.389L268.698 262.403C261.196 268.726 250.224 268.726 242.722 262.403L201.158 227.389C201.158 197.675 225.249 173.585 254.962 173.585H256.457C286.171 173.585 310.261 197.675 310.261 227.389Z" fill="url(#paint1_linear_9564_57484)"/>
<g filter="url(#filter1_i_9564_57484)">
<path fill-rule="evenodd" clip-rule="evenodd" d="M268.768 262.827C264.434 266.335 253.167 271.246 242.767 262.827C232.367 254.407 210.782 235.794 201.289 227.54H201.337L201.158 227.389C201.158 197.675 225.249 173.585 254.962 173.585H256.457C286.171 173.585 310.261 197.675 310.261 227.389L310.082 227.54H310.245V342.067H334.16C343.246 342.067 350.618 334.696 350.618 325.609V227.917C350.618 175.402 308.047 132.823 255.525 132.823C203.003 132.823 160.431 175.395 160.431 227.917V233.927L219.242 284.494C223.576 288.621 234.967 294.399 245.862 284.494C256.758 274.589 265.672 265.922 268.768 262.827Z" fill="url(#paint2_radial_9564_57484)"/>
</g>
<defs>
<filter id="filter0_dii_9564_57484" x="40" y="44" width="432" height="438" filterUnits="userSpaceOnUse" color-interpolation-filters="sRGB">
<feFlood flood-opacity="0" result="BackgroundImageFix"/>
<feColorMatrix in="SourceAlpha" type="matrix" values="0 0 0 0 0 0 0 0 0 0 0 0 0 0 0 0 0 0 127 0" result="hardAlpha"/>
<feOffset dy="10"/>
<feGaussianBlur stdDeviation="5"/>
<feComposite in2="hardAlpha" operator="out"/>
<feColorMatrix type="matrix" values="0 0 0 0 0 0 0 0 0 0 0 0 0 0 0 0 0 0 0.3 0"/>
<feBlend mode="normal" in2="BackgroundImageFix" result="effect1_dropShadow_9564_57484"/>
<feBlend mode="normal" in="SourceGraphic" in2="effect1_dropShadow_9564_57484" result="shape"/>
<feColorMatrix in="SourceAlpha" type="matrix" values="0 0 0 0 0 0 0 0 0 0 0 0 0 0 0 0 0 0 127 0" result="hardAlpha"/>
<feOffset dx="5" dy="6"/>
<feGaussianBlur stdDeviation="2"/>
<feComposite in2="hardAlpha" operator="arithmetic" k2="-1" k3="1"/>
<feColorMatrix type="matrix" values="0 0 0 0 1 0 0 0 0 1 0 0 0 0 1 0 0 0 1 0"/>
<feBlend mode="normal" in2="shape" result="effect2_innerShadow_9564_57484"/>
<feColorMatrix in="SourceAlpha" type="matrix" values="0 0 0 0 0 0 0 0 0 0 0 0 0 0 0 0 0 0 127 0" result="hardAlpha"/>
<feOffset dx="-3" dy="-6"/>
<feGaussianBlur stdDeviation="3"/>
<feComposite in2="hardAlpha" operator="arithmetic" k2="-1" k3="1"/>
<feColorMatrix type="matrix" values="0 0 0 0 0.0470588 0 0 0 0 0.0470588 0 0 0 0 0.0784314 0 0 0 0.04 0"/>
<feBlend mode="normal" in2="effect2_innerShadow_9564_57484" result="effect3_innerShadow_9564_57484"/>
</filter>
<filter id="filter1_i_9564_57484" x="157.364" y="132.823" width="193.255" height="217.802" filterUnits="userSpaceOnUse" color-interpolation-filters="sRGB">
<feFlood flood-opacity="0" result="BackgroundImageFix"/>
<feBlend mode="normal" in="SourceGraphic" in2="BackgroundImageFix" result="shape"/>
<feColorMatrix in="SourceAlpha" type="matrix" values="0 0 0 0 0 0 0 0 0 0 0 0 0 0 0 0 0 0 127 0" result="hardAlpha"/>
<feOffset dx="-3.06753" dy="8.55841"/>
<feGaussianBlur stdDeviation="23.0065"/>
<feComposite in2="hardAlpha" operator="arithmetic" k2="-1" k3="1"/>
<feColorMatrix type="matrix" values="0 0 0 0 0.462745 0 0 0 0 0.337255 0 0 0 0 1 0 0 0 0.24 0"/>
<feBlend mode="normal" in2="shape" result="effect1_innerShadow_9564_57484"/>
</filter>
<radialGradient id="paint0_radial_9564_57484" cx="0" cy="0" r="1" gradientUnits="userSpaceOnUse" gradientTransform="translate(187.602 68.1054) rotate(59.8421) scale(505.347)">
<stop stop-color="white"/>
<stop offset="0.639344" stop-color="#F5F4F2"/>
<stop offset="1" stop-color="#D1CFCD"/>
</radialGradient>
<linearGradient id="paint1_linear_9564_57484" x1="167.241" y1="366.211" x2="195.718" y2="285.732" gradientUnits="userSpaceOnUse">
<stop stop-color="#28B0E8"/>
<stop offset="1" stop-color="#C5B7FF" stop-opacity="0"/>
</linearGradient>
<radialGradient id="paint2_radial_9564_57484" cx="0" cy="0" r="1" gradientUnits="userSpaceOnUse" gradientTransform="translate(339.404 359.401) rotate(-138.034) scale(240.704 196.804)">
<stop stop-color="#E2DBFF"/>
<stop offset="1" stop-color="#6D4AFF"/>
</radialGradient>
</defs>
</svg>
