<?xml version="1.0" encoding="UTF-8" standalone="no"?>
<!DOCTYPE svg PUBLIC "-//W3C//DTD SVG 1.1//EN" "http://www.w3.org/Graphics/SVG/1.1/DTD/svg11.dtd">
<svg width="100%" height="100%" viewBox="0 0 128 128" version="1.1" xmlns="http://www.w3.org/2000/svg" xmlns:xlink="http://www.w3.org/1999/xlink" xml:space="preserve" xmlns:serif="http://www.serif.com/" style="fill-rule:evenodd;clip-rule:evenodd;stroke-linejoin:round;stroke-miterlimit:2;">
    <g transform="matrix(1.6,0,0,1.6,9.6,5.6)">
        <path d="M34,0C15.497,0 0.5,14.852 0.5,33.176L0.5,66.572C0.5,70.122 3.406,73 6.991,73L61.702,73C64.903,73 67.5,70.428 67.5,67.258L67.5,33.176C67.5,14.855 52.503,0 34,0ZM53.283,32.992L38.641,45.207C35.998,47.413 32.133,47.413 29.49,45.207L14.848,32.992C14.848,22.625 23.334,14.221 33.802,14.221L34.329,14.221C44.796,14.221 53.283,22.625 53.283,32.992Z" style="fill:rgb(109,74,255);fill-rule:nonzero;"/>
        <path d="M34,0C15.497,0 0.5,14.852 0.5,33.176L0.5,66.572C0.5,70.122 3.406,73 6.991,73L61.702,73C64.903,73 67.5,70.428 67.5,67.258L67.5,33.176C67.5,14.855 52.503,0 34,0ZM53.283,32.992L38.641,45.207C35.998,47.413 32.133,47.413 29.49,45.207L14.848,32.992C14.848,22.625 23.334,14.221 33.802,14.221L34.329,14.221C44.796,14.221 53.283,22.625 53.283,32.992Z" style="fill:url(#_Linear1);fill-rule:nonzero;"/>
        <path d="M38.664,45.355C37.138,46.579 33.168,48.292 29.504,45.355C25.841,42.418 18.237,35.924 14.893,33.045L14.911,33.045L14.848,32.992C14.848,22.625 23.334,14.221 33.802,14.221L34.329,14.221C44.796,14.221 53.283,22.625 53.283,32.992L53.219,33.045L53.276,33.045L53.276,73L61.702,73C64.903,73 67.5,70.428 67.5,67.258L67.5,33.176C67.5,14.855 52.503,0 34,0C15.497,0 0.5,14.852 0.5,33.176L0.5,35.274L21.217,52.914C22.744,54.354 26.757,56.37 30.595,52.914C34.433,49.459 37.574,46.435 38.664,45.355Z" style="fill:url(#_Radial2);fill-rule:nonzero;"/>
    </g>
    <defs>
        <linearGradient id="_Linear1" x1="0" y1="0" x2="1" y2="0" gradientUnits="userSpaceOnUse" gradientTransform="matrix(9.85984,-28.1373,28.1373,9.85984,2.89896,81.4231)"><stop offset="0" style="stop-color:rgb(40,176,232);stop-opacity:1"/><stop offset="1" style="stop-color:rgb(197,183,255);stop-opacity:0"/></linearGradient>
        <radialGradient id="_Radial2" cx="0" cy="0" r="1" gradientUnits="userSpaceOnUse" gradientTransform="matrix(-63.0498,-56.1536,45.8629,-51.4953,63.5497,79.0473)"><stop offset="0" style="stop-color:rgb(226,219,255);stop-opacity:1"/><stop offset="1" style="stop-color:rgb(109,74,255);stop-opacity:1"/></radialGradient>
    </defs>
</svg>
