<svg width="16" height="16" viewBox="0 0 16 16" fill="none" xmlns="http://www.w3.org/2000/svg">
<path fill-rule="evenodd" clip-rule="evenodd" d="M6.7166 1H9.29278L9.83484 2.72079C10.0427 2.79404 10.2448 2.87886 10.4428 2.97503L12.04 2.14318L13.8662 3.97057L13.035 5.56869C13.1312 5.7671 13.2161 5.96972 13.2894 6.178L15 6.72052V9.29956L13.2799 9.83276C13.2068 10.0403 13.1222 10.2423 13.0262 10.4401L13.8574 12.0382L12.0312 13.8656L10.434 13.0338C10.2359 13.13 10.0336 13.2149 9.82558 13.2882L9.2834 15H6.70782L6.16564 13.2882C5.95765 13.2149 5.75532 13.13 5.55718 13.0338L3.95998 13.8656L2.13382 12.0382L2.96503 10.4401C2.86877 10.2417 2.78388 10.0391 2.71059 9.83078L1 9.28826V6.71174L2.71059 6.16922C2.78388 5.96094 2.86877 5.75832 2.96503 5.55991L2.13323 3.96064L3.96989 2.13499L5.56596 2.96625C5.76409 2.87 5.96643 2.78513 6.17441 2.71184L6.7166 1ZM7.44883 2L6.97047 3.51034L6.71736 3.58632C6.40057 3.68142 6.09845 3.8085 5.80203 3.96884L5.56858 4.09511L4.15637 3.35961L3.35968 4.15152L4.09358 5.56254L3.9676 5.79574C3.80736 6.0924 3.68034 6.39477 3.58529 6.71183L3.5094 6.96496L2 7.44367V8.55633L3.5094 9.03504L3.58529 9.28817C3.68034 9.60523 3.80736 9.9076 3.9676 10.2043L4.09358 10.4375L3.35909 11.8496L4.14873 12.6398L5.5598 11.9049L5.79325 12.0312C6.08967 12.1915 6.39179 12.3186 6.70858 12.4137L6.96169 12.4897L7.44005 14H8.55117L9.02953 12.4897L9.28264 12.4137C9.59943 12.3186 9.90155 12.1915 10.198 12.0312L10.4314 11.9049L11.8425 12.6398L12.6321 11.8496L11.8976 10.4375L12.0236 10.2043C12.1839 9.9076 12.3109 9.60523 12.4059 9.28817L12.4824 9.03304L14 8.5626V7.45245L12.4906 6.97374L12.4147 6.72061C12.3197 6.40355 12.1926 6.10118 12.0324 5.80453L11.9064 5.57132L12.6409 4.15916L11.8513 3.36898L10.4402 4.1039L10.2067 3.97762C9.91033 3.81729 9.60821 3.6902 9.29142 3.5951L9.03783 3.51898L8.55935 2H7.44883ZM7.99561 5.81216C6.78861 5.81216 5.80959 6.79136 5.80959 8C5.80959 9.20864 6.78861 10.1878 7.99561 10.1878C9.20261 10.1878 10.1816 9.20864 10.1816 8C10.1816 6.79136 9.20261 5.81216 7.99561 5.81216ZM4.80959 8C4.80959 6.23972 6.23569 4.81216 7.99561 4.81216C9.75553 4.81216 11.1816 6.23972 11.1816 8C11.1816 9.76028 9.75553 11.1878 7.99561 11.1878C6.23569 11.1878 4.80959 9.76028 4.80959 8Z" fill="#17181C"/>
</svg>
