<svg width="16" height="16" viewBox="0 0 16 16" fill="none" xmlns="http://www.w3.org/2000/svg">
<g id="ic-eye">
<g id="icon">
<path fill-rule="evenodd" clip-rule="evenodd" d="M7.99999 5.49998C6.61928 5.49998 5.49999 6.61927 5.49999 7.99998C5.49999 9.38069 6.61928 10.5 7.99999 10.5C9.38071 10.5 10.5 9.38069 10.5 7.99998C10.5 7.33694 10.2366 6.70106 9.76776 6.23221C9.29892 5.76337 8.66304 5.49998 7.99999 5.49998ZM7.99999 9.49998C7.17157 9.49998 6.49999 8.82841 6.49999 7.99998C6.49999 7.17155 7.17157 6.49998 7.99999 6.49998C8.82842 6.49998 9.49999 7.17155 9.49999 7.99998C9.49999 8.82841 8.82842 9.49998 7.99999 9.49998Z" fill="#17181C"/>
<path fill-rule="evenodd" clip-rule="evenodd" d="M14.42 7.72998C12.85 5.30998 11.16 3.72998 7.99999 3.72998C4.83999 3.72998 3.14999 5.33998 1.57999 7.72998L1.39999 7.99998L1.57999 8.26998C3.14999 10.69 4.83999 12.27 7.99999 12.27C11.16 12.27 12.85 10.66 14.42 8.26998L14.6 7.99998L14.42 7.72998ZM7.99999 11.3C5.39999 11.3 3.99999 9.99998 2.59999 7.99998C3.99999 5.99998 5.39999 4.69998 7.99999 4.69998C10.6 4.69998 12 5.99998 13.4 7.99998C12 9.99998 10.6 11.3 7.99999 11.3Z" fill="#17181C"/>
</g>
</g>
</svg>
