<svg width="16" height="16" viewBox="0 0 16 16" fill="none" xmlns="http://www.w3.org/2000/svg">
<g id="ic-illustrative-view-html-code">
<g id="icon">
<path fill-rule="evenodd" clip-rule="evenodd" d="M4.8 9.83C5.017 9.94015 5.25665 9.99835 5.5 10C5.66952 10.0069 5.8389 9.98323 6 9.93C6.67538 9.71289 7.10403 9.04971 7.02464 8.34474C6.94525 7.63978 6.37983 7.08855 5.67308 7.02709C4.96633 6.96564 4.31425 7.411 4.11437 8.09168C3.91448 8.77236 4.22223 9.49957 4.85 9.83H4.8ZM5.06 8.27C5.11328 8.14244 5.21896 8.04404 5.35 8H5.5C5.5806 7.9995 5.65991 8.0202 5.73 8.06C5.85756 8.11328 5.95596 8.21896 6 8.35C6.05001 8.47173 6.05001 8.60827 6 8.73C5.93418 8.87156 5.80363 8.97227 5.65 9C5.52827 9.05001 5.39173 9.05001 5.27 9C5.12844 8.93418 5.02773 8.80363 5 8.65C4.96852 8.5204 4.99012 8.3836 5.06 8.27Z" fill="#0C0C14"/>
<path fill-rule="evenodd" clip-rule="evenodd" d="M1 2V15H15V2H1ZM14 14H2V12.79L4.2 11.49L6.56 12L10.45 10.05L14 12.75V14ZM10.55 8.92L14 11.5V6H2V11.63L4 10.43L6.44 11L10.55 8.92ZM14 5H2V3H10V4H11V3H12V4H13V3H14V5Z" fill="#0C0C14"/>
</g>
</g>
</svg>
