<svg width="22" height="22" viewBox="0 0 22 22" fill="none" xmlns="http://www.w3.org/2000/svg">
<path d="M11.75 15.5V8H8.75V9.5H10.25V15.5H8.75V17H13.25V15.5H11.75Z" fill="#0C0C14"/>
<path d="M11.75 6.5V5H10.25V6.5H11.75Z" fill="#0C0C14"/>
<path fill-rule="evenodd" clip-rule="evenodd" d="M0.5 11C0.5 5.20101 5.20101 0.5 11 0.5C13.7848 0.5 16.4555 1.60625 18.4246 3.57538C20.3938 5.54451 21.5 8.21523 21.5 11C21.5 16.799 16.799 21.5 11 21.5C5.20101 21.5 0.5 16.799 0.5 11ZM2 11C2 15.9706 6.02944 20 11 20C13.3869 20 15.6761 19.0518 17.364 17.364C19.0518 15.6761 20 13.3869 20 11C20 6.02944 15.9706 2 11 2C6.02944 2 2 6.02944 2 11Z" fill="#0C0C14"/>
</svg>
