<svg width="24" height="24" viewBox="0 0 24 24" fill="none" xmlns="http://www.w3.org/2000/svg">
<path fill-rule="evenodd" clip-rule="evenodd" d="M7.98 14.46C8.95341 14.4661 9.83408 13.8836 10.2094 12.9854C10.5847 12.0872 10.3803 11.0513 9.69201 10.363C9.00369 9.67467 7.96778 9.47029 7.06961 9.84561C6.17144 10.2209 5.58894 11.1016 5.595 12.075C5.595 13.3922 6.6628 14.46 7.98 14.46ZM7.98 11.175C8.42847 11.2333 8.76405 11.6153 8.76405 12.0675C8.76405 12.5197 8.42847 12.9017 7.98 12.96C7.53154 12.9017 7.19595 12.5197 7.19595 12.0675C7.19595 11.6153 7.53154 11.2333 7.98 11.175Z" fill="#657EE4"/>
<path d="M13.5 12H19.5V13.5H13.5V12Z" fill="#657EE4"/>
<path d="M19.5 15H13.5V16.5H19.5V15Z" fill="#657EE4"/>
<path fill-rule="evenodd" clip-rule="evenodd" d="M1.5 21V6H22.5V21H1.5ZM5.46 18.735V19.5H10.5V18.735L9.15 17.355H6.81L5.46 18.735ZM21 19.5H12V18.12L9.78 15.855H6.18L3.96 18.12V19.5H3V7.5H21V19.5Z" fill="#657EE4"/>
</svg>
