<svg width="24" height="24" viewBox="0 0 24 24" fill="none" xmlns="http://www.w3.org/2000/svg">
<path fill-rule="evenodd" clip-rule="evenodd" d="M1.5 3V22.5H22.5V3H1.5ZM21 21H3V19.185L6.3 17.235L9.84 18L15.675 15.075L21 19.125V21ZM15.825 13.38L21 17.25V9H3V17.445L6 15.645L9.66 16.5L15.825 13.38ZM21 7.5H3V4.5H15V6H16.5V4.5H18V6H19.5V4.5H21V7.5Z" fill="#657EE4"/>
<path fill-rule="evenodd" clip-rule="evenodd" d="M8.25 15C9.49264 15 10.5 13.9926 10.5 12.75C10.5 11.5074 9.49264 10.5 8.25 10.5C7.00736 10.5 6 11.5074 6 12.75C6 13.9926 7.00736 15 8.25 15ZM8.25 13.5C8.66421 13.5 9 13.1642 9 12.75C9 12.3358 8.66421 12 8.25 12C7.83579 12 7.5 12.3358 7.5 12.75C7.5 13.1642 7.83579 13.5 8.25 13.5Z" fill="#657EE4"/>
</svg>
