<svg width="32" height="32" viewBox="0 0 32 32" fill="none" xmlns="http://www.w3.org/2000/svg">
<path d="M12.9864 4.0315C14.3445 1.75773 17.6381 1.75773 18.9961 4.0315L31.232 24.5182C32.6254 26.8512 30.9445 29.8129 28.2272 29.8129H3.75539C1.03801 29.8129 -0.642844 26.8512 0.75053 24.5182L12.9864 4.0315Z" fill="url(#paint0_linear_4081_29778)"/>
<path d="M14.5387 12.1944C14.5432 11.3954 15.1922 10.75 15.9912 10.75C16.7903 10.75 17.4392 11.3954 17.4437 12.1944L17.4829 19.25C17.4875 20.0771 16.8183 20.75 15.9912 20.75C15.1641 20.75 14.4949 20.0771 14.4995 19.25L14.5387 12.1944Z" fill="white"/>
<path d="M17.4912 23.75C17.4912 24.5784 16.8196 25.25 15.9912 25.25C15.1628 25.25 14.4912 24.5784 14.4912 23.75C14.4912 22.9216 15.1628 22.25 15.9912 22.25C16.8196 22.25 17.4912 22.9216 17.4912 23.75Z" fill="white"/>
<defs>
<linearGradient id="paint0_linear_4081_29778" x1="15.9913" y1="2.09253" x2="15.9913" y2="42.104" gradientUnits="userSpaceOnUse">
<stop stop-color="#FFB800"/>
<stop offset="1" stop-color="#FF8419"/>
</linearGradient>
</defs>
</svg>
