<svg width="134" height="36" viewBox="0 0 134 36" fill="none" xmlns="http://www.w3.org/2000/svg">
<g clip-path="url(#clip0_53_676)">
<path d="M38 21.259V24.924H40.5591V21.4191C40.5591 21.0789 40.6927 20.7502 40.9344 20.51C41.1732 20.2699 41.5002 20.1327 41.8386 20.1327H44.463C45.6857 20.1327 46.86 19.6438 47.7244 18.7719C48.5888 17.9028 49.075 16.7221 49.075 15.4928C49.075 14.2635 48.5888 13.0828 47.7244 12.2109C46.86 11.3418 45.6857 10.8529 44.4602 10.8529H38V15.4328H40.5591V13.2744H44.2896C44.8697 13.2744 45.4241 13.5059 45.8336 13.9176C46.243 14.3293 46.4733 14.8867 46.4733 15.4699C46.4733 16.0531 46.243 16.6106 45.8336 17.0223C45.4241 17.4339 44.8697 17.6655 44.2896 17.6655H41.5798C41.1107 17.6655 40.6444 17.757 40.2122 17.9399C39.7771 18.12 39.3847 18.3859 39.0521 18.7204C38.7194 19.0549 38.4578 19.4523 38.2758 19.8868C38.0938 20.3185 38 20.7873 38 21.259Z" fill="white"/>
<path d="M49.4703 24.924V19.3408C49.4703 17.0623 50.7925 15.2498 53.4397 15.2498C53.8633 15.2441 54.287 15.2898 54.7022 15.3899V17.6855C54.4008 17.6655 54.142 17.6655 54.0197 17.6655C52.6179 17.6655 52.0151 18.3116 52.0151 19.6209V24.924H49.4703Z" fill="white"/>
<path d="M55.4641 20.1899C55.4641 17.3882 57.5682 15.2527 60.4969 15.2527C63.4256 15.2527 65.5297 17.3882 65.5297 20.1899C65.5297 22.9915 63.4256 25.1471 60.4969 25.1471C57.5682 25.1471 55.4641 22.9886 55.4641 20.1899ZM63.0218 20.1899C63.0218 18.5975 61.9584 17.4683 60.4969 17.4683C59.0325 17.4683 57.972 18.5946 57.972 20.1899C57.972 21.8022 59.0354 22.9115 60.4969 22.9115C61.9612 22.9115 63.0218 21.7994 63.0218 20.1899Z" fill="white"/>
<path d="M73.6676 20.1899C73.6676 17.3882 75.7717 15.2527 78.7004 15.2527C81.6263 15.2527 83.7304 17.3882 83.7304 20.1899C83.7304 22.9915 81.6263 25.1471 78.7004 25.1471C75.7717 25.1471 73.6676 22.9886 73.6676 20.1899ZM81.2225 20.1899C81.2225 18.5975 80.1591 17.4683 78.6976 17.4683C77.2361 17.4683 76.1726 18.5946 76.1726 20.1899C76.1726 21.8022 77.2361 22.9115 78.6976 22.9115C80.1591 22.9115 81.2225 21.7994 81.2225 20.1899Z" fill="white"/>
<path d="M85.0526 24.9241V19.5438C85.0526 17.0452 86.6364 15.2498 89.4627 15.2498C92.2692 15.2498 93.8529 17.0423 93.8529 19.5438V24.9241H91.328V19.7439C91.328 18.3545 90.7053 17.4854 89.4627 17.4854C88.2202 17.4854 87.5975 18.3516 87.5975 19.7439V24.9241H85.0526Z" fill="white"/>
<path d="M72.9056 17.4881H70.1588V21.0159C70.1588 22.2452 70.5996 22.8084 71.862 22.8084C71.9815 22.8084 72.2829 22.8084 72.6639 22.7884V24.8639C72.1435 25.004 71.6829 25.0869 71.1796 25.0869C69.0556 25.0869 67.6112 23.7976 67.6112 21.359V17.4881H65.9051V15.4527H66.3316C66.4994 15.4527 66.6671 15.4184 66.8207 15.3555C66.9771 15.2897 67.1164 15.1954 67.2358 15.0753C67.3553 14.9552 67.4491 14.8152 67.5145 14.6579C67.5799 14.5007 67.6112 14.3349 67.6112 14.1662V12.2479H70.156V15.4527H72.9027V17.4881H72.9056Z" fill="white"/>
<path d="M98.8823 11.216H102.457L105.808 19.4391C106.107 20.1282 106.362 20.8315 106.577 21.5492H106.612C106.827 20.8315 107.083 20.1253 107.381 19.4391L110.732 11.216H114.307V24.9288H111.717V15.7421C111.714 15.4391 111.729 15.136 111.76 14.8358H111.717C111.637 15.1589 111.531 15.4762 111.396 15.7822L107.683 24.7687H105.535L101.811 15.7822C101.676 15.4734 101.561 15.1589 101.469 14.8358H101.429C101.458 15.136 101.472 15.4391 101.469 15.7421V24.9316H98.8823V11.216Z" fill="white"/>
<path d="M123.165 15.8823C123.915 16.274 124.535 16.8744 124.951 17.6092C125.396 18.407 125.62 19.3105 125.603 20.2225V24.9288H123.335L123.174 23.5164C122.878 24.0281 122.444 24.4456 121.922 24.7258C121.362 25.0146 120.736 25.1604 120.104 25.1461C119.297 25.1547 118.505 24.9402 117.813 24.5256C117.112 24.1025 116.544 23.4963 116.165 22.7758C115.751 21.981 115.545 21.0975 115.562 20.2025C115.55 19.3219 115.777 18.4556 116.217 17.6893C116.647 16.9459 117.27 16.334 118.025 15.9194C118.806 15.4877 119.685 15.2647 120.578 15.2761C121.477 15.259 122.367 15.4677 123.165 15.8823ZM122.335 22.2126C122.829 21.7436 123.073 21.0832 123.073 20.2025C123.105 19.482 122.849 18.7787 122.367 18.244C122.137 18.0038 121.862 17.8151 121.554 17.6836C121.247 17.5521 120.92 17.4863 120.587 17.4863C120.254 17.4863 119.923 17.5521 119.619 17.6836C119.312 17.8151 119.036 18.0038 118.806 18.244C118.347 18.7929 118.094 19.4849 118.094 20.1997C118.094 20.9145 118.347 21.6064 118.806 22.1554C119.033 22.4013 119.309 22.5928 119.619 22.7244C119.926 22.853 120.259 22.9188 120.592 22.9102C120.914 22.9159 121.236 22.8559 121.537 22.7358C121.833 22.6186 122.106 22.4384 122.335 22.2126Z" fill="white"/>
<path d="M127.001 13.5206C126.849 13.3805 126.728 13.2118 126.645 13.0231C126.562 12.8344 126.522 12.6314 126.525 12.4255C126.522 12.2196 126.565 12.0138 126.645 11.8222C126.728 11.6306 126.849 11.4591 127.001 11.319C127.303 11.0216 127.71 10.8529 128.135 10.8529C128.56 10.8529 128.968 11.0216 129.27 11.319C129.422 11.4619 129.542 11.6335 129.623 11.8222C129.703 12.0138 129.746 12.2168 129.743 12.4255C129.746 12.6314 129.706 12.8344 129.623 13.0231C129.542 13.2118 129.422 13.3805 129.27 13.5206C128.965 13.8122 128.557 13.9752 128.135 13.9752C127.71 13.9752 127.306 13.8122 127.001 13.5206ZM129.413 24.9288H126.863V15.4791H129.413V24.9288Z" fill="white"/>
<path d="M133.824 24.9288H131.271V11.216H133.824V24.9288Z" fill="white"/>
<path fill-rule="evenodd" clip-rule="evenodd" d="M17.7801 14.3609L17.7816 14.3622L10 23L0 11.9929V7.24491C0 6.69969 0.635467 6.4014 1.05491 6.74973L12.1495 15.9633C13.2223 16.8543 14.7777 16.8543 15.8506 15.9633L17.7801 14.3609Z" fill="url(#paint0_linear_53_676)"/>
<path d="M22 10.8565L17.7801 14.361L17.7816 14.3622L12.1943 19.2977C11.2425 20.1385 9.81982 20.1597 8.84341 19.3476L0 11.9929V26.1035C0 27.7032 1.29683 29.0001 2.89655 29.0001H22L24 19.9283L22 10.8565Z" fill="url(#paint1_radial_53_676)"/>
<path fill-rule="evenodd" clip-rule="evenodd" d="M22 10.86V29L25.1034 29C26.7032 29 28 27.7031 28 26.1035V7.24493C28 6.69971 27.3645 6.40136 26.9451 6.74976L22 10.86Z" fill="url(#paint2_linear_53_676)"/>
</g>
<defs>
<linearGradient id="paint0_linear_53_676" x1="10.507" y1="23.1523" x2="1.11629" y2="-9.46948" gradientUnits="userSpaceOnUse">
<stop stop-color="#E3D9FF"/>
<stop offset="1" stop-color="#7341FF"/>
</linearGradient>
<radialGradient id="paint1_radial_53_676" cx="0" cy="0" r="1" gradientUnits="userSpaceOnUse" gradientTransform="translate(23.8954 13.0774) scale(27.9882 26.381)">
<stop offset="0.5561" stop-color="#6D4AFF"/>
<stop offset="0.9944" stop-color="#AA8EFF"/>
</radialGradient>
<linearGradient id="paint2_linear_53_676" x1="37.0552" y1="43.5221" x2="15.4546" y2="-3.07472" gradientUnits="userSpaceOnUse">
<stop offset="0.271" stop-color="#E3D9FF"/>
<stop offset="1" stop-color="#7341FF"/>
</linearGradient>
<clipPath id="clip0_53_676">
<rect width="134" height="36" fill="white"/>
</clipPath>
</defs>
</svg>
