<svg width="270" height="104" viewBox="0 0 270 104" fill="none" xmlns="http://www.w3.org/2000/svg">
<path d="M179.366 102.5H3.05083C1.33939 102.5 0 101.161 0 99.4493V97.7378C0 96.0264 1.33939 94.687 3.05083 94.687H179.366C181.077 94.687 182.417 96.0264 182.417 97.7378V99.4493C182.417 101.161 181.003 102.5 179.366 102.5Z" fill="#B0D4E5"/>
<path d="M164.229 94.6867H16.6963V9.42924C16.6963 4.51816 20.7144 0.5 25.6255 0.5H155.3C160.211 0.5 164.229 4.51816 164.229 9.42924V94.6867Z" fill="url(#paint0_radial_4147_15491)"/>
<path d="M157.311 94.6862H24.3628V10.8426C24.3628 9.65203 25.3301 8.68469 26.5207 8.68469H155.079C156.269 8.68469 157.237 9.65203 157.237 10.8426V94.6862H157.311Z" fill="url(#paint1_linear_4147_15491)"/>
<rect opacity="0.5" x="29" y="66" width="123" height="24" rx="3" fill="white"/>
<rect x="29" y="14" width="123" height="48" rx="3" fill="white"/>
<path d="M46.686 70.0266H55.3141C57.3414 70.0266 58.9735 71.6587 58.9735 73.686V82.3141C58.9735 84.3414 57.3414 85.9734 55.3141 85.9734H46.686C44.6587 85.9734 43.0266 84.3414 43.0266 82.3141V73.686C43.0266 71.6587 44.6587 70.0266 46.686 70.0266Z" fill="url(#paint2_linear_4147_15491)"/>
<path d="M46.5205 74.5615C46.4365 74.5615 46.3573 74.576 46.2824 74.6058L47.783 76.1506L49.3001 77.7232L49.3278 77.7564L49.4164 77.845L49.505 77.9391L50.8062 79.2735C50.8279 79.287 50.8907 79.3452 50.9397 79.3697C51.0029 79.4013 51.0714 79.4304 51.142 79.4329C51.2182 79.4356 51.296 79.4138 51.3646 79.3805C51.4159 79.3555 51.4387 79.3197 51.4984 79.2735L53.0045 77.7176L55.9945 74.639C55.9003 74.5879 55.796 74.5615 55.6844 74.5615H46.5205ZM46.0609 74.7497C45.9009 74.9014 45.8007 75.1293 45.8007 75.3865V80.4585C45.8007 80.6667 45.8676 80.8559 45.9779 81.0011L46.1883 80.8018L47.7553 79.2791L49.1451 77.9336L49.1174 77.9003L47.5947 76.3333L46.072 74.7608L46.0609 74.7497ZM56.1938 74.7996L53.1927 77.9003L53.165 77.928L54.6102 79.3289L56.1772 80.8516L56.2714 80.9402C56.3557 80.8048 56.4043 80.6381 56.4043 80.4585V75.3865C56.4043 75.1572 56.3248 74.9492 56.1938 74.7996ZM49.3223 78.1163L47.938 79.4618L46.3655 80.9845L46.1661 81.1783C46.2712 81.246 46.3908 81.2891 46.5205 81.2891H55.6844C55.8403 81.2891 55.9818 81.2291 56.0997 81.134L56 81.0343L54.4275 79.5116L52.9823 78.1163L51.6811 79.4563C51.6107 79.503 51.5636 79.5547 51.4949 79.5865C51.3842 79.6377 51.2629 79.681 51.141 79.6791C51.0187 79.6773 50.8988 79.6294 50.7891 79.5755C50.7341 79.5484 50.7047 79.5215 50.6401 79.4673L49.3223 78.1163Z" fill="white"/>
<g clip-path="url(#clip0_4147_15491)">
<path d="M126.645 73.4143H126.646C127.138 71.6949 129.281 70.8555 131.465 70.8555C132.974 70.8555 134.329 71.3334 135.258 72.0918C134.682 72.1203 134.135 72.2329 133.634 72.4146C134.385 72.6933 135.029 73.1225 135.507 73.6535C135.19 73.5987 134.861 73.5699 134.524 73.5699C134.488 73.5699 134.452 73.5702 134.415 73.5709C135.283 74.8295 135.792 76.3554 135.792 78C135.792 82.3135 132.295 85.8103 127.981 85.8103C123.734 85.8103 120.171 82.2543 120.171 78C120.171 77.3281 120.261 76.6341 120.434 75.9837C120.479 75.8471 120.543 75.7161 120.627 75.6681C120.732 75.6081 120.828 75.787 120.844 75.8452C120.958 76.275 121.112 76.6906 121.302 77.0887C121.286 76.1969 121.667 75.3848 122.191 74.6821C122.54 74.2138 122.864 73.7796 123.014 72.5271C123.024 72.443 123.103 72.3825 123.184 72.4089C124.321 72.7812 124.929 74.6748 124.834 76.2583C125.463 76.3481 125.46 75.6919 125.46 75.6919C125.259 75.0747 125.393 73.9275 126.643 73.4143H126.645Z" fill="url(#paint3_linear_4147_15491)"/>
<path opacity="0.9" d="M135.536 76.011C135.726 80.3067 132.195 84.0103 127.888 84.0103C123.857 84.0103 120.554 80.8945 120.255 76.9398C120.203 77.3052 120.174 77.6783 120.171 78.0576C120.202 82.2895 123.757 85.8103 127.981 85.8103C132.295 85.8103 135.792 82.3135 135.792 78C135.792 77.3126 135.703 76.646 135.536 76.011Z" fill="url(#paint4_radial_4147_15491)"/>
<g style="mix-blend-mode:screen">
<path d="M127.792 73.9835C127.707 73.8346 127.319 73.6144 127.149 73.576C127.792 71.5174 131.066 70.8854 133.07 71.2497C133.904 71.4012 134.942 71.8559 135.258 72.0918C134.33 71.3334 132.975 70.8555 131.466 70.8555C129.282 70.8555 127.138 71.6949 126.647 73.4143H126.645H126.643C125.393 73.9275 125.26 75.0751 125.46 75.6922C125.653 74.9561 126.571 74.0514 127.792 73.9835Z" fill="url(#paint5_radial_4147_15491)"/>
</g>
<path d="M130.061 72.5619C128.306 72.9071 127.733 73.0199 127.146 73.5781C127.805 71.8322 129.489 71.4785 131.494 72.2742C130.942 72.3884 130.47 72.4814 130.061 72.5619Z" fill="url(#paint6_linear_4147_15491)"/>
<path d="M120.595 75.7446C120.116 77.7069 120.486 80.0134 122.664 81.949C122.015 81.2402 121.224 78.6226 122.971 76.7525C123.088 76.6265 123.291 76.7192 123.297 76.8914C123.441 80.7778 126.577 83.1514 130.192 82.7076C129.072 82.6446 125.367 81.3471 128.123 80.8337C129.564 80.5654 131.822 80.1446 131.822 78.1182C131.822 74.8328 129.282 73.8722 127.742 74.0151C126.688 74.113 125.749 74.7819 125.46 75.6916C125.571 76.0503 125.129 76.3014 124.834 76.2593C124.929 74.6758 124.321 72.7812 123.184 72.4088C123.103 72.3825 123.024 72.443 123.014 72.5271C122.864 73.7796 122.54 74.2137 122.191 74.6821C121.667 75.3848 121.286 76.1968 121.302 77.0887C121.112 76.6906 120.958 76.2749 120.844 75.8452C120.831 75.797 120.761 75.6626 120.677 75.6562C120.631 75.6528 120.607 75.6974 120.595 75.7446Z" fill="url(#paint7_radial_4147_15491)"/>
<g style="mix-blend-mode:screen">
<path d="M127.156 81.0327C129.277 82.7547 133.542 81.4637 133.542 77.2765C131.82 79.8867 129.627 81.687 127.156 81.0327Z" fill="url(#paint8_linear_4147_15491)"/>
</g>
<g style="mix-blend-mode:screen">
<path d="M122.971 76.7525C123.015 76.7045 123.072 76.6881 123.126 76.6956C121.563 78.6023 122.824 81.9512 123.689 82.7739C123.738 82.9109 122.868 82.1985 122.749 82.0316C122.09 81.4731 121.147 78.7053 122.971 76.7525Z" fill="url(#paint9_linear_4147_15491)"/>
</g>
<path d="M127.982 81.1904C130.103 81.1904 131.823 79.7872 131.823 78.0562C131.823 76.3252 130.103 74.922 127.982 74.922C126.172 74.922 124.14 76.0994 124.14 78.102C124.141 81.1965 127.411 82.9768 130.197 82.7073C129.988 82.683 128.682 82.6136 127.799 81.6152C127.72 81.5252 127.582 81.3682 127.644 81.2661C127.707 81.1641 127.879 81.1904 127.982 81.1904Z" fill="url(#paint10_linear_4147_15491)"/>
<path opacity="0.6" d="M131.404 76.6322L128.369 79.5368C128.099 79.7282 127.812 79.7423 127.529 79.5685L124.552 76.6427C124.636 76.5075 124.732 76.3779 124.838 76.2549C124.945 76.3552 125.049 76.4525 125.15 76.5474C125.932 77.28 126.564 77.8721 127.455 78.6325C127.858 78.9758 127.983 78.969 128.377 78.6325C129.396 77.7623 130.142 77.1038 131.111 76.2385C131.22 76.3633 131.318 76.4948 131.404 76.6322Z" fill="white"/>
<mask id="mask0_4147_15491" style="mask-type:luminance" maskUnits="userSpaceOnUse" x="124" y="76" width="8" height="7">
<path d="M131.823 78.0561C131.823 79.7871 130.103 81.1903 127.982 81.1903C127.88 81.1903 127.707 81.164 127.645 81.266C127.582 81.3681 127.72 81.5251 127.8 81.6151C128.629 82.5532 129.832 82.6711 130.148 82.7021C130.168 82.7041 130.185 82.7057 130.198 82.7072C127.411 82.9767 124.142 81.1964 124.141 78.1019C124.141 77.5512 124.294 77.0629 124.554 76.6443L127.546 79.3617C127.759 79.5551 128.118 79.5551 128.331 79.3617L131.379 76.5928C131.663 77.0296 131.823 77.5276 131.823 78.0561Z" fill="white"/>
</mask>
<g mask="url(#mask0_4147_15491)">
<path opacity="0.7" d="M132.96 74.4413H123.251V83.244H132.96V74.4413Z" fill="url(#paint11_linear_4147_15491)"/>
<g filter="url(#filter0_f_4147_15491)">
<path fill-rule="evenodd" clip-rule="evenodd" d="M127.091 79.3802C126.525 78.7914 124.831 76.8357 124.831 76.8357L124.962 76.8413L127.614 78.8223C127.813 78.9667 128.096 78.9652 128.293 78.8189L130.894 76.8439L131.032 76.8331C131.032 76.8331 129.393 78.7426 128.765 79.3717C128.138 80.0007 127.656 79.969 127.091 79.3802Z" fill="#458FCD"/>
</g>
</g>
<path d="M128.52 73.3543C128.931 73.2248 128.895 72.8179 128.895 72.8179C128.895 72.8179 128.69 72.5759 128.282 72.71C127.901 72.8356 127.842 73.107 127.842 73.107C127.842 73.107 128.05 73.5023 128.52 73.3543Z" fill="white"/>
</g>
<path d="M96.2971 71H87.7017C87.3166 71 86.9998 71.3169 86.9998 71.702V72.5L91.8444 74L96.9991 72.5V71.702C96.9991 71.3169 96.6822 71 96.2971 71Z" fill="#0364B8"/>
<path d="M97.8241 78.7025C97.8973 78.4723 97.9558 78.2377 97.9991 78C97.9991 77.8811 97.9356 77.7709 97.8326 77.7115L97.8261 77.708L97.8241 77.7071L92.4054 74.62C92.382 74.6049 92.3578 74.591 92.3329 74.5785C92.1231 74.4745 91.8763 74.4745 91.6665 74.5785C91.6416 74.591 91.6174 74.6048 91.594 74.62L86.1753 77.7071L86.1733 77.708L86.1668 77.7115C86.0639 77.7709 86.0003 77.8811 86.0004 78C86.0436 78.2377 86.1021 78.4723 86.1753 78.7025L91.9209 82.905L97.8241 78.7025Z" fill="#0A2767"/>
<path d="M93.9993 72.5H90.4995L89.489 74.0001L90.4995 75.5L93.9993 78.5H96.999V75.5L93.9993 72.5Z" fill="#28A8EA"/>
<path fill-rule="evenodd" clip-rule="evenodd" d="M86.9998 72.5H90.4995V75.5H86.9998V72.5Z" fill="#0078D4"/>
<path fill-rule="evenodd" clip-rule="evenodd" d="M93.9993 72.5H96.9991V75.5H93.9993V72.5Z" fill="#50D9FF"/>
<path d="M93.9993 78.5L90.4995 75.5H86.9998V78.5L90.4995 81.5L95.9152 82.384L93.9993 78.5Z" fill="#0364B8"/>
<path fill-rule="evenodd" clip-rule="evenodd" d="M90.4995 75.5H93.9993V78.5H90.4995V75.5Z" fill="#0078D4"/>
<path fill-rule="evenodd" clip-rule="evenodd" d="M86.9998 78.5H90.4995V81.5H86.9998V78.5Z" fill="#064A8C"/>
<path fill-rule="evenodd" clip-rule="evenodd" d="M93.9993 78.5H96.9991V81.5H93.9993V78.5Z" fill="#0078D4"/>
<path d="M92.0949 82.6091L86.1982 78.3091L86.4452 77.8746C86.4452 77.8746 91.8174 80.9346 91.8993 80.9806C91.9673 81.0079 92.0436 81.0057 92.1099 80.9746C92.1863 80.9316 97.5755 77.8596 97.5755 77.8596L97.8235 78.2941L92.0949 82.6091Z" fill="#0A2767" fill-opacity="0.498039"/>
<path d="M97.8325 78.2886L97.826 78.2926L97.8245 78.2936L92.4059 81.3806C92.1872 81.5216 91.9103 81.5388 91.6759 81.4261L93.5632 83.9566L97.69 84.8551V84.8571C97.8846 84.7164 98 84.4903 98 84.2501V78.0001C98 78.119 97.9364 78.2292 97.8335 78.2886H97.8325Z" fill="#1490DF"/>
<path d="M97.999 84.2502V83.8813L93.0078 81.0372L92.4053 81.3802C92.1868 81.5212 91.9098 81.5385 91.6754 81.4257L93.5628 83.9563L97.6895 84.8547V84.8567C97.8841 84.7159 97.9995 84.4899 97.9995 84.2497L97.999 84.2502Z" fill="black" fill-opacity="0.047059"/>
<path d="M97.974 84.4417L92.5028 81.3247L92.4053 81.3802C92.1868 81.5212 91.9098 81.5385 91.6754 81.4257L93.5628 83.9562L97.6895 84.8547V84.8567C97.8295 84.7552 97.9303 84.6083 97.9745 84.4412L97.974 84.4417Z" fill="black" fill-opacity="0.098039"/>
<path d="M86.1746 78.2951V78.2901H86.1697L86.1546 78.2801C86.0576 78.2204 85.9987 78.114 85.9996 78.0001V84.2511C85.9996 84.662 86.3378 85.0001 86.7487 85.0001H97.249C97.3114 84.9995 97.3736 84.9911 97.434 84.9751C97.4653 84.9697 97.4956 84.9595 97.524 84.9451C97.5346 84.9441 97.5448 84.9406 97.554 84.9351C97.5948 84.9184 97.6335 84.8966 97.669 84.8701L97.689 84.8551L86.1746 78.2951Z" fill="#28A8EA"/>
<path d="M90.9995 82.3337V74.1672C90.9984 73.802 90.6982 73.5018 90.333 73.5007H87.0152V77.2287L86.1747 77.7077L86.1728 77.7087L86.1663 77.7122C86.0633 77.7717 85.9998 77.8819 85.9998 78.0007V83.0022V83.0002H90.333C90.6982 82.9992 90.9984 82.6989 90.9995 82.3337Z" fill="black" fill-opacity="0.098039"/>
<path d="M90.4995 82.8336V74.6671C90.4984 74.3019 90.1982 74.0018 89.8331 74.0006H87.0152V77.2286L86.1747 77.7076L86.1728 77.7086L86.1663 77.7121C86.0633 77.7716 85.9998 77.8818 85.9998 78.0006V83.5022V83.5001H89.8331C90.1982 83.499 90.4984 83.1989 90.4995 82.8336ZM90.4995 81.8336V74.6671C90.4984 74.3019 90.1982 74.0018 89.8331 74.0006H87.0152V77.2286L86.1747 77.7076L86.1728 77.7086L86.1663 77.7121C86.0633 77.7716 85.9998 77.8818 85.9998 78.0006V82.5021V82.5001H89.8331C90.1982 82.499 90.4984 82.1989 90.4995 81.8336ZM89.9995 81.8336V74.6671C89.9984 74.3019 89.6983 74.0018 89.3331 74.0006H87.0152V77.2286L86.1747 77.7076L86.1728 77.7086L86.1663 77.7121C86.0633 77.7716 85.9998 77.8818 85.9998 78.0006V82.5021V82.5001H89.3331C89.6983 82.499 89.9984 82.1989 89.9995 81.8336Z" fill="black" fill-opacity="0.2"/>
<path d="M82.6665 74.0002H89.3325C89.6981 74.0002 89.999 74.3011 89.999 74.6667V81.3332C89.999 81.6988 89.6981 81.9997 89.3325 81.9997H82.6665C82.3009 81.9997 82 81.6988 82 81.3332V74.6667C82 74.3011 82.3009 74.0002 82.6665 74.0002Z" fill="#0078D4"/>
<path d="M83.9334 76.7341C84.1105 76.3567 84.3964 76.0409 84.7543 75.8272C85.1509 75.6001 85.6025 75.487 86.0593 75.5002C86.4823 75.4909 86.8999 75.5981 87.2662 75.8102C87.6108 76.0154 87.8884 76.3165 88.0651 76.6767C88.2575 77.0735 88.3535 77.5102 88.3451 77.9512C88.3545 78.4121 88.2556 78.8688 88.0567 79.2847C87.8761 79.6576 87.5901 79.9696 87.2342 80.1817C86.8537 80.4004 86.4205 80.5106 85.9817 80.5002C85.5495 80.5105 85.1227 80.402 84.7479 80.1867C84.4005 79.981 84.1196 79.6796 83.9389 79.3187C83.7452 78.9275 83.6481 78.4956 83.6559 78.0592C83.6473 77.6022 83.7424 77.1492 83.9339 76.7341H83.9334ZM84.8083 78.8632C84.9028 79.1018 85.063 79.3089 85.2703 79.4601C85.4813 79.6079 85.7343 79.6842 85.9917 79.6777C86.266 79.6885 86.5365 79.6099 86.7622 79.4537C86.967 79.3024 87.123 79.0942 87.2107 78.8552C87.3093 78.5887 87.3579 78.3062 87.3542 78.0222C87.3572 77.7356 87.3116 77.4505 87.2192 77.1792C87.1377 76.935 86.9873 76.7194 86.7862 76.5587C86.5665 76.3946 86.2967 76.3113 86.0228 76.3227C85.7597 76.3159 85.5011 76.3925 85.2843 76.5417C85.0731 76.6935 84.9093 76.9023 84.8123 77.1437C84.5977 77.6964 84.5965 78.3097 84.8088 78.8632H84.8083Z" fill="white"/>
<path fill-rule="evenodd" clip-rule="evenodd" d="M37 24C37 22.3431 38.3431 21 40 21H42C43.6569 21 45 22.3431 45 24V26C45 27.6569 43.6569 29 42 29H40C38.3431 29 37 27.6569 37 26V24ZM47 22.5C47 21.6716 47.6716 21 48.5 21H89.5C90.3284 21 91 21.6716 91 22.5C91 23.3284 90.3284 24 89.5 24H48.5C47.6716 24 47 23.3284 47 22.5ZM48.5 26C47.6716 26 47 26.6716 47 27.5C47 28.3284 47.6716 29 48.5 29H81.5C82.3284 29 83 28.3284 83 27.5C83 26.6716 82.3284 26 81.5 26H48.5ZM37 36C37 34.3431 38.3431 33 40 33H42C43.6569 33 45 34.3431 45 36V38C45 39.6569 43.6569 41 42 41H40C38.3431 41 37 39.6569 37 38V36ZM40 45C38.3431 45 37 46.3431 37 48V50C37 51.6569 38.3431 53 40 53H42C43.6569 53 45 51.6569 45 50V48C45 46.3431 43.6569 45 42 45H40ZM47 34.5C47 33.6716 47.6716 33 48.5 33H89.5C90.3284 33 91 33.6716 91 34.5C91 35.3284 90.3284 36 89.5 36H48.5C47.6716 36 47 35.3284 47 34.5ZM48.5 45C47.6716 45 47 45.6716 47 46.5C47 47.3284 47.6716 48 48.5 48H89.5C90.3284 48 91 47.3284 91 46.5C91 45.6716 90.3284 45 89.5 45H48.5ZM47 39.5C47 38.6716 47.6716 38 48.5 38H81.5C82.3284 38 83 38.6716 83 39.5C83 40.3284 82.3284 41 81.5 41H48.5C47.6716 41 47 40.3284 47 39.5ZM48.5 50C47.6716 50 47 50.6716 47 51.5C47 52.3284 47.6716 53 48.5 53H81.5C82.3284 53 83 52.3284 83 51.5C83 50.6716 82.3284 50 81.5 50H48.5Z" fill="#B0D4E5"/>
<circle cx="176" cy="53.5" r="2" fill="#B0D4E5"/>
<circle cx="184" cy="53.5" r="2" fill="#B0D4E5"/>
<circle cx="192" cy="53.5" r="2" fill="#B0D4E5"/>
<circle cx="200" cy="53.5" r="2" fill="#B0D4E5"/>
<path d="M233.817 30.5C223.274 30.5 214.729 39.0451 214.729 49.5874V68.8014C214.729 70.8441 216.385 72.5 218.428 72.5H249.601C251.424 72.5 252.904 71.0203 252.904 69.1965V49.5874C252.904 39.0465 244.359 30.5 233.817 30.5ZM244.804 49.4814L236.461 56.5096C234.955 57.7787 232.753 57.7787 231.247 56.5096L222.904 49.4814C222.904 43.5172 227.74 38.6817 233.704 38.6817H234.004C239.968 38.6817 244.804 43.5172 244.804 49.4814Z" fill="#6D4AFF"/>
<path d="M233.817 30.5C223.274 30.5 214.729 39.0451 214.729 49.5874V68.8014C214.729 70.8441 216.385 72.5 218.428 72.5H249.601C251.424 72.5 252.904 71.0203 252.904 69.1965V49.5874C252.904 39.0465 244.359 30.5 233.817 30.5ZM244.804 49.4814L236.461 56.5096C234.955 57.7787 232.753 57.7787 231.247 56.5096L222.904 49.4814C222.904 43.5172 227.74 38.6817 233.704 38.6817H234.004C239.968 38.6817 244.804 43.5172 244.804 49.4814Z" fill="url(#paint12_linear_4147_15491)"/>
<g filter="url(#filter1_i_4147_15491)">
<path fill-rule="evenodd" clip-rule="evenodd" d="M236.474 56.5948C235.604 57.2989 233.343 58.2847 231.255 56.5948C229.168 54.9048 224.835 51.1687 222.93 49.5119H222.94L222.904 49.4814C222.904 43.5172 227.74 38.6817 233.704 38.6817H234.004C239.968 38.6817 244.804 43.5172 244.804 49.4814L244.767 49.5119H244.8V72.5H249.601C251.424 72.5 252.904 71.0203 252.904 69.1965V49.5874C252.904 39.0465 244.359 30.5 233.817 30.5C223.274 30.5 214.729 39.0451 214.729 49.5874V50.7946L226.533 60.9439C227.403 61.7723 229.69 62.9321 231.877 60.9439C234.064 58.9557 235.853 57.2161 236.474 56.5948Z" fill="url(#paint13_radial_4147_15491)"/>
</g>
<circle cx="254.278" cy="27.7778" r="15.2778" fill="url(#paint14_linear_4147_15491)"/>
<path fill-rule="evenodd" clip-rule="evenodd" d="M260.702 24.1676C261.113 24.5761 261.116 25.2412 260.707 25.653L253.128 33.2918C252.93 33.4906 252.662 33.6024 252.382 33.6024C252.102 33.6024 251.834 33.4906 251.636 33.2918L247.758 29.383C247.349 28.9713 247.352 28.3062 247.764 27.8976C248.175 27.489 248.84 27.4916 249.249 27.9034L252.382 31.0608L259.216 24.1733C259.625 23.7615 260.29 23.759 260.702 24.1676Z" fill="white"/>
<defs>
<filter id="filter0_f_4147_15491" x="111.934" y="63.936" width="31.9953" height="28.7937" filterUnits="userSpaceOnUse" color-interpolation-filters="sRGB">
<feFlood flood-opacity="0" result="BackgroundImageFix"/>
<feBlend mode="normal" in="SourceGraphic" in2="BackgroundImageFix" result="shape"/>
<feGaussianBlur stdDeviation="6.44854" result="effect1_foregroundBlur_4147_15491"/>
</filter>
<filter id="filter1_i_4147_15491" x="214.137" y="30.5" width="38.7676" height="43.6537" filterUnits="userSpaceOnUse" color-interpolation-filters="sRGB">
<feFlood flood-opacity="0" result="BackgroundImageFix"/>
<feBlend mode="normal" in="SourceGraphic" in2="BackgroundImageFix" result="shape"/>
<feColorMatrix in="SourceAlpha" type="matrix" values="0 0 0 0 0 0 0 0 0 0 0 0 0 0 0 0 0 0 127 0" result="hardAlpha"/>
<feOffset dx="-0.592742" dy="1.65375"/>
<feGaussianBlur stdDeviation="4.44556"/>
<feComposite in2="hardAlpha" operator="arithmetic" k2="-1" k3="1"/>
<feColorMatrix type="matrix" values="0 0 0 0 0.462745 0 0 0 0 0.337255 0 0 0 0 1 0 0 0 0.24 0"/>
<feBlend mode="normal" in2="shape" result="effect1_innerShadow_4147_15491"/>
</filter>
<radialGradient id="paint0_radial_4147_15491" cx="0" cy="0" r="1" gradientUnits="userSpaceOnUse" gradientTransform="translate(160.195 7) rotate(145.641) scale(59.357 92.9759)">
<stop stop-color="#292842"/>
<stop offset="1" stop-color="#38385F"/>
</radialGradient>
<linearGradient id="paint1_linear_4147_15491" x1="21.9037" y1="100.487" x2="165.819" y2="14.2507" gradientUnits="userSpaceOnUse">
<stop stop-color="#35168C"/>
<stop offset="0.317708" stop-color="#FF5454"/>
<stop offset="0.46875" stop-color="#FFDD64"/>
<stop offset="0.677083" stop-color="#BCE6FF"/>
<stop offset="0.911458" stop-color="#6983EF"/>
<stop offset="1" stop-color="#2395FF"/>
</linearGradient>
<linearGradient id="paint2_linear_4147_15491" x1="51.1117" y1="85.9094" x2="51.1272" y2="70.2191" gradientUnits="userSpaceOnUse">
<stop stop-color="#70EFFF"/>
<stop offset="1" stop-color="#5770FF"/>
</linearGradient>
<linearGradient id="paint3_linear_4147_15491" x1="122.882" y1="73.4298" x2="133.892" y2="83.6998" gradientUnits="userSpaceOnUse">
<stop stop-color="#1B91F3"/>
<stop offset="1" stop-color="#0B68CB"/>
</linearGradient>
<radialGradient id="paint4_radial_4147_15491" cx="0" cy="0" r="1" gradientUnits="userSpaceOnUse" gradientTransform="translate(122.862 76.9635) rotate(66.5179) scale(6.60435 6.32678)">
<stop offset="0.525579" stop-color="#0B4186" stop-opacity="0"/>
<stop offset="1" stop-color="#0B4186" stop-opacity="0.45"/>
</radialGradient>
<radialGradient id="paint5_radial_4147_15491" cx="0" cy="0" r="1" gradientUnits="userSpaceOnUse" gradientTransform="translate(128.183 74.2511) rotate(-127.994) scale(1.41191 2.33636)">
<stop stop-color="#EF3ACC" stop-opacity="0"/>
<stop offset="1" stop-color="#EF3ACC" stop-opacity="0.64"/>
</radialGradient>
<linearGradient id="paint6_linear_4147_15491" x1="125.946" y1="76.0588" x2="129.907" y2="71.6484" gradientUnits="userSpaceOnUse">
<stop stop-color="#0F5DB0"/>
<stop offset="1" stop-color="#0F5DB0" stop-opacity="0"/>
</linearGradient>
<radialGradient id="paint7_radial_4147_15491" cx="0" cy="0" r="1" gradientUnits="userSpaceOnUse" gradientTransform="translate(125.036 82.2554) rotate(-64.2627) scale(10.3034 12.7276)">
<stop offset="0.0160882" stop-color="#094188"/>
<stop offset="0.967387" stop-color="#0B4186" stop-opacity="0"/>
</radialGradient>
<linearGradient id="paint8_linear_4147_15491" x1="132.89" y1="79.2522" x2="131.048" y2="83.7752" gradientUnits="userSpaceOnUse">
<stop stop-color="#E247C4" stop-opacity="0"/>
<stop offset="1" stop-color="#E247C4" stop-opacity="0.64"/>
</linearGradient>
<linearGradient id="paint9_linear_4147_15491" x1="121.466" y1="75.1958" x2="123.089" y2="81.7279" gradientUnits="userSpaceOnUse">
<stop offset="0.104632" stop-color="#EF3ACC"/>
<stop offset="1" stop-color="#EF3ACC" stop-opacity="0"/>
</linearGradient>
<linearGradient id="paint10_linear_4147_15491" x1="127.982" y1="76.0698" x2="127.982" y2="82.6751" gradientUnits="userSpaceOnUse">
<stop stop-color="white"/>
<stop offset="0.90535" stop-color="#BEE1FE"/>
<stop offset="1" stop-color="#96CEFD"/>
</linearGradient>
<linearGradient id="paint11_linear_4147_15491" x1="128.105" y1="79.8075" x2="128.105" y2="82.5745" gradientUnits="userSpaceOnUse">
<stop stop-color="#BCE0FD"/>
<stop offset="1" stop-color="#88CCFC"/>
</linearGradient>
<linearGradient id="paint12_linear_4147_15491" x1="216.096" y1="77.3462" x2="221.812" y2="61.1923" gradientUnits="userSpaceOnUse">
<stop stop-color="#28B0E8"/>
<stop offset="1" stop-color="#C5B7FF" stop-opacity="0"/>
</linearGradient>
<radialGradient id="paint13_radial_4147_15491" cx="0" cy="0" r="1" gradientUnits="userSpaceOnUse" gradientTransform="translate(250.653 75.9793) rotate(-138.034) scale(48.3148 39.5031)">
<stop stop-color="#E2DBFF"/>
<stop offset="1" stop-color="#6D4AFF"/>
</radialGradient>
<linearGradient id="paint14_linear_4147_15491" x1="255.861" y1="10.272" x2="256.004" y2="43.0557" gradientUnits="userSpaceOnUse">
<stop stop-color="#2AF091"/>
<stop offset="1" stop-color="#00C5A1"/>
</linearGradient>
<clipPath id="clip0_4147_15491">
<rect width="16" height="16" fill="white" transform="translate(120 70)"/>
</clipPath>
</defs>
</svg>
