<?xml version="1.0" encoding="UTF-8" standalone="no"?>
<!DOCTYPE svg PUBLIC "-//W3C//DTD SVG 1.1//EN" "http://www.w3.org/Graphics/SVG/1.1/DTD/svg11.dtd">
<svg width="100%" height="100%" viewBox="0 0 265 148" version="1.1" xmlns="http://www.w3.org/2000/svg" xmlns:xlink="http://www.w3.org/1999/xlink" xml:space="preserve" xmlns:serif="http://www.serif.com/" style="fill-rule:evenodd;clip-rule:evenodd;stroke-linejoin:round;stroke-miterlimit:2;">
    <path id="path2" d="M221.171,147.001L44.856,147.001C43.144,147.001 41.805,145.661 41.805,143.95L41.805,142.238C41.805,140.527 43.144,139.188 44.856,139.188L221.171,139.188C222.882,139.188 224.221,140.527 224.221,142.238L224.221,143.95C224.221,145.661 222.808,147.001 221.171,147.001Z" style="fill:rgb(176,212,229);fill-rule:nonzero;"/>
    <path id="path4" d="M141.83,143.503L123.376,143.503C120.995,143.503 119.135,141.568 119.135,139.262L146.071,139.262C146.071,141.568 144.211,143.503 141.83,143.503Z" style="fill:rgb(218,243,255);fill-rule:nonzero;"/>
    <path id="path6" d="M206.034,139.187L58.501,139.187L58.501,53.929C58.501,49.018 62.519,45 67.43,45L197.104,45C202.016,45 206.034,49.018 206.034,53.929L206.034,139.187Z" style="fill:url(#_Radial1);fill-rule:nonzero;"/>
    <path id="path8" d="M199.115,139.187L66.167,139.187L66.167,55.343C66.167,54.153 67.134,53.186 68.325,53.186L196.883,53.186C198.074,53.186 199.041,54.153 199.041,55.343L199.041,139.187L199.115,139.187Z" style="fill:url(#_Linear2);fill-rule:nonzero;"/>
    <path id="path10" d="M190.805,131.286L76.18,131.286L76.18,62.519C76.18,61.523 77.028,60.715 78.072,60.715L188.847,60.715C189.891,60.715 190.739,61.523 190.739,62.519L190.739,131.286L190.805,131.286Z" style="fill:url(#_Radial3);fill-rule:nonzero;"/>
    <path id="path12" d="M84.156,70.774C85.306,70.774 86.239,69.842 86.239,68.691C86.239,67.54 85.306,66.607 84.156,66.607C83.005,66.607 82.072,67.54 82.072,68.691C82.072,69.842 83.005,70.774 84.156,70.774Z" style="fill:rgb(176,212,229);fill-rule:nonzero;"/>
    <path id="path14" d="M90.63,70.774C91.781,70.774 92.714,69.842 92.714,68.691C92.714,67.54 91.781,66.607 90.63,66.607C89.48,66.607 88.547,67.54 88.547,68.691C88.547,69.842 89.48,70.774 90.63,70.774Z" style="fill:rgb(176,212,229);fill-rule:nonzero;"/>
    <path id="path16" d="M97.105,70.774C98.256,70.774 99.189,69.842 99.189,68.691C99.189,67.54 98.256,66.607 97.105,66.607C95.954,66.607 95.022,67.54 95.022,68.691C95.022,69.842 95.954,70.774 97.105,70.774Z" style="fill:rgb(176,212,229);fill-rule:nonzero;"/>
    <path id="path18" d="M242.633,76.354L180.924,76.354C178.747,76.354 177,74.562 177,72.389L177,33.965C177,31.792 178.774,30 180.924,30L242.606,30C244.783,30 246.53,31.792 246.53,33.965L246.53,72.389C246.557,74.589 244.783,76.354 242.633,76.354Z" style="fill:url(#_Linear4);fill-rule:nonzero;"/>
    <path id="path20" d="M209.232,56.69C210.689,57.892 212.822,57.892 214.28,56.69L245.431,31.042C244.729,30.401 243.784,30 242.758,30L180.78,30C179.754,30 178.809,30.401 178.107,31.042L209.232,56.69Z" style="fill:url(#_Linear5);fill-rule:nonzero;"/>
    <path id="path22" d="M134.4,75C123.858,75 115.312,83.545 115.312,94.087L115.312,113.301C115.312,115.344 116.968,117 119.011,117L150.184,117C152.008,117 153.487,115.52 153.487,113.696L153.487,94.087C153.487,83.547 144.942,75 134.4,75ZM145.387,93.981L137.044,101.01C135.538,102.279 133.336,102.279 131.83,101.01L123.487,93.981C123.487,88.017 128.323,83.182 134.287,83.182L134.587,83.182C140.551,83.182 145.387,88.017 145.387,93.981Z" style="fill:rgb(109,74,255);fill-rule:nonzero;"/>
    <path id="path24" d="M134.4,75C123.858,75 115.312,83.545 115.312,94.087L115.312,113.301C115.312,115.344 116.968,117 119.011,117L150.184,117C152.008,117 153.487,115.52 153.487,113.696L153.487,94.087C153.487,83.547 144.942,75 134.4,75ZM145.387,93.981L137.044,101.01C135.538,102.279 133.336,102.279 131.83,101.01L123.487,93.981C123.487,88.017 128.323,83.182 134.287,83.182L134.587,83.182C140.551,83.182 145.387,88.017 145.387,93.981Z" style="fill:url(#_Linear6);fill-rule:nonzero;"/>
    <g id="g28">
        <path id="path26" d="M137.057,101.095C136.188,101.799 133.926,102.785 131.838,101.095C129.751,99.405 125.418,95.669 123.513,94.012L123.524,94.012L123.487,93.981C123.487,88.017 128.323,83.182 134.287,83.182L134.587,83.182C140.551,83.182 145.387,88.017 145.387,93.981L145.351,94.012L145.383,94.012L145.383,117L150.184,117C152.008,117 153.487,115.52 153.487,113.696L153.487,94.087C153.487,83.547 144.942,75 134.4,75C123.858,75 115.312,83.545 115.312,94.087L115.312,95.295L127.117,105.444C127.986,106.272 130.273,107.432 132.46,105.444C134.647,103.456 136.436,101.716 137.057,101.095Z" style="fill:url(#_Radial7);"/>
    </g>
    <circle id="circle30" cx="239.278" cy="30.278" r="15.278" style="fill:url(#_Linear8);"/>
    <path id="path32" d="M245.702,26.668C246.113,27.077 246.116,27.742 245.707,28.153L238.128,35.792C237.93,35.991 237.662,36.103 237.382,36.103C237.102,36.103 236.834,35.991 236.636,35.792L232.758,31.884C232.349,31.472 232.352,30.807 232.764,30.398C233.175,29.99 233.84,29.992 234.249,30.404L237.382,33.561L244.216,26.674C244.625,26.262 245.29,26.26 245.702,26.668Z" style="fill:white;"/>
    <path id="path34" d="M0.879,69.621C0.879,56.023 11.902,45 25.5,45C39.098,45 50.121,56.023 50.121,69.621L50.121,94.243L25.5,94.243C11.902,94.243 0.879,83.219 0.879,69.621Z" style="fill:url(#_Linear9);fill-rule:nonzero;"/>
    <path id="path36" d="M31.499,62.28L31.499,64.8L33.955,64.8C34.795,64.8 35.506,65.479 35.506,66.351L35.506,79.502C35.506,80.342 34.827,81.053 33.955,81.053L17.379,81.053C16.539,81.053 15.828,80.374 15.828,79.502L15.828,66.351C15.828,65.511 16.507,64.8 17.379,64.8L19.802,64.8L19.802,62.28C19.802,59.049 22.419,56.432 25.65,56.432C28.882,56.432 31.499,59.049 31.499,62.28ZM29.036,62.28L29.036,64.8L22.329,64.8L22.329,62.28C22.329,59.954 24.106,58.926 25.683,58.926C27.259,58.926 29.036,59.954 29.036,62.28ZM25.983,69.195C27.114,69.195 28.019,70.1 28.019,71.231C28.019,72.006 27.599,72.685 26.953,73.008L27.793,76.626L24.174,76.626L25.014,73.008C24.368,72.652 23.948,72.006 23.948,71.231C23.948,70.1 24.852,69.195 25.983,69.195Z" style="fill:white;"/>
    <defs>
        <radialGradient id="_Radial1" cx="0" cy="0" r="1" gradientUnits="userSpaceOnUse" gradientTransform="matrix(-49.0002,33.4997,-52.4734,-76.7532,202,51.5)"><stop offset="0" style="stop-color:rgb(41,40,66);stop-opacity:1"/><stop offset="1" style="stop-color:rgb(56,56,95);stop-opacity:1"/></radialGradient>
        <linearGradient id="_Linear2" x1="0" y1="0" x2="1" y2="0" gradientUnits="userSpaceOnUse" gradientTransform="matrix(143.915,-86.2365,86.2365,143.915,63.7079,144.988)"><stop offset="0" style="stop-color:rgb(53,22,140);stop-opacity:1"/><stop offset="0.32" style="stop-color:rgb(255,84,84);stop-opacity:1"/><stop offset="0.47" style="stop-color:rgb(255,221,100);stop-opacity:1"/><stop offset="0.68" style="stop-color:rgb(188,230,255);stop-opacity:1"/><stop offset="0.91" style="stop-color:rgb(105,131,239);stop-opacity:1"/><stop offset="1" style="stop-color:rgb(35,149,255);stop-opacity:1"/></linearGradient>
        <radialGradient id="_Radial3" cx="0" cy="0" r="1" gradientUnits="userSpaceOnUse" gradientTransform="matrix(-24,24,-38.9818,-38.9818,188.5,63.5)"><stop offset="0" style="stop-color:rgb(221,219,227);stop-opacity:1"/><stop offset="1" style="stop-color:white;stop-opacity:1"/></radialGradient>
        <linearGradient id="_Linear4" x1="0" y1="0" x2="1" y2="0" gradientUnits="userSpaceOnUse" gradientTransform="matrix(2.23013e-15,36.4208,-36.4208,2.23013e-15,211.765,30)"><stop offset="0" style="stop-color:rgb(193,222,248);stop-opacity:1"/><stop offset="1" style="stop-color:rgb(236,250,255);stop-opacity:1"/></linearGradient>
        <linearGradient id="_Linear5" x1="0" y1="0" x2="1" y2="0" gradientUnits="userSpaceOnUse" gradientTransform="matrix(1.95981e-15,32.0061,-32.0061,1.95981e-15,211.769,18.4116)"><stop offset="0" style="stop-color:rgb(222,235,247);stop-opacity:1"/><stop offset="1" style="stop-color:white;stop-opacity:1"/></linearGradient>
        <linearGradient id="_Linear6" x1="0" y1="0" x2="1" y2="0" gradientUnits="userSpaceOnUse" gradientTransform="matrix(5.716,-16.154,16.154,5.716,116.679,121.846)"><stop offset="0" style="stop-color:rgb(40,176,232);stop-opacity:1"/><stop offset="1" style="stop-color:rgb(197,183,255);stop-opacity:0"/></linearGradient>
        <radialGradient id="_Radial7" cx="0" cy="0" r="1" gradientUnits="userSpaceOnUse" gradientTransform="matrix(-35.9241,-32.3076,26.4153,-29.3722,151.237,120.479)"><stop offset="0" style="stop-color:rgb(226,219,255);stop-opacity:1"/><stop offset="1" style="stop-color:rgb(109,74,255);stop-opacity:1"/></radialGradient>
        <linearGradient id="_Linear8" x1="0" y1="0" x2="1" y2="0" gradientUnits="userSpaceOnUse" gradientTransform="matrix(0.143,32.7837,-32.7837,0.143,240.861,12.772)"><stop offset="0" style="stop-color:rgb(42,240,145);stop-opacity:1"/><stop offset="1" style="stop-color:rgb(0,197,161);stop-opacity:1"/></linearGradient>
        <linearGradient id="_Linear9" x1="0" y1="0" x2="1" y2="0" gradientUnits="userSpaceOnUse" gradientTransform="matrix(-35.9849,44.9813,-44.9813,-35.9849,41.1252,56.3637)"><stop offset="0" style="stop-color:rgb(255,214,108);stop-opacity:1"/><stop offset="1" style="stop-color:rgb(255,142,79);stop-opacity:1"/></linearGradient>
    </defs>
</svg>
