<?xml version="1.0" encoding="UTF-8" standalone="no"?>
<!DOCTYPE svg PUBLIC "-//W3C//DTD SVG 1.1//EN" "http://www.w3.org/Graphics/SVG/1.1/DTD/svg11.dtd">
<svg width="100%" height="100%" viewBox="0 0 128 128" version="1.1" xmlns="http://www.w3.org/2000/svg" xmlns:xlink="http://www.w3.org/1999/xlink" xml:space="preserve" xmlns:serif="http://www.serif.com/" style="fill-rule:evenodd;clip-rule:evenodd;stroke-linejoin:round;stroke-miterlimit:2;">
    <g transform="matrix(2,0,0,2,0,0)">
        <g transform="matrix(1.03147,-8.42988e-35,0,1.03147,3.43436,17.6378)">
            <path d="M32.167,2.25L12.828,2.25C11.961,2.25 11.248,2.963 11.248,3.83L11.248,5.625L22.148,9L33.747,5.625L33.747,3.83C33.747,2.963 33.034,2.25 32.167,2.25Z" style="fill:rgb(3,100,184);fill-rule:nonzero;"/>
            <path d="M35.603,19.581C35.768,19.063 35.9,18.535 35.997,18C35.997,17.733 35.854,17.485 35.623,17.351L35.608,17.343L35.603,17.341L23.411,10.395C23.359,10.361 23.304,10.33 23.248,10.302C22.776,10.068 22.221,10.068 21.749,10.302C21.693,10.33 21.638,10.361 21.586,10.395L9.394,17.341L9.389,17.343L9.374,17.351C9.143,17.485 9,17.733 9,18C9.097,18.535 9.229,19.063 9.394,19.581L22.321,29.036L35.603,19.581Z" style="fill:rgb(10,39,103);fill-rule:nonzero;"/>
            <path d="M26.998,5.625L19.123,5.625L16.85,9L19.123,12.375L26.998,19.125L33.747,19.125L33.747,12.375L26.998,5.625Z" style="fill:rgb(40,168,234);fill-rule:nonzero;"/>
            <rect x="11.25" y="5.625" width="7.875" height="6.75" style="fill:rgb(0,120,212);"/>
            <rect x="26.998" y="5.625" width="6.75" height="6.75" style="fill:rgb(80,217,255);"/>
            <path d="M26.999,19.125L19.125,12.375L11.25,12.375L11.25,19.125L19.125,25.875L31.31,27.864L26.999,19.125Z" style="fill:rgb(3,100,184);fill-rule:nonzero;"/>
            <rect x="19.123" y="12.375" width="7.875" height="6.75" style="fill:rgb(0,120,212);"/>
            <rect x="11.25" y="19.125" width="7.875" height="6.75" style="fill:rgb(6,74,140);"/>
            <rect x="26.998" y="19.125" width="6.75" height="6.75" style="fill:rgb(0,120,212);"/>
            <path d="M22.713,28.37L9.445,18.696L10.001,17.718C10.001,17.718 22.088,24.603 22.273,24.706C22.426,24.768 22.597,24.763 22.747,24.693C22.919,24.596 35.044,17.684 35.044,17.684L35.602,18.662L22.713,28.37Z" style="fill:rgb(10,39,103);fill-opacity:0.49;fill-rule:nonzero;"/>
            <path d="M35.624,18.649L35.609,18.658L35.606,18.661L23.414,25.606C22.922,25.924 22.299,25.962 21.772,25.709L26.018,31.402L35.303,33.424L35.303,33.429C35.741,33.112 36.001,32.603 36.001,32.063L36.001,18C36.001,18.268 35.858,18.516 35.626,18.649L35.624,18.649Z" style="fill:rgb(20,144,223);fill-rule:nonzero;"/>
            <path d="M35.998,32.063L35.998,31.233L24.767,24.834L23.412,25.605C22.92,25.923 22.297,25.962 21.77,25.708L26.016,31.401L35.301,33.423L35.301,33.428C35.739,33.111 35.999,32.602 35.999,32.062L35.998,32.063Z" style="fill-opacity:0.05;fill-rule:nonzero;"/>
            <path d="M35.941,32.494L23.631,25.48L23.412,25.605C22.92,25.922 22.297,25.961 21.77,25.708L26.016,31.401L35.301,33.423L35.301,33.427C35.616,33.199 35.843,32.869 35.942,32.493L35.941,32.494Z" style="fill-opacity:0.09;fill-rule:nonzero;"/>
            <path d="M9.394,18.664L9.394,18.653L9.383,18.653L9.349,18.63C9.13,18.496 8.998,18.257 9,18L9,32.065C9,32.989 9.761,33.75 10.685,33.75L34.311,33.75C34.452,33.749 34.591,33.73 34.727,33.694C34.798,33.682 34.866,33.659 34.93,33.627C34.954,33.624 34.977,33.616 34.997,33.604C35.089,33.566 35.176,33.517 35.256,33.458L35.301,33.424L9.394,18.664Z" style="fill:rgb(40,168,234);fill-rule:nonzero;"/>
            <path d="M20.249,27.751L20.249,9.376C20.247,8.554 19.572,7.879 18.75,7.876L11.285,7.876L11.285,16.264L9.394,17.342L9.375,17.352C9.143,17.486 9,17.734 9,18.001L9,29.255L9,29.25L18.75,29.25C19.572,29.248 20.247,28.572 20.249,27.751Z" style="fill-opacity:0.09;fill-rule:nonzero;"/>
            <path d="M19.125,28.876L19.125,10.501C19.122,9.679 18.447,9.004 17.625,9.001L11.285,9.001L11.285,16.264L9.394,17.342L9.375,17.352C9.143,17.486 9,17.734 9,18.001L9,30.38L9,30.375L17.625,30.375C18.447,30.373 19.122,29.697 19.125,28.876ZM19.125,26.626L19.125,10.501C19.122,9.679 18.447,9.004 17.625,9.001L11.285,9.001L11.285,16.264L9.394,17.342L9.375,17.352C9.143,17.486 9,17.734 9,18.001L9,28.13L9,28.125L17.625,28.125C18.447,28.123 19.122,27.447 19.125,26.626ZM18,26.626L18,10.501C17.997,9.679 17.322,9.004 16.5,9.001L11.285,9.001L11.285,16.264L9.394,17.342L9.375,17.352C9.143,17.486 9,17.734 9,18.001L9,28.13L9,28.125L16.5,28.125C17.322,28.123 17.997,27.447 18,26.626Z" style="fill-opacity:0.2;fill-rule:nonzero;"/>
            <path d="M1.5,9L16.498,9C17.321,9 17.998,9.677 17.998,10.5L17.998,25.5C17.998,26.322 17.321,26.999 16.498,26.999L1.5,26.999C0.677,26.999 0,26.322 0,25.5L0,10.5C0,9.677 0.677,9 1.5,9Z" style="fill:rgb(0,120,212);fill-rule:nonzero;"/>
            <path d="M4.35,15.152C4.749,14.303 5.392,13.592 6.197,13.111C7.09,12.6 8.106,12.346 9.133,12.375C10.085,12.354 11.025,12.596 11.849,13.073C12.624,13.535 13.249,14.212 13.646,15.023C14.079,15.915 14.295,16.898 14.276,17.89C14.298,18.927 14.075,19.955 13.627,20.891C13.221,21.73 12.578,22.431 11.777,22.909C10.921,23.401 9.946,23.649 8.959,23.625C7.986,23.648 7.026,23.404 6.183,22.92C5.401,22.457 4.769,21.779 4.363,20.967C3.927,20.087 3.708,19.115 3.726,18.133C3.707,17.105 3.92,16.086 4.351,15.152L4.35,15.152ZM6.319,19.942C6.531,20.479 6.892,20.945 7.358,21.285C7.833,21.618 8.402,21.789 8.981,21.775C9.599,21.799 10.207,21.622 10.715,21.271C11.176,20.93 11.527,20.462 11.724,19.924C11.946,19.324 12.055,18.689 12.047,18.05C12.054,17.405 11.951,16.764 11.743,16.153C11.56,15.604 11.222,15.118 10.769,14.757C10.275,14.388 9.668,14.2 9.051,14.226C8.459,14.211 7.877,14.383 7.39,14.719C6.914,15.06 6.546,15.53 6.328,16.073C5.845,17.317 5.842,18.697 6.32,19.942L6.319,19.942Z" style="fill:white;fill-rule:nonzero;"/>
        </g>
        <g transform="matrix(1.00441,0,0,1.00441,24.4662,24.372)">
            <g>
                <path d="M8.294,0.06L27.707,0.06C32.269,0.06 35.941,3.732 35.941,8.293L35.941,27.707C35.941,32.268 32.269,35.94 27.707,35.94L8.294,35.94C3.733,35.94 0.061,32.268 0.061,27.707L0.061,8.293C0.061,3.732 3.733,0.06 8.294,0.06Z" style="fill:url(#_Linear1);fill-rule:nonzero;"/>
                <path d="M7.922,10.263C7.733,10.263 7.555,10.296 7.387,10.363L10.763,13.839L14.177,17.377L14.239,17.452L14.438,17.651L14.637,17.863L17.565,20.866C17.614,20.896 17.755,21.027 17.866,21.082C18.008,21.153 18.162,21.218 18.321,21.224C18.492,21.23 18.667,21.181 18.822,21.106C18.937,21.05 18.988,20.969 19.123,20.866L22.511,17.365L25.937,13.839L29.239,10.438C29.027,10.323 28.792,10.263 28.541,10.263L7.922,10.263ZM6.888,10.687C6.528,11.028 6.303,11.541 6.303,12.12L6.303,23.532C6.303,24 6.453,24.426 6.701,24.753L7.175,24.304L10.701,20.878L13.828,17.851L13.765,17.776L10.339,14.25L6.913,10.712L6.888,10.687ZM29.687,10.799L26.348,14.25L22.935,17.776L22.873,17.838L26.124,20.99L29.65,24.416L29.862,24.616C30.052,24.311 30.161,23.936 30.161,23.532L30.161,12.12C30.161,11.604 29.982,11.136 29.687,10.799ZM14.226,18.262L11.112,21.289L7.574,24.715L7.125,25.151C7.361,25.304 7.631,25.4 7.922,25.4L28.541,25.4C28.892,25.4 29.21,25.265 29.476,25.052L29.251,24.827L25.713,21.401L22.461,18.262L19.534,21.277C19.375,21.382 19.269,21.498 19.115,21.57C18.866,21.685 18.593,21.782 18.318,21.778C18.043,21.774 17.774,21.666 17.527,21.545C17.403,21.484 17.337,21.423 17.191,21.302L14.226,18.262Z" style="fill:white;fill-rule:nonzero;"/>
            </g>
        </g>
        <g transform="matrix(1.08545,0,0,1.08545,19.8391,3.52933)">
            <g>
                <path d="M27.429,5.154C25.323,3.778 22.63,3.333 21.144,3.178C19.554,3.011 18.172,3.041 16.957,3.219C16.854,3.218 16.752,3.214 16.648,3.214C16.569,3.214 16.491,3.217 16.412,3.218C16.445,3.178 16.467,3.153 16.467,3.153C16.467,3.153 16.403,3.163 16.278,3.22C15.884,3.227 15.491,3.24 15.104,3.267C15.643,2.676 16.084,2.367 16.084,2.367C16.084,2.367 15.56,2.443 14.604,3.31C14.15,3.352 13.701,3.407 13.26,3.476C14.265,2.117 15.316,1.544 15.316,1.544C15.316,1.544 14.042,1.285 12.047,3.289C11.88,3.457 11.726,3.631 11.576,3.808C5.763,5.214 1.602,8.968 1.602,13.38C1.602,14.245 1.337,15.196 1.623,16.146C1.509,17.664 1.752,21.806 1.752,21.806C1.752,21.806 3.326,30.323 9.377,31.803C9.473,31.826 8.113,29.68 7.511,27.092C8.683,28.284 10.079,29.227 11.647,29.39C11.839,29.41 10.751,28.135 9.799,26.597L23.55,31.23C30.742,28.141 29.904,28.419 31.449,26.747C34.851,23.064 35.327,20.975 34.47,14.805C33.89,10.641 30.817,6.516 27.429,5.154Z" style="fill:url(#_Linear2);"/>
                <path d="M2.379,24.246L25.107,31.803L29.323,13.881L3.294,9.043L1.24,20.718L2.379,24.246Z" style="fill:rgb(251,251,251);"/>
                <path d="M3.359,9.44C3.473,9.685 3.439,9.743 3.368,9.743C3.336,9.743 3.297,9.732 3.26,9.72C3.223,9.708 3.188,9.696 3.166,9.696C3.103,9.696 3.138,9.789 3.494,10.237C3.998,10.876 11.394,22.041 11.798,22.041C11.8,22.041 11.802,22.041 11.804,22.04C15.246,20.813 29.889,15.788 29.889,15.788L28.39,13.605L3.359,9.44Z" style="fill:rgb(153,153,153);"/>
                <path d="M3.572,9.166C3.572,9.166 3.683,9.737 4.194,10.369C4.702,11.007 11.528,21.343 11.871,21.251C16.343,20.064 32.567,13.748 32.567,13.748L3.572,9.166Z" style="fill:rgb(248,248,248);"/>
                <path d="M24.296,31.534L2.695,24.352L2.772,24.857L24.536,32.093L24.296,31.534Z" style="fill:rgb(153,153,153);"/>
                <path d="M8.378,8.683C8.378,8.683 0.519,10.985 4.125,18.997C4.125,18.997 2.472,17.483 1.487,15.548C1.443,15.461 3.128,9.474 3.128,9.474L8.378,8.683Z" style="fill:url(#_Linear3);"/>
                <path d="M4.126,18.998C3.443,18.986 2.345,18.422 1.989,17.739C1.543,25.159 4.571,29.492 9.377,31.803C7.806,31.623 0,27.504 0,17.591C0,9.162 6.688,1.628 17.155,1.282C17.22,1.755 11.966,2.94 11.798,3.497C11.537,4.364 10.938,5.308 10.432,6.065C9.747,7.09 11.384,7.967 10.181,8.243C8.371,8.659 5.956,8.429 4.175,10.744C1.498,14.223 3.285,18.204 4.126,18.998Z" style="fill:url(#_Radial4);"/>
                <path d="M19.9,1.554C13.122,1.033 9.633,3.746 7.393,6.9C6.578,8.048 6.667,9.102 6.948,10.376C7.068,10.919 7.19,11.18 7.043,11.734C6.962,12.04 6.976,12.325 6.875,12.506C6.736,12.755 6.559,13.028 6.499,13.475C6.351,14.593 6.747,14.949 6.994,15.325C7.346,14.975 8.034,14.152 9.275,13.66C10.516,13.169 11.332,12.429 12.887,11.636C15.012,10.552 17.503,12.197 22.224,10.649C23.677,10.173 27.017,5.226 27.809,5.036C25.602,2.595 21.846,1.703 19.9,1.554Z" style="fill:url(#_Linear5);"/>
                <path d="M15.422,0.005C15.422,0.005 14.211,0.589 13.684,1.646C14.902,1.032 15.608,0.697 15.942,0.657C15.942,0.657 15.622,0.812 15.225,1.655C15.927,1.43 16.168,1.288 16.36,1.286C16.36,1.286 16.304,1.375 16.253,2.216C15.176,1.867 13.103,2.273 12.001,2.964C11.627,0.97 15.422,0.005 15.422,0.005Z" style="fill:rgb(63,100,153);"/>
                <path d="M20.24,1.253C18.162,0.984 16.425,1.037 14.949,1.322C15.413,0.876 15.95,0.657 15.95,0.657C15.254,0.719 14.385,1.173 13.639,1.655C13.263,1.774 12.905,1.91 12.566,2.061C12.773,1.787 13.015,1.495 13.251,1.27C14.128,0.436 15.43,0.005 15.43,0.005C14.319,-0.077 10.599,0.875 8.361,5.408C7.994,5.855 7.652,6.314 7.326,6.773C6.484,7.959 6.576,9.047 6.867,10.362C6.991,10.924 7.013,11.82 6.891,12.399C6.867,12.515 6.548,12.815 6.466,13.623C6.379,14.48 6.685,14.901 6.987,15.25C8.058,13.682 9.116,13.372 9.116,13.372C10.616,12.757 11.24,12.101 12.846,11.282C15.04,10.162 22.711,13.816 27.587,12.218C29.087,11.727 27.009,5.341 27.828,5.145C25.548,2.624 22.238,1.512 20.24,1.253Z" style="fill:url(#_Linear6);"/>
                <path d="M35.458,14.999C34.256,8.72 28.474,3.008 23.824,2.692C21.76,2.551 22.394,3.609 21.103,4.012C15.538,5.749 15.453,6.763 15.453,6.763C27.252,7.317 27.43,18.97 24.271,21.918C25.16,21.71 26.124,20.623 27.009,18.917C26.903,19.633 26.812,20.511 26.679,21.491C26.275,24.481 26.799,30.728 18.205,34.909C18.205,34.909 22.906,34.525 25.237,31.901C24.289,34.081 21.688,35.258 21.688,35.258C23.602,34.978 28.631,33.494 31.834,29.489C35.459,24.955 36.549,20.701 35.458,14.999Z" style="fill:url(#_Linear7);"/>
                <path d="M23.959,26.46C23.959,26.46 27.792,25.389 29.027,23.319C28.878,25.732 26.689,28.207 26.689,28.207C26.689,28.207 29.889,27.559 31.253,25.307C31.076,27.34 28.612,30.086 28.612,30.086C31.131,29.634 37.459,25.636 35.457,14.998C34.275,8.716 28.473,3.008 23.823,2.692C21.76,2.551 22.394,3.609 21.102,4.012C15.538,5.749 15.453,6.762 15.453,6.762C27.252,7.317 30.387,13.492 24.271,21.753C25.16,21.545 25.517,21.056 26.185,20.257C26.184,20.257 26.487,23.42 23.959,26.46Z" style="fill:url(#_Linear8);"/>
                <path d="M8.8,12.425C8.8,12.425 8.115,12.905 7.619,12.782C7.032,12.638 6.932,12.069 6.932,12.069C6.919,12.186 6.904,12.298 6.883,12.399C6.858,12.515 6.54,12.815 6.458,13.623C6.37,14.48 6.693,14.977 6.994,15.325C8.066,13.758 9.107,13.372 9.107,13.372C8.699,13.229 8.8,12.425 8.8,12.425Z" style="fill:url(#_Linear9);"/>
                <g opacity="0.6">
                    <g opacity="0.6">
                        <g opacity="0.2">
                            <path d="M23.744,2.677C23.905,2.635 24.56,2.706 24.991,2.899C25.421,3.092 26.163,3.434 25.569,3.582C24.976,3.73 24.634,3.493 24.338,3.241C24.041,2.989 23.344,2.781 23.744,2.677Z" style="fill:url(#_Linear10);"/>
                        </g>
                    </g>
                </g>
                <path d="M8.866,12.331C8.866,12.331 12.625,6.137 16.023,4.465C16.339,4.306 11.318,5.799 9.297,8.03C8.096,9.355 8.732,11.951 8.866,12.331Z" style="fill:url(#_Linear11);"/>
                <path d="M8.865,12.331C8.869,12.329 8.873,12.327 8.876,12.325C9.848,11.724 11.514,11.378 12.051,10.29C14.118,6.098 16.023,4.465 16.023,4.465C12.625,6.136 8.865,12.331 8.865,12.331Z" style="fill:rgb(242,242,242);fill-opacity:0.1;"/>
                <path d="M9.223,11.198C9.223,11.198 8.546,10.159 9.521,9.211C10.036,8.712 10.816,8.989 10.907,9.079C11.291,9.46 11.049,10.263 10.704,10.718C10.508,10.974 9.94,11.373 9.223,11.198Z" style="fill:rgb(47,66,130);"/>
                <path d="M9.611,11.134C9.611,11.134 9.143,10.415 9.818,9.76C10.173,9.415 10.712,9.607 10.775,9.669C11.04,9.932 10.873,10.487 10.634,10.801C10.5,10.979 10.107,11.254 9.611,11.134Z" style="fill:url(#_Linear12);"/>
                <path d="M10.546,10.367C10.535,10.654 10.292,10.879 10.003,10.869C9.713,10.859 9.486,10.618 9.496,10.331C9.507,10.044 9.75,9.82 10.04,9.83C10.329,9.839 10.556,10.08 10.546,10.367Z"/>
                <path d="M9.69,10.502C9.853,10.502 9.985,10.369 9.985,10.206C9.985,10.043 9.853,9.911 9.69,9.911C9.527,9.911 9.395,10.043 9.395,10.206C9.395,10.369 9.527,10.502 9.69,10.502Z" style="fill:white;fill-rule:nonzero;"/>
                <path d="M33.181,9.44C30.608,5.523 28.569,4.528 28.569,4.528C28.569,4.528 28.663,7.381 30.092,8.757C30.255,8.914 28.382,7.533 28.382,7.533C28.382,7.533 27.982,8.851 28.899,10.366C28.633,10.012 28.456,9.878 28.456,9.878C28.456,9.878 26.727,10.675 26.217,11.781C25.953,11.284 25.756,10.991 25.756,10.991C25.756,10.991 24.559,13.377 24.71,16.145C24.955,20.644 23.867,22.302 23.867,22.302C23.867,22.302 26.78,21.185 28.176,17.588C28.753,19.117 28.159,20.727 28.159,20.727C28.159,20.727 30.512,18.969 31.018,15.764C31.579,16.668 31.414,18.474 31.414,18.474C31.414,18.474 32.916,16.383 32.953,14.105C33.649,14.59 33.713,16.486 33.713,16.486C33.713,16.486 35.94,13.639 33.181,9.44Z" style="fill:url(#_Linear13);"/>
                <path d="M30.681,6.703C30.008,5.45 28.822,4.651 27.779,4.005C25.178,2.392 23.506,2.166 23.506,2.166C23.506,2.166 21.106,2.612 21.518,3.28C21.539,3.314 21.588,3.357 21.658,3.407C19.553,2.437 18.359,4.667 18.359,4.667C17.156,4.594 15.691,5.186 15.264,6.773C15.22,6.937 15.803,6.845 16.103,6.91C17.857,7.291 19.508,8.118 20.267,8.527C22.032,9.477 23.079,11.061 23.683,12.248C24.415,13.685 24.714,16.213 24.714,16.213C24.714,16.213 26.638,13.569 26.178,12.212C26.94,12.685 27.091,14.374 27.091,14.374C27.091,14.374 28.374,12.365 27.994,10.615C28.984,11.218 29.017,12.445 29.017,12.445C29.017,12.445 30.025,11.046 29.57,8.752C30.565,9.544 30.774,10.57 30.774,10.57C30.774,10.57 31.587,8.392 30.681,6.703Z" style="fill:url(#_Linear14);"/>
            </g>
        </g>
    </g>
    <defs>
        <linearGradient id="_Linear1" x1="0" y1="0" x2="1" y2="0" gradientUnits="userSpaceOnUse" gradientTransform="matrix(0.0349,-35.3032,35.3032,0.0349,18.252,35.7962)"><stop offset="0" style="stop-color:rgb(112,239,255);stop-opacity:1"/><stop offset="1" style="stop-color:rgb(87,112,255);stop-opacity:1"/></linearGradient>
        <linearGradient id="_Linear2" x1="0" y1="0" x2="1" y2="0" gradientUnits="userSpaceOnUse" gradientTransform="matrix(-20.7755,-25.2198,25.2198,-20.7755,28.9748,29.3189)"><stop offset="0" style="stop-color:rgb(19,0,54);stop-opacity:1"/><stop offset="0.23" style="stop-color:rgb(24,2,59);stop-opacity:1"/><stop offset="0.51" style="stop-color:rgb(38,9,74);stop-opacity:1"/><stop offset="0.82" style="stop-color:rgb(61,21,99);stop-opacity:1"/><stop offset="1" style="stop-color:rgb(78,29,117);stop-opacity:1"/></linearGradient>
        <linearGradient id="_Linear3" x1="0" y1="0" x2="1" y2="0" gradientUnits="userSpaceOnUse" gradientTransform="matrix(6.89179,0,0,6.89179,1.48639,13.8402)"><stop offset="0" style="stop-color:rgb(49,86,168);stop-opacity:1"/><stop offset="0.25" style="stop-color:rgb(51,81,164);stop-opacity:1"/><stop offset="0.54" style="stop-color:rgb(59,67,151);stop-opacity:1"/><stop offset="0.85" style="stop-color:rgb(71,44,130);stop-opacity:1"/><stop offset="1" style="stop-color:rgb(78,29,117);stop-opacity:1"/></linearGradient>
        <radialGradient id="_Radial4" cx="0" cy="0" r="1" gradientUnits="userSpaceOnUse" gradientTransform="matrix(12.3786,0,0,12.3786,8.578,9.36353)"><stop offset="0" style="stop-color:rgb(20,205,218);stop-opacity:1"/><stop offset="0.17" style="stop-color:rgb(20,205,218);stop-opacity:1"/><stop offset="0.55" style="stop-color:rgb(32,97,189);stop-opacity:1"/><stop offset="0.65" style="stop-color:rgb(38,88,172);stop-opacity:1"/><stop offset="0.86" style="stop-color:rgb(55,63,129);stop-opacity:1"/><stop offset="1" style="stop-color:rgb(67,45,98);stop-opacity:1"/></radialGradient>
        <linearGradient id="_Linear5" x1="0" y1="0" x2="1" y2="0" gradientUnits="userSpaceOnUse" gradientTransform="matrix(21.3423,0,0,21.3423,6.46705,8.40727)"><stop offset="0" style="stop-color:rgb(32,97,189);stop-opacity:1"/><stop offset="0.18" style="stop-color:rgb(43,81,172);stop-opacity:1"/><stop offset="0.68" style="stop-color:rgb(68,44,132);stop-opacity:1"/><stop offset="0.94" style="stop-color:rgb(78,29,117);stop-opacity:1"/><stop offset="1" style="stop-color:rgb(78,29,117);stop-opacity:1"/></linearGradient>
        <linearGradient id="_Linear6" x1="0" y1="0" x2="1" y2="0" gradientUnits="userSpaceOnUse" gradientTransform="matrix(9.06528,15.9511,-15.9511,9.06528,9.60982,3.36979)"><stop offset="0" style="stop-color:rgb(72,168,224);stop-opacity:1"/><stop offset="0.02" style="stop-color:rgb(72,168,224);stop-opacity:1"/><stop offset="0.39" style="stop-color:rgb(32,97,189);stop-opacity:1"/><stop offset="0.5" style="stop-color:rgb(43,81,172);stop-opacity:1"/><stop offset="0.79" style="stop-color:rgb(68,44,132);stop-opacity:1"/><stop offset="0.94" style="stop-color:rgb(78,29,117);stop-opacity:1"/><stop offset="1" style="stop-color:rgb(78,29,117);stop-opacity:1"/></linearGradient>
        <linearGradient id="_Linear7" x1="0" y1="0" x2="1" y2="0" gradientUnits="userSpaceOnUse" gradientTransform="matrix(40.0408,-23.2952,23.2952,40.0408,2.85799,48.9959)"><stop offset="0" style="stop-color:rgb(49,86,168);stop-opacity:1"/><stop offset="0.38" style="stop-color:rgb(49,86,168);stop-opacity:1"/><stop offset="1" style="stop-color:rgb(78,29,117);stop-opacity:1"/></linearGradient>
        <linearGradient id="_Linear8" x1="0" y1="0" x2="1" y2="0" gradientUnits="userSpaceOnUse" gradientTransform="matrix(23.7045,-29.4671,29.4671,23.7045,14.0492,40.462)"><stop offset="0" style="stop-color:rgb(41,171,226);stop-opacity:1"/><stop offset="0.77" style="stop-color:rgb(56,90,166);stop-opacity:1"/><stop offset="0.86" style="stop-color:rgb(65,66,147);stop-opacity:1"/><stop offset="1" style="stop-color:rgb(78,29,117);stop-opacity:1"/></linearGradient>
        <linearGradient id="_Linear9" x1="0" y1="0" x2="1" y2="0" gradientUnits="userSpaceOnUse" gradientTransform="matrix(0.92258,0.355,-0.355,0.92258,7.00851,13.3643)"><stop offset="0" style="stop-color:rgb(176,220,214);stop-opacity:1"/><stop offset="1" style="stop-color:rgb(83,172,224);stop-opacity:1"/></linearGradient>
        <linearGradient id="_Linear10" x1="0" y1="0" x2="1" y2="0" gradientUnits="userSpaceOnUse" gradientTransform="matrix(-0.9931,-1.06353,1.06353,-0.9931,25.5884,3.35221)"><stop offset="0" style="stop-color:rgb(48,146,185);stop-opacity:0.2"/><stop offset="0.22" style="stop-color:rgb(37,141,182);stop-opacity:0.2"/><stop offset="0.66" style="stop-color:rgb(22,133,177);stop-opacity:0.2"/><stop offset="1" style="stop-color:rgb(16,130,175);stop-opacity:0.2"/></linearGradient>
        <linearGradient id="_Linear11" x1="0" y1="0" x2="1" y2="0" gradientUnits="userSpaceOnUse" gradientTransform="matrix(1.5841,5.69595,-5.69595,1.5841,11.731,5.52165)"><stop offset="0" style="stop-color:rgb(19,152,209);stop-opacity:0"/><stop offset="0.01" style="stop-color:rgb(19,152,209);stop-opacity:0"/><stop offset="0.25" style="stop-color:rgb(17,135,194);stop-opacity:0.62"/><stop offset="0.64" style="stop-color:rgb(63,100,153);stop-opacity:0.71"/><stop offset="1" style="stop-color:rgb(47,66,130);stop-opacity:0.5"/></linearGradient>
        <linearGradient id="_Linear12" x1="0" y1="0" x2="1" y2="0" gradientUnits="userSpaceOnUse" gradientTransform="matrix(-0.8212,-0.4073,0.4073,-0.8212,10.5714,10.6273)"><stop offset="0" style="stop-color:rgb(249,194,27);stop-opacity:1"/><stop offset="0.15" style="stop-color:rgb(243,186,27);stop-opacity:1"/><stop offset="0.38" style="stop-color:rgb(227,164,27);stop-opacity:1"/><stop offset="0.66" style="stop-color:rgb(201,128,28);stop-opacity:1"/><stop offset="0.99" style="stop-color:rgb(164,78,28);stop-opacity:1"/><stop offset="1" style="stop-color:rgb(163,76,28);stop-opacity:1"/></linearGradient>
        <linearGradient id="_Linear13" x1="0" y1="0" x2="1" y2="0" gradientUnits="userSpaceOnUse" gradientTransform="matrix(-9.0871,-7.3894,7.3894,-9.0871,29.9441,18.8975)"><stop offset="0" style="stop-color:rgb(64,158,195);stop-opacity:1"/><stop offset="0.62" style="stop-color:rgb(32,97,189);stop-opacity:1"/><stop offset="1" style="stop-color:rgb(32,97,189);stop-opacity:1"/></linearGradient>
        <linearGradient id="_Linear14" x1="0" y1="0" x2="1" y2="0" gradientUnits="userSpaceOnUse" gradientTransform="matrix(-3.0569,-11.9741,11.9741,-3.0569,25.668,14.9655)"><stop offset="0" style="stop-color:rgb(20,178,218);stop-opacity:1"/><stop offset="0.4" style="stop-color:rgb(41,124,204);stop-opacity:1"/><stop offset="0.65" style="stop-color:rgb(33,100,191);stop-opacity:1"/><stop offset="0.82" style="stop-color:rgb(32,97,189);stop-opacity:1"/><stop offset="1" style="stop-color:rgb(32,97,189);stop-opacity:1"/></linearGradient>
    </defs>
</svg>
