<svg width="16" height="16" viewBox="0 0 16 16" fill="none" xmlns="http://www.w3.org/2000/svg">
<path opacity="0.2" d="M8 2.75C8.68944 2.75 9.37213 2.8858 10.0091 3.14963C10.646 3.41347 11.2248 3.80018 11.7123 4.28769C12.1998 4.7752 12.5865 5.35395 12.8504 5.99091C13.1142 6.62787 13.25 7.31056 13.25 8C13.25 8.68944 13.1142 9.37213 12.8504 10.0091C12.5865 10.646 12.1998 11.2248 11.7123 11.7123C11.2248 12.1998 10.646 12.5865 10.0091 12.8504C9.37213 13.1142 8.68944 13.25 8 13.25C7.31056 13.25 6.62787 13.1142 5.99091 12.8504C5.35395 12.5865 4.7752 12.1998 4.28769 11.7123C3.80018 11.2248 3.41347 10.646 3.14963 10.0091C2.88579 9.37213 2.75 8.68944 2.75 8C2.75 7.31056 2.8858 6.62787 3.14963 5.99091C3.41347 5.35395 3.80018 4.77519 4.28769 4.28769C4.7752 3.80018 5.35396 3.41347 5.99092 3.14963C6.62787 2.88579 7.31056 2.75 8 2.75L8 2.75Z" stroke="#5064B6" stroke-width="1.5"/>
<path d="M11.7123 11.7123C11.1018 12.3228 10.3502 12.7733 9.52399 13.0239C8.6978 13.2746 7.82255 13.3176 6.97578 13.1491C6.129 12.9807 5.33683 12.606 4.66944 12.0583C4.00204 11.5106 3.48003 10.8067 3.14963 10.0091C2.81924 9.21144 2.69066 8.34462 2.77528 7.48541C2.85991 6.6262 3.15512 5.80112 3.63478 5.08326C4.11445 4.36539 4.76374 3.7769 5.52517 3.36991C6.28659 2.96292 7.13663 2.75 8 2.75" stroke="#5064B6" stroke-width="1.5"/>
</svg>
