<?xml version="1.0" encoding="utf-8"?>
<!-- Generator: Adobe Illustrator 22.1.0, SVG Export Plug-In . SVG Version: 6.00 Build 0)  -->
<svg version="1.1" id="Ebene_1" xmlns="http://www.w3.org/2000/svg" xmlns:xlink="http://www.w3.org/1999/xlink" x="0px" y="0px"
	 viewBox="0 0 1024 1024" style="enable-background:new 0 0 1024 1024;" xml:space="preserve">
<style type="text/css">
	.st0{fill:#9397CD;}
	.st1{fill:#262A33;}
	.st2{fill:#FFFFFF;}
</style>
<g>
	<circle class="st0" cx="512.2" cy="512.1" r="512"/>
</g>
<g>
	<circle class="st1" cx="850" cy="850" r="174"/>
</g>
<g>
	<path class="st2" d="M784.4,773.1h90.7c15.1,0,26.7,3.7,34.8,11.2s12.1,16.8,12.1,27.8c0,9.3-2.9,17.2-8.7,23.8
		c-3.8,4.4-9.5,7.9-16.9,10.5c11.3,2.7,19.5,7.4,24.9,14c5.3,6.6,8,14.9,8,24.9c0,8.1-1.9,15.4-5.7,21.9s-8.9,11.6-15.5,15.4
		c-4.1,2.4-10.2,4.1-18.4,5.1c-10.9,1.4-18.1,2.1-21.7,2.1h-83.6L784.4,773.1L784.4,773.1z M833.3,834.6h21.1
		c7.6,0,12.8-1.3,15.8-3.9c3-2.6,4.4-6.4,4.4-11.3c0-4.6-1.5-8.1-4.4-10.7c-3-2.6-8.1-3.8-15.5-3.8h-21.4L833.3,834.6L833.3,834.6z
		 M833.3,896.2H858c8.3,0,14.2-1.5,17.6-4.4c3.4-3,5.1-6.9,5.1-11.9c0-4.6-1.7-8.4-5.1-11.2c-3.4-2.8-9.3-4.2-17.8-4.2h-24.6
		L833.3,896.2L833.3,896.2z"/>
</g>
<g>
	<path class="st2" d="M511,263c0,0-136.3-4.5-164.4,146.7v103c0,0,1.2,11,32.2,33.4c31,22.4,111.2,85.4,132.3,85.4
		c21,0,101.3-63,132.3-85.4c31-22.4,32.2-33.4,32.2-33.4v-103C647.3,258.5,511,263,511,263z M604.3,465.9H511h-93.3v-56.1
		c18.9-75.1,93.3-76.1,93.3-76.1s74.4,1,93.3,76.1V465.9z"/>
	<path class="st2" d="M511,654.7c0,0-21.1-2.1-37.7-13.5C456.8,629.7,346.6,551,346.6,551v155.9c0,0,0.9,18.1,20.9,18.1
		s143.5,0,143.5,0s123.5,0,143.5,0s20.9-18.1,20.9-18.1V551c0,0-110.2,78.8-126.8,90.2C532.1,652.7,511,654.7,511,654.7z"/>
</g>
</svg>
